<svg width="1922" height="112" viewBox="0 0 1922 112" fill="none" xmlns="http://www.w3.org/2000/svg">
<path d="M1922 0H0V112H1922V0Z" fill="#CFB991"/>
<path d="M571.053 44.338H568.468V42.374H576.268V44.338H573.706V51.416H571.053V44.338Z" fill="#232320"/>
<path d="M579.937 47.9981V51.4141H577.365V42.3721H581.846C583.975 42.3721 585.005 43.5121 585.005 44.8721C585.03 45.3262 584.912 45.7767 584.669 46.161C584.426 46.5453 584.069 46.8441 583.648 47.0161C584.217 47.2161 584.826 47.8161 584.826 49.3501V49.7261C584.81 50.2899 584.849 50.854 584.944 51.4101H582.419C582.249 50.7664 582.184 50.0995 582.226 49.4351V49.2021C582.226 48.4211 582.04 47.9931 580.871 47.9931L579.937 47.9981ZM579.937 46.1511H581.163C582.046 46.1511 582.363 45.7841 582.363 45.1761C582.363 44.5681 581.981 44.2191 581.171 44.2191H579.933L579.937 46.1511Z" fill="#232320"/>
<path d="M588.986 42.374V47.932C588.986 49.232 589.624 49.671 590.427 49.671C591.297 49.671 591.802 49.141 591.802 47.932V42.374H594.463V47.666C594.463 50.666 592.686 51.584 590.382 51.584C587.995 51.584 586.333 50.617 586.333 47.678V42.378L588.986 42.374Z" fill="#232320"/>
<path d="M598.179 48.6781C598.33 49.4661 598.879 49.798 599.737 49.798C600.537 49.798 600.908 49.5171 600.908 48.9921C600.908 48.3971 600.508 48.1731 599.079 47.8311C596.412 47.1851 595.879 46.211 595.879 44.994C595.879 43.476 596.994 42.2061 599.511 42.2061C602.127 42.2061 603.196 43.5331 603.322 44.9591H600.763C600.693 44.4741 600.445 43.9801 599.505 43.9801C598.898 43.9801 598.525 44.2091 598.525 44.6981C598.525 45.1871 598.857 45.378 600.251 45.72C603.037 46.42 603.591 47.42 603.591 48.705C603.591 50.405 602.281 51.5831 599.627 51.5831C597.127 51.5831 595.802 50.416 595.601 48.677L598.179 48.6781Z" fill="#232320"/>
<path d="M606.663 44.338H604.078V42.374H611.878V44.338H609.315V51.416H606.662L606.663 44.338Z" fill="#232320"/>
<path d="M614.808 51.416L612.632 42.374H615.42C615.84 44.4878 616.149 46.622 616.346 48.768H616.387C616.759 46.806 617.307 44.49 617.769 42.374H620.125C620.53 44.203 621.131 46.716 621.446 48.658H621.486C621.711 46.783 622.304 43.766 622.528 42.374H625.074L622.786 51.416H620.077C619.677 49.539 619.153 47.405 618.821 45.65H618.789C618.476 47.359 617.911 49.67 617.521 51.416H614.808Z" fill="#232320"/>
<path d="M634.781 46.8872C634.829 47.5113 634.742 48.1382 634.526 48.7259C634.311 49.3135 633.972 49.8481 633.532 50.2935C633.093 50.739 632.563 51.085 631.978 51.3082C631.393 51.5314 630.768 51.6265 630.143 51.5872C627.102 51.5872 625.632 49.4612 625.632 46.9022C625.588 46.2786 625.678 45.6527 625.895 45.0665C626.112 44.4802 626.452 43.9472 626.892 43.5029C627.332 43.0586 627.862 42.7134 628.446 42.4903C629.03 42.2672 629.655 42.1714 630.279 42.2092C633.129 42.2062 634.781 44.1822 634.781 46.8872ZM628.365 46.8602C628.365 48.5202 628.916 49.6752 630.227 49.6752C631.604 49.6752 632.059 48.4492 632.059 46.9092C632.059 45.2592 631.577 44.1152 630.192 44.1152C628.905 44.1152 628.365 45.1772 628.365 46.8602V46.8602Z" fill="#232320"/>
<path d="M638.813 47.9981V51.4141H636.243V42.3721H640.724C642.853 42.3721 643.884 43.5121 643.884 44.8721C643.909 45.3262 643.791 45.7767 643.548 46.161C643.305 46.5453 642.948 46.8441 642.527 47.0161C643.096 47.2161 643.705 47.8161 643.705 49.3501V49.7261C643.688 50.2899 643.728 50.854 643.822 51.4101H641.297C641.127 50.7664 641.062 50.0995 641.104 49.4351V49.2021C641.104 48.4211 640.918 47.9931 639.749 47.9931L638.813 47.9981ZM638.813 46.1511H640.043C640.926 46.1511 641.243 45.7841 641.243 45.1761C641.243 44.5681 640.861 44.2191 640.052 44.2191H638.813V46.1511Z" fill="#232320"/>
<path d="M647.275 44.338H644.69V42.374H652.49V44.338H649.928V51.416H647.275V44.338Z" fill="#232320"/>
<path d="M653.586 42.374H656.244V45.757H659V42.374H661.662V51.416H659V47.716H656.24V51.416H653.582L653.586 42.374Z" fill="#232320"/>
<path d="M665.626 51.416V48.284C665.633 48.1625 665.601 48.0418 665.534 47.94L662.44 42.374H665.432C666.009 43.648 666.658 45.116 667.076 46.15C667.443 45.161 668.205 43.537 668.738 42.374H671.501L668.368 47.929C668.306 48.0306 668.276 48.149 668.284 48.268V51.416H665.626Z" fill="#232320"/>
<path d="M677.131 48.6781C677.282 49.4661 677.831 49.798 678.689 49.798C679.489 49.798 679.86 49.5171 679.86 48.9921C679.86 48.3971 679.46 48.1731 678.031 47.8311C675.364 47.1851 674.831 46.211 674.831 44.994C674.831 43.476 675.946 42.2061 678.463 42.2061C681.079 42.2061 682.148 43.5331 682.274 44.9591H679.715C679.646 44.4741 679.397 43.9801 678.456 43.9801C677.849 43.9801 677.476 44.2091 677.476 44.6981C677.476 45.1871 677.808 45.378 679.202 45.72C681.988 46.42 682.541 47.42 682.541 48.705C682.541 50.405 681.232 51.5831 678.577 51.5831C676.077 51.5831 674.752 50.416 674.551 48.677L677.131 48.6781Z" fill="#232320"/>
<path d="M692.647 46.8872C692.695 47.5113 692.608 48.1382 692.392 48.7259C692.177 49.3135 691.838 49.8481 691.399 50.2935C690.959 50.739 690.429 51.085 689.844 51.3082C689.259 51.5314 688.634 51.6265 688.009 51.5872C684.968 51.5872 683.498 49.4612 683.498 46.9022C683.454 46.2786 683.544 45.6527 683.761 45.0665C683.978 44.4802 684.318 43.9472 684.758 43.5029C685.198 43.0586 685.728 42.7134 686.312 42.4903C686.896 42.2672 687.521 42.1714 688.145 42.2092C690.995 42.2062 692.647 44.1822 692.647 46.8872ZM686.231 46.8602C686.231 48.5202 686.782 49.6752 688.093 49.6752C689.47 49.6752 689.925 48.4492 689.925 46.9092C689.925 45.2592 689.443 44.1152 688.058 44.1152C686.771 44.1152 686.235 45.1772 686.235 46.8602H686.231Z" fill="#232320"/>
<path d="M694.106 42.374H700.867V44.338H696.701V46.098H700.601V48.071H696.701V51.419H694.101L694.106 42.374Z" fill="#232320"/>
<path d="M704.352 44.338H701.768V42.374H709.568V44.338H707.006V51.416H704.352V44.338Z" fill="#232320"/>
<path d="M712.499 51.416L710.32 42.374H713.109C713.529 44.4878 713.838 46.622 714.035 48.768H714.076C714.448 46.806 714.996 44.49 715.457 42.374H717.809C718.214 44.203 718.815 46.716 719.13 48.658H719.17C719.394 46.783 719.988 43.766 720.212 42.374H722.758L720.47 51.416H717.761C717.361 49.539 716.836 47.405 716.505 45.65H716.473C716.16 47.359 715.595 49.67 715.205 51.416H712.499Z" fill="#232320"/>
<path d="M725.383 49.657L724.859 51.416H722.278L725.135 42.374H728.565L731.535 51.416H728.769L728.219 49.657H725.383ZM727.756 47.693C727.33 46.272 726.983 45.01 726.779 44.128H726.743C726.534 45.102 726.188 46.392 725.822 47.693H727.756Z" fill="#232320"/>
<path d="M735.06 47.9981V51.4141H732.487V42.3721H736.968C739.097 42.3721 740.127 43.5121 740.127 44.8721C740.152 45.3262 740.034 45.7767 739.791 46.161C739.548 46.5453 739.191 46.8441 738.77 47.0161C739.339 47.2161 739.948 47.8161 739.948 49.3501V49.7261C739.932 50.2899 739.971 50.8539 740.065 51.4101H737.54C737.37 50.7663 737.306 50.0994 737.348 49.4351V49.2021C737.348 48.4211 737.162 47.9931 735.993 47.9931L735.06 47.9981ZM735.06 46.1511H736.286C737.169 46.1511 737.486 45.7841 737.486 45.1761C737.486 44.5681 737.104 44.2191 736.294 44.2191H735.056L735.06 46.1511Z" fill="#232320"/>
<path d="M748.254 47.7569H744.134V49.4569H748.734L748.434 51.4209H741.582V42.3789H748.425V44.3429H744.134V45.7979H748.252L748.254 47.7569Z" fill="#232320"/>
<path d="M575.918 65.0342H571.8V66.7342H576.4L576.1 68.6982H569.248V59.6572H576.091V61.6102H571.798V63.0662H575.916L575.918 65.0342Z" fill="#232320"/>
<path d="M585.931 65.7184C585.599 67.6084 584.212 68.8604 581.731 68.8604C578.769 68.8604 577.339 66.8604 577.339 64.2384C577.339 61.6784 578.753 59.4834 581.859 59.4834C584.516 59.4834 585.726 61.0284 585.904 62.5924H583.274C583.242 62.2318 583.069 61.8984 582.793 61.6647C582.516 61.4309 582.159 61.3158 581.798 61.3444C580.51 61.3444 580.071 62.5674 580.071 64.1444C580.071 65.5784 580.437 66.9934 581.827 66.9934C582.187 67.0059 582.538 66.881 582.81 66.644C583.081 66.4071 583.252 66.0758 583.288 65.7174L585.931 65.7184Z" fill="#232320"/>
<path d="M596.099 64.1636C596.147 64.7876 596.06 65.4146 595.844 66.0022C595.629 66.5898 595.29 67.1244 594.851 67.5699C594.411 68.0154 593.881 68.3614 593.296 68.5845C592.711 68.8077 592.086 68.9029 591.461 68.8636C588.42 68.8636 586.95 66.7386 586.95 64.1796C586.906 63.5559 586.996 62.93 587.213 62.3438C587.43 61.7576 587.77 61.2245 588.21 60.7802C588.65 60.336 589.18 59.9908 589.764 59.7677C590.348 59.5446 590.973 59.4487 591.597 59.4866C594.447 59.4826 596.099 61.4586 596.099 64.1636ZM589.683 64.1366C589.683 65.7966 590.234 66.9516 591.545 66.9516C592.922 66.9516 593.377 65.7256 593.377 64.1856C593.377 62.5356 592.895 61.3916 591.51 61.3916C590.22 61.3916 589.683 62.4536 589.683 64.1366V64.1366Z" fill="#232320"/>
<path d="M599.574 65.9553C599.725 66.7433 600.274 67.0743 601.132 67.0743C601.932 67.0743 602.303 66.7933 602.303 66.2743C602.303 65.6793 601.903 65.4543 600.475 65.1133C597.807 64.4673 597.275 63.4943 597.275 62.2773C597.275 60.7593 598.39 59.4893 600.906 59.4893C603.523 59.4893 604.591 60.8163 604.717 62.2423H602.158C602.089 61.7573 601.84 61.2633 600.899 61.2633C600.292 61.2633 599.92 61.4923 599.92 61.9813C599.92 62.4703 600.251 62.6613 601.646 63.0033C604.432 63.7033 604.985 64.7033 604.985 65.9883C604.985 67.6883 603.676 68.8653 601.021 68.8653C598.521 68.8653 597.196 67.6983 596.996 65.9593L599.574 65.9553Z" fill="#232320"/>
<path d="M608.158 68.6914V65.5604C608.165 65.4388 608.133 65.3182 608.066 65.2164L604.972 59.6504H607.964C608.541 60.9244 609.19 62.3924 609.607 63.4264C609.974 62.4374 610.737 60.8134 611.269 59.6504H614.032L610.899 65.2054C610.837 65.3069 610.807 65.4254 610.815 65.5444V68.6924L608.158 68.6914Z" fill="#232320"/>
<path d="M616.627 65.9553C616.778 66.7433 617.327 67.0743 618.185 67.0743C618.985 67.0743 619.356 66.7933 619.356 66.2743C619.356 65.6793 618.956 65.4543 617.527 65.1133C614.859 64.4673 614.327 63.4943 614.327 62.2773C614.327 60.7593 615.442 59.4893 617.959 59.4893C620.575 59.4893 621.643 60.8163 621.77 62.2423H619.211C619.141 61.7573 618.892 61.2633 617.952 61.2633C617.345 61.2633 616.973 61.4923 616.973 61.9813C616.973 62.4703 617.304 62.6613 618.699 63.0033C621.485 63.7033 622.038 64.7033 622.038 65.9883C622.038 67.6883 620.729 68.8653 618.074 68.8653C615.574 68.8653 614.248 67.6983 614.048 65.9593L616.627 65.9553Z" fill="#232320"/>
<path d="M625.111 61.6095H622.527V59.6455H630.327V61.6095H627.765V68.6875H625.112L625.111 61.6095Z" fill="#232320"/>
<path d="M638.091 65.0342H633.973V66.7342H638.573L638.273 68.6982H631.421V59.6572H638.264V61.6102H633.971V63.0662H638.089L638.091 65.0342Z" fill="#232320"/>
<path d="M647.35 65.7414C647.35 64.3284 647.381 62.5084 647.42 61.4344H647.35C646.972 63.3734 646.363 66.0584 645.703 68.6914H643.581C643.062 66.1384 642.468 63.4474 642.115 61.4354H642.037C642.111 62.4994 642.159 64.2634 642.159 65.8134V68.6914H639.8V59.6504H643.614C644.059 61.4794 644.581 64.1324 644.784 65.4684H644.83C645.063 64.0144 645.665 61.6154 646.191 59.6504H649.897V68.6914H647.35V65.7414Z" fill="#232320"/>
<path d="M653.66 65.9553C653.811 66.7433 654.36 67.0743 655.218 67.0743C656.018 67.0743 656.389 66.7933 656.389 66.2743C656.389 65.6793 655.989 65.4543 654.56 65.1133C651.893 64.4673 651.36 63.4943 651.36 62.2773C651.36 60.7593 652.475 59.4893 654.992 59.4893C657.608 59.4893 658.677 60.8163 658.803 62.2423H656.24C656.17 61.7573 655.922 61.2633 654.982 61.2633C654.375 61.2633 654.002 61.4923 654.002 61.9813C654.002 62.4703 654.334 62.6613 655.728 63.0033C658.514 63.7033 659.068 64.7033 659.068 65.9883C659.068 67.6883 657.758 68.8653 655.104 68.8653C652.604 68.8653 651.279 67.6983 651.078 65.9593L653.66 65.9553Z" fill="#232320"/>
<path d="M663.356 59.6504H666.014V66.7284H670.276L669.989 68.6924H663.356V59.6504Z" fill="#232320"/>
<path d="M674.006 66.9334L673.482 68.6924H670.901L673.758 59.6514H677.188L680.158 68.6924H677.392L676.843 66.9334H674.006ZM676.379 64.9704C675.954 63.5504 675.606 62.2864 675.402 61.4054H675.366C675.157 62.3794 674.811 63.6694 674.445 64.9704H676.379Z" fill="#232320"/>
<path d="M681.108 59.6504H685.608C687.788 59.6504 688.75 60.7314 688.75 62.0014C688.77 62.4137 688.663 62.8221 688.442 63.1712C688.222 63.5203 687.9 63.793 687.519 63.9524C687.951 64.0909 688.328 64.3638 688.595 64.7315C688.861 65.0992 689.003 65.5424 689 65.9964C689 67.4784 687.892 68.6904 685.637 68.6904H681.108V59.6504ZM685.159 63.1364C685.888 63.1364 686.182 62.7604 686.182 62.2714C686.182 61.7104 685.775 61.4354 685.138 61.4354H683.68V63.1354L685.159 63.1364ZM683.68 66.9124H685.035C685.906 66.9124 686.276 66.5334 686.276 65.8864C686.276 65.3184 685.926 64.9164 685.083 64.9164H683.683L683.68 66.9124Z" fill="#232320"/>
<path d="M450.144 81.3288C450.001 81.4716 449.832 81.5849 449.645 81.6621C449.459 81.7394 449.259 81.7792 449.057 81.7792C448.855 81.7792 448.655 81.7394 448.469 81.6621C448.282 81.5849 448.113 81.4716 447.97 81.3288L423.26 56.6188C423.117 56.4761 423.004 56.3066 422.927 56.1201C422.849 55.9336 422.81 55.7337 422.81 55.5318C422.81 55.3299 422.849 55.13 422.927 54.9435C423.004 54.757 423.117 54.5876 423.26 54.4448L447.97 29.7348C448.113 29.592 448.282 29.4788 448.469 29.4015C448.655 29.3242 448.855 29.2845 449.057 29.2845C449.259 29.2845 449.459 29.3242 449.645 29.4015C449.832 29.4788 450.001 29.592 450.144 29.7348L474.854 54.4448C474.997 54.5876 475.11 54.757 475.187 54.9435C475.265 55.13 475.304 55.3299 475.304 55.5318C475.304 55.7337 475.265 55.9336 475.187 56.1201C475.11 56.3066 474.997 56.4761 474.854 56.6188L470.554 60.9188L474.227 64.5918L480.396 58.4228C481.164 57.6551 481.595 56.6139 481.595 55.5283C481.595 54.4427 481.164 53.4016 480.396 52.6338L451.956 24.1938C451.188 23.4263 450.147 22.9951 449.062 22.9951C447.976 22.9951 446.935 23.4263 446.167 24.1938L417.727 52.6338C416.959 53.4016 416.528 54.4427 416.528 55.5283C416.528 56.6139 416.959 57.6551 417.727 58.4228L446.167 86.8628C446.935 87.6304 447.976 88.0615 449.062 88.0615C450.147 88.0615 451.188 87.6304 451.956 86.8628L463.168 75.6498L459.496 71.9778L450.144 81.3288Z" fill="#232320"/>
<path d="M485.711 81.3297C485.568 81.4725 485.399 81.5858 485.212 81.6631C485.026 81.7403 484.826 81.7801 484.624 81.7801C484.422 81.7801 484.222 81.7403 484.036 81.6631C483.849 81.5858 483.68 81.4725 483.537 81.3297L458.827 56.6198C458.684 56.477 458.571 56.3076 458.494 56.121C458.416 55.9345 458.377 55.7346 458.377 55.5327C458.377 55.3309 458.416 55.131 458.494 54.9444C458.571 54.7579 458.684 54.5885 458.827 54.4458L463.215 50.0578L459.542 46.3857L453.289 52.6387C452.522 53.4065 452.09 54.4476 452.09 55.5332C452.09 56.6189 452.522 57.66 453.289 58.4277L481.729 86.8678C482.497 87.6353 483.538 88.0665 484.624 88.0665C485.709 88.0665 486.75 87.6353 487.518 86.8678L498.742 75.6427L495.069 71.9707L485.711 81.3297Z" fill="#232320"/>
<path d="M483.536 29.7357C483.679 29.5929 483.848 29.4797 484.035 29.4024C484.221 29.3251 484.421 29.2854 484.623 29.2854C484.825 29.2854 485.025 29.3251 485.211 29.4024C485.398 29.4797 485.567 29.5929 485.71 29.7357L510.42 54.4457C510.563 54.5884 510.676 54.7579 510.753 54.9444C510.831 55.1309 510.87 55.3308 510.87 55.5327C510.87 55.7346 510.831 55.9345 510.753 56.121C510.676 56.3075 510.563 56.477 510.42 56.6197L506.055 60.9687L509.733 64.6517L515.957 58.4277C516.725 57.66 517.156 56.6188 517.156 55.5332C517.156 54.4476 516.725 53.4065 515.957 52.6387L487.517 24.1987C486.749 23.4312 485.708 23 484.623 23C483.537 23 482.496 23.4312 481.728 24.1987L470.556 35.3717L474.228 39.0437L483.536 29.7357Z" fill="#232320"/>
<path d="M551.524 52.6377L523.084 24.1977C522.316 23.4302 521.275 22.999 520.19 22.999C519.104 22.999 518.063 23.4302 517.295 24.1977L506.089 35.4067L509.761 39.0787L519.102 29.7377C519.245 29.595 519.414 29.4817 519.601 29.4044C519.787 29.3271 519.987 29.2874 520.189 29.2874C520.391 29.2874 520.591 29.3271 520.777 29.4044C520.964 29.4817 521.133 29.595 521.276 29.7377L545.986 54.4477C546.129 54.5905 546.242 54.7599 546.319 54.9464C546.397 55.1329 546.436 55.3328 546.436 55.5347C546.436 55.7366 546.397 55.9365 546.319 56.123C546.242 56.3095 546.129 56.479 545.986 56.6217L521.276 81.3317C521.133 81.4745 520.964 81.5878 520.777 81.665C520.591 81.7423 520.391 81.7821 520.189 81.7821C519.987 81.7821 519.787 81.7423 519.601 81.665C519.414 81.5878 519.245 81.4745 519.102 81.3317L494.392 56.6217C494.249 56.479 494.136 56.3095 494.059 56.123C493.981 55.9365 493.942 55.7366 493.942 55.5347C493.942 55.3328 493.981 55.1329 494.059 54.9464C494.136 54.7599 494.249 54.5905 494.392 54.4477L498.724 50.1157L495.052 46.4427L488.852 52.6427C488.084 53.4105 487.653 54.4516 487.653 55.5372C487.653 56.6228 488.084 57.664 488.852 58.4317L517.292 86.8717C518.06 87.6393 519.101 88.0704 520.187 88.0704C521.272 88.0704 522.313 87.6393 523.081 86.8717L551.521 58.4317C551.902 58.0517 552.204 57.6003 552.411 57.1033C552.617 56.6063 552.723 56.0735 552.724 55.5354C552.724 54.9972 552.618 54.4643 552.412 53.9671C552.206 53.4699 551.905 53.0182 551.524 52.6377V52.6377Z" fill="#232320"/>
</svg>
