<svg width="94" height="109" viewBox="0 0 94 109" fill="none" xmlns="http://www.w3.org/2000/svg">
<path d="M55.021 98.4172H16.2111C15.9559 98.4172 15.7112 98.3241 15.5308 98.1582C15.3504 97.9923 15.249 97.7673 15.249 97.5327V14.7244C15.249 14.4898 15.3504 14.2648 15.5308 14.099C15.7112 13.9331 15.9559 13.8398 16.2111 13.8398H65.457C65.7123 13.8397 65.9572 13.9326 66.138 14.0982L82.555 29.1872C82.6447 29.2693 82.7158 29.3669 82.7644 29.4744C82.8129 29.5818 82.838 29.697 82.838 29.8134V78.3474C82.838 78.5822 82.7365 78.8074 82.5559 78.9734C82.3753 79.1395 82.1304 79.2328 81.875 79.2328C81.6196 79.2328 81.3747 79.1395 81.1941 78.9734C81.0135 78.8074 80.912 78.5822 80.912 78.3474V30.1803L65.058 15.6053H17.173V96.6445H55.021C55.2762 96.6445 55.5209 96.7376 55.7013 96.9035C55.8817 97.0694 55.983 97.2944 55.983 97.529C55.983 97.7636 55.8817 97.9886 55.7013 98.1545C55.5209 98.3204 55.2762 98.4136 55.021 98.4136V98.4172Z" fill="#616161"/>
<path d="M0.961975 84.8904C0.706837 84.8904 0.462148 84.7972 0.281738 84.6313C0.101328 84.4654 0 84.2404 0 84.0058V1.21022C0 0.975621 0.101328 0.75063 0.281738 0.584742C0.462148 0.418855 0.706837 0.325684 0.961975 0.325684H66.627C66.8824 0.325684 67.1273 0.418963 67.3079 0.585023C67.4885 0.751083 67.59 0.976331 67.59 1.21118C67.59 1.44602 67.4885 1.67121 67.3079 1.83727C67.1273 2.00333 66.8824 2.09661 66.627 2.09661H1.927V84.0058C1.927 84.1222 1.90199 84.2375 1.85345 84.345C1.80492 84.4525 1.73381 84.5501 1.64417 84.6323C1.55452 84.7144 1.44812 84.7796 1.33105 84.8239C1.21399 84.8682 1.08856 84.8907 0.961975 84.8904V84.8904Z" fill="#616161"/>
<path d="M81.9 30.6976C81.89 30.699 81.8799 30.699 81.87 30.6976H65.458C65.3315 30.6977 65.2063 30.6749 65.0894 30.6306C64.9725 30.5862 64.8662 30.521 64.7767 30.4389C64.6872 30.3568 64.6162 30.2592 64.5677 30.1518C64.5192 30.0445 64.4941 29.9293 64.494 29.813V14.7241C64.4942 14.549 64.5509 14.3778 64.6569 14.2322C64.7628 14.0867 64.9132 13.9733 65.0892 13.9063C65.2652 13.8393 65.4589 13.8217 65.6457 13.8558C65.8325 13.8899 66.0042 13.9742 66.139 14.0979L82.43 29.071C82.6035 29.1753 82.7358 29.3283 82.8071 29.5073C82.8785 29.6863 82.8851 29.8817 82.826 30.0645C82.7669 30.2472 82.6453 30.4076 82.4792 30.5216C82.3131 30.6357 82.1113 30.6974 81.904 30.6976H81.9ZM66.416 28.9285H79.55L66.42 16.8582L66.416 28.9285Z" fill="#616161"/>
<path d="M72.7189 102.652C69.6837 102.653 66.7164 101.825 64.1925 100.275C61.6686 98.7248 59.7014 96.5211 58.5396 93.9427C57.3778 91.3643 57.0737 88.527 57.6657 85.7897C58.2577 83.0524 59.7192 80.5379 61.8654 78.5644C64.0116 76.5908 66.746 75.2468 69.723 74.7023C72.6999 74.1578 75.7856 74.4373 78.5899 75.5054C81.3941 76.5734 83.7908 78.3821 85.4771 80.7028C87.1633 83.0234 88.0631 85.7518 88.0629 88.5427C88.0576 92.2832 86.4394 95.869 83.563 98.514C80.6866 101.159 76.7869 102.647 72.7189 102.652V102.652ZM72.7189 76.2021C70.0647 76.2017 67.4699 76.9251 65.2628 78.2807C63.0556 79.6364 61.3352 81.5634 60.3192 83.8181C59.3031 86.0728 59.037 88.5539 59.5545 90.9476C60.072 93.3414 61.3499 95.5403 63.2265 97.2662C65.1032 98.9922 67.4943 100.168 70.0975 100.644C72.7007 101.12 75.3991 100.876 77.8514 99.9426C80.3037 99.0088 82.3998 97.4273 83.8746 95.3982C85.3495 93.369 86.1368 90.9833 86.137 88.5427C86.1327 85.2714 84.7178 82.1352 82.2024 79.8218C79.687 77.5085 76.2766 76.2067 72.7189 76.2021V76.2021Z" fill="#616161"/>
<path d="M76.455 76.6644C76.3677 76.6647 76.2808 76.6532 76.197 76.6304C73.9183 76.0592 71.5148 76.0592 69.236 76.6304C69.0932 76.6671 68.943 76.6729 68.7973 76.6475C68.6516 76.622 68.5143 76.5659 68.3961 76.4835C68.2778 76.4012 68.182 76.2948 68.1158 76.1727C68.0497 76.0507 68.0152 75.9162 68.015 75.7798V69.9631C68.015 69.8468 68.04 69.7317 68.0884 69.6242C68.1369 69.5168 68.2079 69.4192 68.2975 69.337C68.387 69.2548 68.4933 69.1897 68.6102 69.1454C68.7272 69.1011 68.8525 69.0784 68.979 69.0786H76.455C76.5815 69.0784 76.7068 69.1011 76.8237 69.1454C76.9407 69.1897 77.047 69.2548 77.1365 69.337C77.2261 69.4192 77.2971 69.5168 77.3456 69.6242C77.3941 69.7317 77.419 69.8468 77.419 69.9631V75.7798C77.4185 76.0146 77.3167 76.2396 77.1359 76.4054C76.9552 76.5713 76.7103 76.6644 76.455 76.6644ZM69.942 70.8495V74.6663C71.777 74.356 73.658 74.356 75.493 74.6663V70.8495H69.942Z" fill="#616161"/>
<path d="M86.617 86.0249C86.4899 86.025 86.364 86.0015 86.247 85.9559C86.1103 85.9042 85.9885 85.824 85.8912 85.7218C85.7939 85.6195 85.7236 85.4979 85.686 85.3665C85.0731 83.2642 83.8699 81.347 82.197 79.8071C82.0924 79.7111 82.0132 79.5942 81.9656 79.4654C81.918 79.3367 81.9034 79.1996 81.9227 79.0648C81.942 78.93 81.9949 78.8011 82.0771 78.6881C82.1594 78.5751 82.2688 78.481 82.3969 78.4132L87.873 75.5121C88.0945 75.3957 88.3571 75.3646 88.6035 75.4255C88.8499 75.4865 89.06 75.6347 89.188 75.8376L92.926 81.7951C92.9899 81.8957 93.0314 82.0069 93.0483 82.1224C93.0651 82.2378 93.057 82.3551 93.0243 82.4676C92.9916 82.5801 92.9349 82.6856 92.8576 82.7778C92.7803 82.8701 92.6839 82.9474 92.574 83.0052L87.098 85.9063C86.9519 85.9842 86.7859 86.0251 86.617 86.0249V86.0249ZM84.401 79.3943C85.0042 80.0483 85.5417 80.7513 86.007 81.4945C86.4719 82.2363 86.8637 83.0148 87.178 83.8208L90.778 81.9138L87.999 77.4872L84.401 79.3943Z" fill="#616161"/>
<path d="M88.353 101.703C88.1847 101.703 88.0193 101.663 87.873 101.586L82.397 98.6873C82.2692 98.6194 82.1601 98.5254 82.0781 98.4126C81.996 98.2998 81.9433 98.1711 81.924 98.0365C81.9047 97.902 81.9193 97.7652 81.9666 97.6366C82.0139 97.5081 82.0928 97.3912 82.197 97.2952C83.031 96.5271 83.7515 95.6614 84.34 94.7206C84.9321 93.7816 85.3851 92.7742 85.687 91.7249C85.7243 91.593 85.7942 91.4709 85.8912 91.368C85.9883 91.2651 86.1099 91.1842 86.2466 91.1316C86.3832 91.079 86.5313 91.0561 86.6791 91.0648C86.827 91.0734 86.9707 91.1133 87.099 91.1815L92.575 94.0953C92.6844 94.1533 92.7802 94.2306 92.8571 94.3227C92.9339 94.4148 92.9902 94.5199 93.0228 94.632C93.0554 94.7442 93.0637 94.8612 93.0471 94.9762C93.0305 95.0913 92.9893 95.2022 92.926 95.3026L89.187 101.26C89.1026 101.395 88.981 101.507 88.8346 101.584C88.6882 101.662 88.5221 101.703 88.353 101.703ZM84.4 97.7044L88 99.6105L90.779 95.184L87.179 93.2706C86.864 94.0788 86.4711 94.8595 86.005 95.6033C85.5397 96.3468 85.0021 97.05 84.399 97.7044H84.4Z" fill="#616161"/>
<path d="M76.455 108.008H68.979C68.8525 108.008 68.7273 107.986 68.6104 107.941C68.4935 107.897 68.3872 107.832 68.2977 107.749C68.2082 107.667 68.1372 107.57 68.0887 107.462C68.0402 107.355 68.0151 107.24 68.015 107.124V101.323C68.0149 101.188 68.0486 101.055 68.1135 100.933C68.1783 100.812 68.2727 100.706 68.3892 100.623C68.5057 100.54 68.6412 100.483 68.7854 100.456C68.9296 100.429 69.0787 100.433 69.221 100.467C71.5125 101.019 73.9196 101.019 76.211 100.467C76.3533 100.433 76.5023 100.429 76.6465 100.456C76.7908 100.483 76.9264 100.54 77.0428 100.623C77.1593 100.706 77.2536 100.812 77.3185 100.933C77.3833 101.055 77.4171 101.188 77.417 101.323V107.124C77.4167 107.358 77.3153 107.583 77.1349 107.749C76.9546 107.915 76.7101 108.008 76.455 108.008V108.008ZM69.942 106.237H75.493V102.423C73.6572 102.725 71.7778 102.725 69.942 102.423V106.237Z" fill="#616161"/>
<path d="M57.0879 101.703C56.9191 101.703 56.7533 101.662 56.607 101.585C56.4608 101.507 56.3394 101.395 56.2549 101.261L52.516 95.3035C52.4523 95.2031 52.4109 95.092 52.3941 94.9767C52.3773 94.8615 52.3855 94.7443 52.4183 94.632C52.451 94.5196 52.5076 94.4144 52.5848 94.3223C52.6619 94.2302 52.7582 94.153 52.868 94.0953L58.3409 91.1943C58.4687 91.1268 58.6115 91.0872 58.7585 91.0785C58.9055 91.0698 59.0526 91.0922 59.1887 91.1439C59.3248 91.1957 59.4462 91.2755 59.5435 91.3772C59.6408 91.4788 59.7114 91.5997 59.75 91.7304C60.364 93.8344 61.5681 95.7534 63.242 97.2952C63.3462 97.3912 63.425 97.5081 63.4724 97.6366C63.5197 97.7652 63.5343 97.902 63.515 98.0365C63.4956 98.1711 63.4429 98.2997 63.3609 98.4125C63.2789 98.5254 63.1698 98.6194 63.042 98.6873L57.569 101.586C57.4224 101.663 57.2566 101.703 57.0879 101.703V101.703ZM54.662 95.1849L57.441 99.6105L61.041 97.7043C60.4358 97.0504 59.8972 96.3468 59.4319 95.6024C58.9681 94.8607 58.5773 94.0825 58.264 93.277L54.662 95.1849Z" fill="#616161"/>
<path d="M58.82 86.0252C58.6514 86.0253 58.4858 85.9844 58.34 85.9066L52.871 83.0065C52.761 82.9487 52.6646 82.8714 52.5873 82.7791C52.51 82.6869 52.4534 82.5814 52.4207 82.4689C52.388 82.3564 52.3798 82.2391 52.3967 82.1236C52.4135 82.0082 52.4551 81.897 52.519 81.7964L56.258 75.839C56.3856 75.6362 56.5954 75.488 56.8414 75.427C57.0875 75.366 57.3498 75.3971 57.571 75.5135L63.044 78.4145C63.1718 78.4826 63.2809 78.5768 63.3629 78.6898C63.4449 78.8028 63.4977 78.9315 63.517 79.0662C63.5363 79.2009 63.5217 79.3379 63.4744 79.4665C63.4271 79.5952 63.3482 79.7122 63.244 79.8085C62.4092 80.5747 61.688 81.4388 61.099 82.3785C60.5127 83.3188 60.0599 84.3243 59.752 85.3705C59.6968 85.5587 59.5759 85.7249 59.4078 85.8436C59.2398 85.9622 59.0339 86.0267 58.822 86.0271L58.82 86.0252ZM54.662 81.9141L58.262 83.8221C58.5756 83.0164 58.9665 82.2379 59.43 81.4957C59.8953 80.7513 60.4339 80.0477 61.039 79.3937L57.439 77.4867L54.662 81.9141Z" fill="#616161"/>
<path d="M72.722 96.0455C71.1095 96.0461 69.533 95.607 68.1918 94.7837C66.8506 93.9605 65.8051 92.7901 65.1872 91.4205C64.5694 90.0509 64.4071 88.5437 64.7208 87.0893C65.0345 85.6349 65.8102 84.2987 66.9497 83.2496C68.0893 82.2005 69.5415 81.4856 71.1228 81.1953C72.7042 80.9051 74.3436 81.0525 75.8338 81.6189C77.3241 82.1854 78.5982 83.1453 79.4952 84.3775C80.3921 85.6097 80.8716 87.0587 80.873 88.5415C80.8711 90.5296 80.0121 92.4359 78.4841 93.8425C76.9562 95.2492 74.8841 96.0414 72.722 96.0455ZM72.722 82.8203C71.4896 82.8196 70.2846 83.1551 69.2595 83.7843C68.2345 84.4135 67.4355 85.3081 66.9637 86.355C66.4918 87.4019 66.3683 88.554 66.6087 89.6654C66.8492 90.7769 67.4428 91.7978 68.3145 92.5989C69.1862 93.4 70.2967 93.9454 71.5056 94.166C72.7145 94.3865 73.9674 94.2724 75.1057 93.838C76.244 93.4036 77.2166 92.6685 77.9003 91.7257C78.5841 90.7829 78.9484 89.6747 78.947 88.5415C78.9438 87.0245 78.2868 85.5706 77.12 84.4983C75.9532 83.4259 74.3717 82.8225 72.722 82.8203V82.8203Z" fill="#616161"/>
<path d="M37.057 49.8241C36.9173 49.8242 36.7793 49.7963 36.6525 49.7423C36.5257 49.6883 36.4133 49.6095 36.323 49.5114L30.267 42.9342C30.1232 42.7776 30.0427 42.5801 30.0392 42.3751C30.0358 42.1701 30.1095 41.9704 30.248 41.8097L35.931 35.25C36.0901 35.0662 36.3221 34.9481 36.5759 34.9217C36.8298 34.8952 37.0847 34.9625 37.2845 35.1088C37.4844 35.2551 37.6128 35.4685 37.6416 35.7019C37.6704 35.9353 37.5971 36.1696 37.438 36.3534L32.246 42.3439L37.791 48.3676C37.9097 48.4964 37.9858 48.6536 38.0105 48.8209C38.0351 48.9881 38.0072 49.1583 37.93 49.3114C37.8529 49.4645 37.7297 49.5942 37.575 49.685C37.4203 49.7759 37.2406 49.8241 37.057 49.8241V49.8241Z" fill="#616161"/>
<path d="M52.332 49.824C52.1486 49.8236 51.9692 49.7751 51.8148 49.6842C51.6604 49.5933 51.5374 49.4638 51.4603 49.3108C51.3832 49.1578 51.3552 48.9878 51.3796 48.8207C51.404 48.6536 51.4798 48.4964 51.598 48.3675L57.146 42.3438L51.956 36.3532C51.8028 36.1691 51.7342 35.9371 51.765 35.707C51.7958 35.477 51.9236 35.2671 52.1207 35.1226C52.3179 34.9782 52.5688 34.9106 52.8196 34.9344C53.0704 34.9581 53.301 35.0714 53.462 35.2498L59.145 41.8096C59.2838 41.9701 59.3578 42.1699 59.3543 42.375C59.3509 42.58 59.2701 42.7776 59.126 42.9341L53.068 49.5113C52.9775 49.6096 52.8648 49.6885 52.7376 49.7425C52.6105 49.7965 52.472 49.8243 52.332 49.824V49.824Z" fill="#616161"/>
<path d="M41.032 48.8773C40.8607 48.8775 40.6924 48.8353 40.545 48.755C40.325 48.6356 40.1656 48.4409 40.1015 48.2136C40.0373 47.9862 40.0739 47.7448 40.203 47.5422L48.161 35.1096C48.2233 35.0061 48.3075 34.9151 48.4087 34.8421C48.5098 34.769 48.6259 34.7153 48.75 34.6841C48.8741 34.653 49.0036 34.645 49.1311 34.6606C49.2586 34.6763 49.3814 34.7153 49.4923 34.7753C49.6031 34.8354 49.6998 34.9152 49.7765 35.0101C49.8533 35.105 49.9085 35.2131 49.9391 35.328C49.9696 35.4429 49.9748 35.5623 49.9544 35.6791C49.9339 35.7958 49.8883 35.9077 49.82 36.0079L41.862 48.4424C41.7766 48.5749 41.6552 48.6847 41.5097 48.7609C41.3641 48.8372 41.1995 48.8773 41.032 48.8773V48.8773Z" fill="#616161"/>
<path d="M55.272 66.2789H23.459C23.2036 66.2789 22.9587 66.1856 22.7781 66.0196C22.5975 65.8535 22.496 65.6282 22.496 65.3934C22.496 65.1585 22.5975 64.9332 22.7781 64.7672C22.9587 64.6011 23.2036 64.5078 23.459 64.5078H55.272C55.5274 64.5078 55.7723 64.6011 55.9529 64.7672C56.1335 64.9332 56.235 65.1585 56.235 65.3934C56.235 65.6282 56.1335 65.8535 55.9529 66.0196C55.7723 66.1856 55.5274 66.2789 55.272 66.2789V66.2789Z" fill="#616161"/>
<path d="M55.272 72.8999H23.459C23.3327 72.8999 23.2076 72.8771 23.0909 72.8326C22.9742 72.7882 22.8681 72.723 22.7787 72.6408C22.6894 72.5587 22.6186 72.4612 22.5703 72.3539C22.5219 72.2466 22.497 72.1315 22.497 72.0154C22.497 71.8992 22.5219 71.7842 22.5703 71.6769C22.6186 71.5695 22.6894 71.4721 22.7787 71.3899C22.8681 71.3078 22.9742 71.2426 23.0909 71.1981C23.2076 71.1537 23.3327 71.1309 23.459 71.1309H55.272C55.3983 71.1309 55.5234 71.1537 55.6401 71.1981C55.7569 71.2426 55.8629 71.3078 55.9522 71.3899C56.0415 71.4721 56.1124 71.5695 56.1608 71.6769C56.2091 71.7842 56.234 71.8992 56.234 72.0154C56.234 72.1315 56.2091 72.2466 56.1608 72.3539C56.1124 72.4612 56.0415 72.5587 55.9522 72.6408C55.8629 72.723 55.7569 72.7882 55.6401 72.8326C55.5234 72.8771 55.3983 72.8999 55.272 72.8999Z" fill="#616161"/>
<path d="M31.501 79.5059H23.458C23.2026 79.5059 22.9576 79.4126 22.777 79.2465C22.5964 79.0805 22.495 78.8552 22.495 78.6204C22.495 78.3855 22.5964 78.1603 22.777 77.9943C22.9576 77.8282 23.2026 77.7349 23.458 77.7349H31.501C31.7564 77.7349 32.0013 77.8282 32.1819 77.9943C32.3625 78.1603 32.464 78.3855 32.464 78.6204C32.464 78.8552 32.3625 79.0805 32.1819 79.2465C32.0013 79.4126 31.7564 79.5059 31.501 79.5059V79.5059Z" fill="#616161"/>
<path d="M39.001 86.126H23.459C23.2036 86.126 22.9587 86.0327 22.7781 85.8666C22.5975 85.7006 22.496 85.4753 22.496 85.2405C22.496 85.0056 22.5975 84.7804 22.7781 84.6143C22.9587 84.4483 23.2036 84.355 23.459 84.355H39.001C39.2564 84.355 39.5013 84.4483 39.6819 84.6143C39.8625 84.7804 39.964 85.0056 39.964 85.2405C39.964 85.4753 39.8625 85.7006 39.6819 85.8666C39.5013 86.0327 39.2564 86.126 39.001 86.126V86.126Z" fill="#616161"/>
<path d="M44.086 79.5059H36.034C35.7786 79.5059 35.5336 79.4126 35.353 79.2465C35.1724 79.0805 35.071 78.8552 35.071 78.6204C35.071 78.3855 35.1724 78.1603 35.353 77.9943C35.5336 77.8282 35.7786 77.7349 36.034 77.7349H44.086C44.3414 77.7349 44.5863 77.8282 44.7669 77.9943C44.9475 78.1603 45.049 78.3855 45.049 78.6204C45.049 78.8552 44.9475 79.0805 44.7669 79.2465C44.5863 79.4126 44.3414 79.5059 44.086 79.5059V79.5059Z" fill="#616161"/>
</svg>
