<svg width="101" height="109" viewBox="0 0 101 109" fill="none" xmlns="http://www.w3.org/2000/svg">
<path d="M17.0691 17.4553C15.227 17.4539 13.4268 16.9502 11.896 16.008C10.3653 15.0658 9.17273 13.7274 8.46918 12.162C7.76563 10.5967 7.58268 8.87462 7.94345 7.21364C8.30422 5.55265 9.1925 4.02734 10.496 2.83055C11.7995 1.63377 13.4597 0.819257 15.2666 0.490019C17.0735 0.160782 18.946 0.331591 20.6474 0.980867C22.3487 1.63014 23.8025 2.72871 24.8249 4.13767C25.8472 5.54664 26.3923 7.20271 26.3911 8.8965C26.3863 11.1673 25.4022 13.3437 23.6546 14.9482C21.907 16.5527 19.5387 17.4544 17.0691 17.4553V17.4553ZM17.0691 2.09947C15.6086 2.10165 14.1816 2.50179 12.9684 3.24934C11.7551 3.99688 10.8101 5.05829 10.2526 6.29949C9.69505 7.54068 9.5501 8.90597 9.83603 10.2229C10.122 11.5398 10.826 12.7492 11.8591 13.6984C12.8922 14.6476 14.2081 15.2939 15.6405 15.5558C17.0729 15.8176 18.5576 15.6832 19.907 15.1696C21.2564 14.6559 22.4099 13.7861 23.2219 12.6699C24.0339 11.5537 24.4679 10.2412 24.4691 8.89835C24.4683 7.09419 23.6883 5.36418 22.3006 4.08871C20.9129 2.81323 19.0312 2.09672 17.0691 2.09672V2.09947Z" fill="#707070"/>
<path d="M29.845 43.879C28.8529 43.8793 27.9013 43.5178 27.1987 42.8738C26.4961 42.2298 26.0999 41.3559 26.097 40.4437V37.3514C26.097 37.1166 26.1984 36.8914 26.379 36.7253C26.5596 36.5593 26.8046 36.4659 27.06 36.4659C27.3154 36.4659 27.5604 36.5593 27.741 36.7253C27.9216 36.8914 28.023 37.1166 28.023 37.3514V40.4437C28.0308 40.8848 28.2256 41.3056 28.566 41.6165C28.9063 41.9274 29.3653 42.1038 29.845 42.1081C30.3311 42.0825 30.789 41.8896 31.1276 41.5678C31.4661 41.2459 31.6605 40.8187 31.672 40.3711V28.3522C31.6699 26.4147 30.8314 24.5573 29.3407 23.188C27.85 21.8187 25.8291 21.0495 23.722 21.0495H10.871C8.76552 21.0507 6.7465 21.8199 5.25701 23.1883C3.76753 24.5567 2.92923 26.4125 2.92605 28.3485V40.4511C2.92923 40.8925 3.12278 41.3147 3.4642 41.625C3.80562 41.9354 4.26701 42.1084 4.74706 42.1062C5.22705 42.1022 5.68634 41.9259 6.02706 41.6151C6.36778 41.3042 6.56297 40.8832 6.57103 40.4419V37.3496C6.57103 37.1147 6.67251 36.8895 6.85311 36.7235C7.03371 36.5574 7.27864 36.4641 7.53405 36.4641C7.78945 36.4641 8.03439 36.5574 8.21498 36.7235C8.39558 36.8895 8.49706 37.1147 8.49706 37.3496V40.4419C8.49838 41.3564 8.10456 42.2339 7.40224 42.8814C6.69992 43.529 5.7466 43.8934 4.75204 43.8947C3.75748 43.8959 2.80313 43.5337 2.09894 42.888C1.39474 42.2422 0.998397 41.3656 0.99707 40.4511V28.3504C1.00131 25.9451 2.04292 23.6396 3.89343 21.9396C5.74394 20.2396 8.25223 19.2839 10.8681 19.2822H23.722C26.3377 19.2842 28.8459 20.2399 30.6964 21.9399C32.5468 23.6398 33.5885 25.9452 33.593 28.3504V40.4511C33.5641 41.355 33.1594 42.2143 32.4621 42.852C31.7648 43.4897 30.8281 43.8573 29.845 43.879V43.879Z" fill="#707070"/>
<path d="M27.0601 48.7036H7.53009C7.27495 48.7036 7.03026 48.6104 6.84985 48.4445C6.66944 48.2786 6.56812 48.0536 6.56812 47.819V34.0725C6.56812 33.8376 6.66956 33.6124 6.85016 33.4464C7.03075 33.2803 7.27569 33.187 7.53109 33.187C7.7865 33.187 8.03143 33.2803 8.21203 33.4464C8.39263 33.6124 8.4941 33.8376 8.4941 34.0725V46.9327H26.0941V34.0725C26.0941 33.8376 26.1955 33.6124 26.3761 33.4464C26.5567 33.2803 26.8017 33.187 27.0571 33.187C27.3125 33.187 27.5574 33.2803 27.738 33.4464C27.9186 33.6124 28.02 33.8376 28.02 34.0725V47.819C28.02 48.0533 27.919 48.278 27.739 48.4439C27.559 48.6097 27.3149 48.7031 27.0601 48.7036Z" fill="#707070"/>
<path d="M17.295 36.3831C17.0399 36.3831 16.7952 36.2899 16.6148 36.124C16.4344 35.9581 16.333 35.7331 16.333 35.4985V24.9536H14.1261C13.8707 24.9536 13.6257 24.8603 13.4451 24.6942C13.2645 24.5282 13.1631 24.3029 13.1631 24.0681C13.1631 23.8332 13.2645 23.608 13.4451 23.442C13.6257 23.2759 13.8707 23.1826 14.1261 23.1826H20.469C20.7244 23.1826 20.9694 23.2759 21.15 23.442C21.3306 23.608 21.432 23.8332 21.432 24.0681C21.432 24.3029 21.3306 24.5282 21.15 24.6942C20.9694 24.8603 20.7244 24.9536 20.469 24.9536H18.2591V35.4957C18.2595 35.6123 18.2348 35.7278 18.1865 35.8355C18.1382 35.9433 18.0672 36.0412 17.9776 36.1237C17.888 36.2061 17.7816 36.2715 17.6645 36.316C17.5473 36.3605 17.4218 36.3833 17.295 36.3831V36.3831Z" fill="#707070"/>
<path d="M71.645 76.7604C69.803 76.7587 68.0029 76.2549 66.4723 75.3126C64.9417 74.3703 63.7493 73.0319 63.0459 71.4665C62.3425 69.9011 62.1597 68.1791 62.5206 66.5182C62.8815 64.8573 63.7698 63.3321 65.0734 62.1354C66.3769 60.9387 68.0371 60.1243 69.8439 59.7951C71.6508 59.466 73.5233 59.6368 75.2246 60.2861C76.9259 60.9354 78.3796 62.034 79.4019 63.4429C80.4242 64.8519 80.9692 66.5079 80.968 68.2016C80.9638 70.4727 79.9797 72.6495 78.2318 74.2541C76.4839 75.8588 74.115 76.7601 71.645 76.7604V76.7604ZM71.645 61.4046C70.1843 61.4066 68.757 61.8067 67.5435 62.5543C66.3299 63.3018 65.3846 64.3634 64.8269 65.6048C64.2692 66.8462 64.1241 68.2117 64.41 69.5289C64.6959 70.846 65.4001 72.0557 66.4334 73.0051C67.4667 73.9544 68.7828 74.6008 70.2155 74.8627C71.6482 75.1245 73.1332 74.9901 74.4828 74.4762C75.8324 73.9624 76.9861 73.0923 77.7981 71.9758C78.6101 70.8594 79.0441 69.5466 79.045 68.2035C79.0443 66.3993 78.2643 64.6693 76.8766 63.3939C75.4889 62.1184 73.6071 61.4019 71.645 61.4019V61.4046Z" fill="#707070"/>
<path d="M66.026 68.6666C65.0053 68.6662 63.9917 68.5109 63.026 68.2069C62.9042 68.1711 62.7913 68.1133 62.6941 68.037C62.5968 67.9607 62.5171 67.8673 62.4596 67.7623C62.402 67.6573 62.3679 67.5428 62.359 67.4255C62.3501 67.3082 62.3668 67.1904 62.408 67.0791C62.4492 66.9678 62.5142 66.8652 62.5991 66.7772C62.6839 66.6893 62.7869 66.6178 62.9022 66.5669C63.0175 66.516 63.1426 66.4867 63.2703 66.4808C63.398 66.4749 63.5257 66.4924 63.646 66.5324C64.4132 66.7715 65.218 66.8929 66.028 66.892C67.178 66.8993 68.3136 66.6564 69.3421 66.1832C70.3706 65.7101 71.2628 65.0199 71.946 64.1693C72.023 64.0737 72.1202 63.9935 72.2318 63.9333C72.3433 63.8731 72.4669 63.8341 72.5952 63.8189C72.7234 63.8036 72.8537 63.8122 72.9783 63.8443C73.1028 63.8764 73.2191 63.9312 73.32 64.0056C74.1864 64.6344 75.1915 65.0818 76.2652 65.3167C77.339 65.5516 78.4555 65.5683 79.537 65.3655C79.6608 65.3419 79.7884 65.341 79.9126 65.3627C80.0367 65.3845 80.155 65.4285 80.2607 65.4923C80.3664 65.5561 80.4574 65.6384 80.5285 65.7345C80.5996 65.8306 80.6493 65.9386 80.675 66.0524C80.7007 66.1662 80.7017 66.2836 80.6781 66.3978C80.6544 66.5119 80.6066 66.6207 80.5372 66.7179C80.4678 66.8151 80.3784 66.8987 80.2738 66.9641C80.1693 67.0294 80.0518 67.0752 79.928 67.0989C77.5001 67.5559 74.9742 67.1251 72.886 65.898C72.0119 66.7694 70.9512 67.4651 69.7707 67.9416C68.5902 68.4181 67.3152 68.6649 66.026 68.6666Z" fill="#707070"/>
<path d="M84.41 103.181C83.4177 103.179 82.4669 102.815 81.7661 102.169C81.0652 101.524 80.6718 100.648 80.6721 99.7359V96.6583C80.6721 96.4234 80.7735 96.1982 80.9541 96.0322C81.1347 95.8661 81.3797 95.7728 81.6351 95.7728C81.8905 95.7728 82.1354 95.8661 82.316 96.0322C82.4966 96.1982 82.598 96.4234 82.598 96.6583V99.7405C82.5972 100.183 82.7876 100.609 83.1273 100.923C83.467 101.237 83.9283 101.414 84.41 101.416C84.8982 101.393 85.3589 101.201 85.6987 100.878C86.0385 100.555 86.232 100.125 86.2401 99.6761V87.661C86.2377 85.7261 85.4006 83.8712 83.9127 82.5032C82.4247 81.1351 80.4072 80.3657 78.303 80.3638H65.4431C63.339 80.366 61.3218 81.1355 59.834 82.5035C58.3463 83.8715 57.5094 85.7263 57.507 87.661V99.7616C57.5102 100.205 57.7046 100.628 58.0475 100.939C58.3905 101.251 58.8538 101.424 59.3356 101.421C59.8173 101.418 60.2781 101.239 60.6165 100.924C60.9549 100.609 61.1432 100.183 61.14 99.7395V96.6583C61.14 96.4234 61.2415 96.1982 61.4221 96.0322C61.6027 95.8661 61.8476 95.7728 62.103 95.7728C62.3584 95.7728 62.6034 95.8661 62.784 96.0322C62.9646 96.1982 63.066 96.4234 63.066 96.6583V99.7405C63.0692 100.653 62.678 101.53 61.9784 102.177C61.2788 102.824 60.3281 103.19 59.3356 103.193C58.343 103.196 57.3898 102.836 56.6857 102.193C55.9816 101.549 55.5842 100.675 55.5811 99.7625V87.6619C55.5845 85.2578 56.6246 82.9531 58.4733 81.2532C60.3221 79.5533 62.8285 78.5969 65.4431 78.5938H78.303C80.9178 78.5964 83.4247 79.5526 85.2737 81.2526C87.1227 82.9526 88.1628 85.2576 88.166 87.6619V99.7625C88.1328 100.666 87.7254 101.523 87.027 102.158C86.3287 102.794 85.3924 103.16 84.41 103.181V103.181Z" fill="#707070"/>
<path d="M81.635 108.009H62.099C61.9725 108.009 61.8472 107.986 61.7302 107.942C61.6133 107.898 61.507 107.832 61.4175 107.75C61.3279 107.668 61.2569 107.57 61.2084 107.463C61.16 107.356 61.135 107.24 61.135 107.124V93.3748C61.135 93.1399 61.2365 92.9147 61.4171 92.7486C61.5977 92.5826 61.8426 92.4893 62.098 92.4893C62.3534 92.4893 62.5983 92.5826 62.7789 92.7486C62.9595 92.9147 63.061 93.1399 63.061 93.3748V106.238H80.673V93.3748C80.673 93.1399 80.7745 92.9147 80.9551 92.7486C81.1357 92.5826 81.3806 92.4893 81.636 92.4893C81.8914 92.4893 82.1364 92.5826 82.317 92.7486C82.4976 92.9147 82.599 93.1399 82.599 93.3748V107.124C82.599 107.24 82.574 107.356 82.5256 107.463C82.4771 107.57 82.4061 107.668 82.3165 107.75C82.227 107.832 82.1207 107.898 82.0037 107.942C81.8868 107.986 81.7615 108.009 81.635 108.009V108.009Z" fill="#707070"/>
<path d="M71.8631 95.6873C71.7366 95.6871 71.6114 95.6641 71.4946 95.6195C71.3778 95.5749 71.2717 95.5096 71.1824 95.4273C71.0931 95.345 71.0222 95.2473 70.974 95.1398C70.9257 95.0323 70.901 94.9171 70.9011 94.8009V84.2588H68.7011C68.4457 84.2588 68.2007 84.1655 68.0201 83.9994C67.8395 83.8334 67.738 83.6081 67.738 83.3733C67.738 83.1384 67.8395 82.9132 68.0201 82.7471C68.2007 82.5811 68.4457 82.4878 68.7011 82.4878H75.0281C75.2835 82.4878 75.5284 82.5811 75.709 82.7471C75.8896 82.9132 75.9911 83.1384 75.9911 83.3733C75.9911 83.6081 75.8896 83.8334 75.709 83.9994C75.5284 84.1655 75.2835 84.2588 75.0281 84.2588H72.8221V94.7972C72.8227 94.9135 72.7984 95.0289 72.7506 95.1366C72.7027 95.2443 72.6323 95.3423 72.5432 95.425C72.4541 95.5077 72.3482 95.5734 72.2315 95.6184C72.1148 95.6634 71.9896 95.6868 71.8631 95.6873Z" fill="#707070"/>
<path d="M52.1681 56.8872C52.0302 56.8869 51.8939 56.8593 51.7685 56.8065C51.6431 56.7537 51.5315 56.6767 51.4412 56.5809C51.3509 56.485 51.284 56.3725 51.245 56.2509C51.206 56.1292 51.1958 56.0013 51.2151 55.8757L53.159 43.6712H44.5801C44.4534 43.6713 44.328 43.6484 44.211 43.6039C44.094 43.5594 43.9877 43.4942 43.8981 43.4118C43.8086 43.3295 43.7375 43.2317 43.6891 43.1241C43.6407 43.0165 43.616 42.9012 43.6161 42.7848V10.4183C43.6161 10.3019 43.641 10.1868 43.6895 10.0793C43.7379 9.9719 43.809 9.8743 43.8986 9.79214C43.9881 9.70997 44.0944 9.64485 44.2113 9.60051C44.3282 9.55616 44.4536 9.53345 44.5801 9.53369H99.159C99.4141 9.53369 99.6588 9.62689 99.8392 9.79278C100.02 9.95867 100.121 10.1837 100.121 10.4183V42.7848C100.121 42.9011 100.096 43.0162 100.048 43.1237C99.9998 43.2312 99.929 43.3288 99.8397 43.4112C99.7503 43.4935 99.6443 43.5588 99.5275 43.6034C99.4107 43.648 99.2855 43.6711 99.159 43.6712H69.63L52.785 56.6812C52.6122 56.8145 52.3937 56.8875 52.1681 56.8872V56.8872ZM45.5421 41.8993H54.272C54.41 41.8993 54.5465 41.9266 54.672 41.9794C54.7976 42.0321 54.9093 42.109 54.9997 42.205C55.0901 42.3009 55.157 42.4135 55.1959 42.5353C55.2347 42.6571 55.2447 42.7851 55.225 42.9107L53.4861 53.8271L68.662 42.1043C68.8359 41.9712 69.0548 41.8981 69.281 41.8975H98.195V11.3047H45.5421V41.8993Z" fill="#707070"/>
<path d="M78.4051 16.748H54.3541C54.099 16.748 53.8543 16.6549 53.6739 16.489C53.4934 16.3231 53.3921 16.0981 53.3921 15.8635C53.3921 15.6289 53.4934 15.404 53.6739 15.2381C53.8543 15.0722 54.099 14.979 54.3541 14.979H78.4051C78.6603 14.979 78.9049 15.0722 79.0854 15.2381C79.2658 15.404 79.3672 15.6289 79.3672 15.8635C79.3672 16.0981 79.2658 16.3231 79.0854 16.489C78.9049 16.6549 78.6603 16.748 78.4051 16.748V16.748Z" fill="#707070"/>
<path d="M89.393 16.748H83.341C83.0859 16.748 82.8412 16.6549 82.6608 16.489C82.4804 16.3231 82.3791 16.0981 82.3791 15.8635C82.3791 15.6289 82.4804 15.404 82.6608 15.2381C82.8412 15.0722 83.0859 14.979 83.341 14.979H89.393C89.6482 14.979 89.8929 15.0722 90.0733 15.2381C90.2537 15.404 90.355 15.6289 90.355 15.8635C90.355 16.0981 90.2537 16.3231 90.0733 16.489C89.8929 16.6549 89.6482 16.748 89.393 16.748Z" fill="#707070"/>
<path d="M11.566 9.36077C10.5453 9.36063 9.5316 9.20528 8.566 8.90101C8.32439 8.8248 8.1256 8.66346 8.01336 8.45248C7.90112 8.2415 7.88464 7.99815 7.96752 7.77598C8.0504 7.55382 8.22586 7.37103 8.45531 7.26782C8.68477 7.16461 8.94939 7.14946 9.191 7.22567C10.6686 7.68868 12.2677 7.70938 13.7588 7.28482C15.25 6.86027 16.5566 6.01228 17.491 4.86252C17.5679 4.76751 17.6648 4.68774 17.7759 4.62802C17.8871 4.56829 18.0103 4.52981 18.138 4.51493C18.2659 4.49823 18.3963 4.50596 18.5208 4.5376C18.6454 4.56924 18.7615 4.62412 18.862 4.69884C19.7227 5.32952 20.7238 5.77829 21.7943 6.01331C22.8647 6.24834 23.9783 6.26388 25.056 6.0588C25.1794 6.03411 25.3068 6.032 25.4311 6.0526C25.5554 6.0732 25.674 6.11609 25.7802 6.17885C25.8865 6.24161 25.9782 6.32299 26.0502 6.41835C26.1223 6.51371 26.1732 6.62118 26.2 6.73463C26.2269 6.84807 26.2292 6.9653 26.2068 7.07956C26.1844 7.19382 26.1377 7.3029 26.0695 7.40058C26.0012 7.49826 25.9127 7.58261 25.809 7.64883C25.7053 7.71506 25.5884 7.76187 25.465 7.78656C24.8218 7.91218 24.1656 7.97385 23.508 7.97047C21.706 7.96693 19.9431 7.48652 18.43 6.58661C17.5607 7.4649 16.5006 8.16563 15.3182 8.64349C14.1358 9.12136 12.8575 9.36573 11.566 9.36077V9.36077Z" fill="#707070"/>
<path d="M46.741 96.5363H16.073C15.9464 96.5364 15.821 96.5135 15.7039 96.469C15.5869 96.4245 15.4806 96.3592 15.3911 96.2769C15.3015 96.1946 15.2305 96.0968 15.1821 95.9892C15.1337 95.8816 15.1089 95.7663 15.109 95.6498V51.4621C15.109 51.2273 15.2105 51.0021 15.3911 50.836C15.5717 50.6699 15.8166 50.5767 16.072 50.5767C16.3274 50.5767 16.5723 50.6699 16.7529 50.836C16.9335 51.0021 17.035 51.2273 17.035 51.4621V94.7653H46.741C46.9964 94.7653 47.2413 94.8586 47.4219 95.0246C47.6025 95.1907 47.704 95.4159 47.704 95.6508C47.704 95.8856 47.6025 96.1108 47.4219 96.2769C47.2413 96.4429 46.9964 96.5363 46.741 96.5363Z" fill="#707070"/>
<path d="M89.3931 21.8173H65.3301C65.0747 21.8173 64.8297 21.724 64.6491 21.5579C64.4685 21.3919 64.3671 21.1667 64.3671 20.9318C64.3671 20.697 64.4685 20.4718 64.6491 20.3057C64.8297 20.1397 65.0747 20.0464 65.3301 20.0464H89.3931C89.6485 20.0464 89.8934 20.1397 90.074 20.3057C90.2546 20.4718 90.3561 20.697 90.3561 20.9318C90.3561 21.1667 90.2546 21.3919 90.074 21.5579C89.8934 21.724 89.6485 21.8173 89.3931 21.8173Z" fill="#707070"/>
<path d="M60.406 21.8173H54.354C54.0986 21.8173 53.8536 21.724 53.673 21.5579C53.4924 21.3919 53.391 21.1667 53.391 20.9318C53.391 20.697 53.4924 20.4718 53.673 20.3057C53.8536 20.1397 54.0986 20.0464 54.354 20.0464H60.406C60.6614 20.0464 60.9063 20.1397 61.0869 20.3057C61.2675 20.4718 61.369 20.697 61.369 20.9318C61.369 21.1667 61.2675 21.3919 61.0869 21.5579C60.9063 21.724 60.6614 21.8173 60.406 21.8173Z" fill="#707070"/>
<path d="M78.405 26.8986H54.354C54.0989 26.8986 53.8542 26.8054 53.6738 26.6395C53.4934 26.4736 53.392 26.2486 53.392 26.014C53.392 25.7794 53.4934 25.5544 53.6738 25.3885C53.8542 25.2226 54.0989 25.1294 54.354 25.1294H78.405C78.6602 25.1294 78.9049 25.2226 79.0853 25.3885C79.2657 25.5544 79.3671 25.7794 79.3671 26.014C79.3671 26.2486 79.2657 26.4736 79.0853 26.6395C78.9049 26.8054 78.6602 26.8986 78.405 26.8986V26.8986Z" fill="#707070"/>
<path d="M89.393 26.8986H83.341C83.0859 26.8986 82.8412 26.8054 82.6608 26.6395C82.4804 26.4736 82.379 26.2486 82.379 26.014C82.379 25.7794 82.4804 25.5544 82.6608 25.3885C82.8412 25.2226 83.0859 25.1294 83.341 25.1294H89.393C89.6481 25.1294 89.8928 25.2226 90.0732 25.3885C90.2537 25.5544 90.355 25.7794 90.355 26.014C90.355 26.2486 90.2537 26.4736 90.0732 26.6395C89.8928 26.8054 89.6481 26.8986 89.393 26.8986Z" fill="#707070"/>
<path d="M89.3931 31.9639H65.3301C65.0747 31.9639 64.8297 31.8706 64.6491 31.7045C64.4685 31.5385 64.3671 31.3132 64.3671 31.0784C64.3671 30.8435 64.4685 30.6183 64.6491 30.4522C64.8297 30.2862 65.0747 30.1929 65.3301 30.1929H89.3931C89.6485 30.1929 89.8934 30.2862 90.074 30.4522C90.2546 30.6183 90.3561 30.8435 90.3561 31.0784C90.3561 31.3132 90.2546 31.5385 90.074 31.7045C89.8934 31.8706 89.6485 31.9639 89.3931 31.9639Z" fill="#707070"/>
<path d="M60.406 31.9639H54.354C54.0986 31.9639 53.8536 31.8706 53.673 31.7045C53.4924 31.5385 53.391 31.3132 53.391 31.0784C53.391 30.8435 53.4924 30.6183 53.673 30.4522C53.8536 30.2862 54.0986 30.1929 54.354 30.1929H60.406C60.6614 30.1929 60.9063 30.2862 61.0869 30.4522C61.2675 30.6183 61.369 30.8435 61.369 31.0784C61.369 31.3132 61.2675 31.5385 61.0869 31.7045C60.9063 31.8706 60.6614 31.9639 60.406 31.9639Z" fill="#707070"/>
<path d="M78.405 37.0331H54.354C54.0986 37.0331 53.8536 36.9398 53.673 36.7738C53.4924 36.6077 53.391 36.3825 53.391 36.1477C53.391 35.9128 53.4924 35.6876 53.673 35.5215C53.8536 35.3555 54.0986 35.2622 54.354 35.2622H78.405C78.5315 35.2622 78.6567 35.2851 78.7736 35.3296C78.8904 35.3741 78.9966 35.4393 79.086 35.5215C79.1754 35.6038 79.2463 35.7014 79.2947 35.8088C79.3431 35.9162 79.368 36.0314 79.368 36.1477C79.368 36.2639 79.3431 36.3791 79.2947 36.4865C79.2463 36.5939 79.1754 36.6915 79.086 36.7738C78.9966 36.856 78.8904 36.9212 78.7736 36.9657C78.6567 37.0102 78.5315 37.0331 78.405 37.0331V37.0331Z" fill="#707070"/>
<path d="M89.3931 37.0331H83.3411C83.0857 37.0331 82.8407 36.9398 82.6601 36.7738C82.4795 36.6077 82.3781 36.3825 82.3781 36.1477C82.3781 35.9128 82.4795 35.6876 82.6601 35.5215C82.8407 35.3555 83.0857 35.2622 83.3411 35.2622H89.3931C89.6485 35.2622 89.8934 35.3555 90.074 35.5215C90.2546 35.6876 90.3561 35.9128 90.3561 36.1477C90.3561 36.3825 90.2546 36.6077 90.074 36.7738C89.8934 36.9398 89.6485 37.0331 89.3931 37.0331V37.0331Z" fill="#707070"/>
</svg>
