<svg width="154" height="118" viewBox="0 0 154 118" fill="none" xmlns="http://www.w3.org/2000/svg">
<path d="M76.999 52.8661C76.7082 52.8675 76.4272 52.7606 76.211 52.5661C73.166 49.8041 70.572 47.5391 68.362 45.6111C65.2614 43.0794 62.3469 40.328 59.641 37.3781C56.869 34.0231 55.83 30.9781 55.528 25.2891C55.38 22.4121 55.411 18.7941 55.456 14.2161C55.481 11.5881 55.509 8.60414 55.509 5.18914C55.5089 5.01759 55.5465 4.84812 55.6194 4.69279C55.6922 4.53746 55.7984 4.4001 55.9303 4.29048C56.0623 4.18086 56.2168 4.10168 56.3829 4.05859C56.5489 4.01549 56.7224 4.00953 56.891 4.04114C60.2267 4.72991 63.6665 4.74502 67.0082 4.08558C70.3498 3.42614 73.526 2.10547 76.35 0.201142C76.5604 0.0608597 76.8106 -0.00737302 77.063 0.00669211C77.3155 0.0207572 77.5565 0.116356 77.75 0.279138C82.206 4.04314 88.521 5.27114 97.041 4.03314C97.2068 4.00919 97.3757 4.02118 97.5365 4.06828C97.6972 4.11539 97.846 4.19652 97.9726 4.30617C98.0992 4.41581 98.2008 4.55141 98.2704 4.70376C98.34 4.85611 98.376 5.02164 98.376 5.18914C98.376 9.44014 98.442 13.0011 98.495 16.0321C98.561 19.8191 98.614 22.8111 98.511 25.2771C98.279 30.9241 97.225 33.8671 94.17 37.3911C91.298 40.4669 88.2421 43.3655 85.019 46.0711C82.945 47.9131 80.55 50.0411 77.784 52.5641C77.5692 52.7593 77.2892 52.867 76.999 52.8661ZM57.866 25.1661C58.141 30.3371 59.008 32.9411 61.439 35.8811C64.0679 38.7327 66.8953 41.3947 69.9 43.8471C71.927 45.6171 74.274 47.6651 77 50.1211C79.446 47.8991 81.59 45.9931 83.471 44.3211C86.6153 41.6814 89.5996 38.8567 92.408 35.8621C95.088 32.7621 95.969 30.2701 96.18 25.1781C96.28 22.7781 96.229 19.8201 96.162 16.0711C96.113 13.3521 96.062 10.2061 96.047 6.52014C87.872 7.49314 81.609 6.20814 76.927 2.61214C71.2581 6.20233 64.4764 7.60673 57.848 6.56314C57.842 9.42014 57.819 11.9631 57.797 14.2351C57.754 18.7751 57.721 22.3591 57.867 25.1641L57.866 25.1661Z" fill="#707070"/>
<path d="M76.999 107.917H60.156C59.8457 107.917 59.5481 107.794 59.3287 107.574C59.1093 107.355 58.986 107.057 58.986 106.747V100.382H22.593C22.4394 100.382 22.2873 100.352 22.1454 100.293C22.0036 100.234 21.8746 100.148 21.7661 100.039C21.6575 99.9307 21.5714 99.8018 21.5127 99.6598C21.454 99.5179 21.4239 99.3657 21.424 99.2121V36.6222C21.4239 36.4686 21.454 36.3164 21.5127 36.1745C21.5714 36.0325 21.6575 35.9036 21.7661 35.7949C21.8746 35.6862 22.0036 35.6 22.1454 35.5412C22.2873 35.4824 22.4394 35.4522 22.593 35.4522H60.538C60.7096 35.4517 60.8791 35.489 61.0347 35.5614C61.1902 35.6338 61.3279 35.7395 61.438 35.8712C64.0676 38.7253 66.8964 41.3893 69.903 43.8432C72.123 45.7822 74.729 48.0572 77.787 50.8292C77.9075 50.9391 78.0037 51.073 78.0695 51.2223C78.1353 51.3716 78.1692 51.533 78.169 51.6962V91.0582C78.4151 91.2384 78.5808 91.5078 78.6307 91.8087C78.6806 92.1096 78.6108 92.4181 78.436 92.6682L78.169 93.0481V106.748C78.169 106.902 78.1387 107.054 78.0799 107.196C78.0211 107.338 77.9349 107.467 77.8262 107.575C77.7176 107.684 77.5886 107.77 77.4467 107.828C77.3047 107.887 77.1526 107.917 76.999 107.917ZM61.326 105.582H75.826V92.6821C75.8262 92.5043 75.8669 92.3289 75.945 92.1691C75.8663 92.0103 75.8255 91.8354 75.826 91.6581V52.2152C72.945 49.6092 70.476 47.4532 68.359 45.6072C65.4124 43.1777 62.6196 40.5673 59.997 37.7912H23.761V98.0421H60.161C60.3147 98.042 60.4669 98.0722 60.6089 98.1309C60.7509 98.1897 60.8799 98.2759 60.9886 98.3845C61.0973 98.4932 61.1834 98.6222 61.2422 98.7643C61.3009 98.9063 61.3311 99.0585 61.331 99.2121L61.326 105.582Z" fill="#707070"/>
<path d="M93.82 107.917H76.999C76.6887 107.917 76.3911 107.794 76.1717 107.574C75.9523 107.355 75.829 107.057 75.829 106.747V92.6821C75.8292 92.5043 75.8699 92.3288 75.948 92.1691C75.8693 92.0103 75.8285 91.8353 75.829 91.6581V51.6981C75.8287 51.5354 75.8623 51.3744 75.9278 51.2255C75.9932 51.0765 76.089 50.9429 76.209 50.8331C78.985 48.3051 81.388 46.1691 83.468 44.3211C86.6123 41.6813 89.5966 38.8566 92.405 35.8621C92.5142 35.7341 92.6499 35.6315 92.8027 35.5612C92.9555 35.4909 93.1218 35.4547 93.29 35.4551H131.383C131.693 35.4551 131.991 35.5783 132.21 35.7978C132.43 36.0172 132.553 36.3148 132.553 36.6251V99.2151C132.553 99.5254 132.43 99.823 132.21 100.042C131.991 100.262 131.693 100.385 131.383 100.385H94.983V106.751C94.9822 107.06 94.8595 107.355 94.6417 107.574C94.4238 107.792 94.1285 107.915 93.82 107.917ZM78.1661 105.582H92.65V99.2121C92.6497 99.0584 92.6798 98.9063 92.7384 98.7643C92.7971 98.6223 92.8832 98.4932 92.9918 98.3845C93.1004 98.2758 93.2293 98.1897 93.3713 98.1309C93.5132 98.0721 93.6654 98.0419 93.819 98.0421H130.213V37.7911H93.82C91.0333 40.7015 88.0958 43.464 85.02 46.0671C83.042 47.8231 80.771 49.8431 78.165 52.2131V91.0581C78.4111 91.2383 78.5768 91.5077 78.6267 91.8087C78.6766 92.1096 78.6068 92.4181 78.432 92.6681L78.165 93.0481L78.1661 105.582Z" fill="#707070"/>
<path d="M142.634 100.382H131.383C131.073 100.382 130.775 100.259 130.556 100.039C130.336 99.8201 130.213 99.5225 130.213 99.2122V37.7922H93.29C93.0657 37.7928 92.8459 37.7288 92.657 37.6078C92.4682 37.4868 92.3181 37.3139 92.225 37.1099C92.1318 36.9058 92.0994 36.6792 92.1317 36.4572C92.164 36.2352 92.2595 36.0272 92.407 35.8582C95.085 32.7582 95.966 30.2682 96.177 25.1762C96.1892 24.8746 96.3175 24.5895 96.5353 24.3805C96.753 24.1715 97.0432 24.0549 97.345 24.0552H139.59C140.707 24.0565 141.777 24.5007 142.567 25.2903C143.357 26.0799 143.801 27.1505 143.802 28.2672V99.2132C143.802 99.523 143.679 99.8202 143.46 100.039C143.241 100.259 142.944 100.382 142.634 100.382ZM132.553 98.0432H141.465V28.2682C141.464 27.7714 141.266 27.2953 140.915 26.9442C140.563 26.5931 140.087 26.3957 139.59 26.3952H98.454C98.193 30.3382 97.431 32.9052 95.684 35.4532H131.384C131.694 35.4532 131.992 35.5764 132.211 35.7959C132.431 36.0153 132.554 36.3129 132.554 36.6232L132.553 98.0432Z" fill="#707070"/>
<path d="M22.593 100.382H11.349C11.0387 100.382 10.7411 100.259 10.5217 100.039C10.3023 99.82 10.179 99.5225 10.179 99.2122V28.2682C10.1806 27.1512 10.6251 26.0805 11.4151 25.2909C12.2051 24.5012 13.2761 24.0572 14.393 24.0562H56.698C56.9975 24.0557 57.2857 24.1704 57.5031 24.3764C57.7205 24.5824 57.8504 24.8641 57.866 25.1632C58.141 30.3342 59.008 32.9382 61.439 35.8782C61.5807 36.0489 61.6709 36.2565 61.6989 36.4766C61.727 36.6968 61.6917 36.9203 61.5973 37.1212C61.5028 37.322 61.3532 37.4917 61.1657 37.6106C60.9783 37.7294 60.7609 37.7924 60.539 37.7922H23.761V99.2132C23.761 99.523 23.638 99.8202 23.419 100.039C23.2 100.259 22.9029 100.382 22.593 100.382ZM12.518 98.0432H21.424V36.6222C21.4239 36.4686 21.454 36.3164 21.5127 36.1745C21.5714 36.0325 21.6575 35.9036 21.7661 35.7949C21.8746 35.6862 22.0035 35.6 22.1454 35.5412C22.2873 35.4824 22.4394 35.4521 22.593 35.4521H58.228C56.639 32.9771 55.899 30.3522 55.6 26.3942H14.393C13.8981 26.4006 13.4252 26.6 13.075 26.9498C12.7249 27.2996 12.525 27.7722 12.518 28.2672V98.0432Z" fill="#707070"/>
<path d="M144.499 117.051H9.48303C6.96945 117.033 4.56415 116.025 2.78888 114.246C1.01362 112.466 0.0115212 110.059 1.70996e-06 107.545V99.212C-0.000261222 99.0584 0.0298009 98.9063 0.0883806 98.7644C0.14696 98.6225 0.232947 98.4935 0.341432 98.3848C0.449917 98.2761 0.578744 98.1899 0.720583 98.1311C0.862422 98.0723 1.01448 98.042 1.16803 98.042H60.156C60.3097 98.0419 60.4619 98.072 60.6039 98.1308C60.746 98.1895 60.875 98.2757 60.9836 98.3844C61.0923 98.4931 61.1785 98.6221 61.2372 98.7641C61.296 98.9061 61.3262 99.0583 61.326 99.212V105.578H92.647V99.212C92.6468 99.0584 92.6768 98.9062 92.7355 98.7642C92.7941 98.6222 92.8802 98.4931 92.9888 98.3844C93.0974 98.2758 93.2263 98.1896 93.3683 98.1308C93.5102 98.072 93.6624 98.0419 93.816 98.042H152.83C152.984 98.0419 153.136 98.072 153.278 98.1308C153.42 98.1895 153.549 98.2757 153.658 98.3844C153.766 98.4931 153.853 98.6221 153.911 98.7641C153.97 98.9061 154 99.0583 154 99.212V107.545C153.978 110.058 152.97 112.462 151.193 114.24C149.417 116.018 147.013 117.027 144.5 117.051H144.499ZM2.33704 100.382V107.545C2.34904 109.438 3.10513 111.251 4.44214 112.591C5.77915 113.932 7.58978 114.693 9.48303 114.71H144.499C146.393 114.688 148.202 113.926 149.541 112.587C150.88 111.248 151.642 109.438 151.664 107.545V100.382H94.988V106.748C94.9882 106.902 94.958 107.054 94.8994 107.195C94.8408 107.337 94.7548 107.466 94.6464 107.575C94.5379 107.684 94.409 107.77 94.2673 107.829C94.1255 107.887 93.9735 107.918 93.82 107.918H60.156C59.8457 107.918 59.5482 107.795 59.3287 107.575C59.1093 107.356 58.986 107.058 58.986 106.748V100.382H2.33704Z" fill="#707070"/>
<path d="M144.499 117.051H9.48303C6.96945 117.033 4.56415 116.025 2.78888 114.246C1.01362 112.466 0.0115212 110.059 1.70996e-06 107.545V99.212C-0.000261222 99.0584 0.0298009 98.9063 0.0883806 98.7644C0.14696 98.6225 0.232947 98.4935 0.341432 98.3848C0.449917 98.2761 0.578744 98.1899 0.720583 98.1311C0.862422 98.0723 1.01448 98.042 1.16803 98.042H60.156C60.3097 98.0419 60.4619 98.072 60.6039 98.1308C60.746 98.1895 60.875 98.2757 60.9836 98.3844C61.0923 98.4931 61.1785 98.6221 61.2372 98.7641C61.296 98.9061 61.3262 99.0583 61.326 99.212V105.578H92.647V99.212C92.6468 99.0584 92.6768 98.9062 92.7355 98.7642C92.7941 98.6222 92.8802 98.4931 92.9888 98.3844C93.0974 98.2758 93.2263 98.1896 93.3683 98.1308C93.5102 98.072 93.6624 98.0419 93.816 98.042H152.83C152.984 98.0419 153.136 98.072 153.278 98.1308C153.42 98.1895 153.549 98.2757 153.658 98.3844C153.766 98.4931 153.853 98.6221 153.911 98.7641C153.97 98.9061 154 99.0583 154 99.212V107.545C153.978 110.058 152.97 112.462 151.193 114.24C149.417 116.018 147.013 117.027 144.5 117.051H144.499ZM2.33704 100.382V107.545C2.34904 109.438 3.10513 111.251 4.44214 112.591C5.77915 113.932 7.58978 114.693 9.48303 114.71H144.499C146.393 114.688 148.202 113.926 149.541 112.587C150.88 111.248 151.642 109.438 151.664 107.545V100.382H94.988V106.748C94.9882 106.902 94.958 107.054 94.8994 107.195C94.8408 107.337 94.7548 107.466 94.6464 107.575C94.5379 107.684 94.409 107.77 94.2673 107.829C94.1255 107.887 93.9735 107.918 93.82 107.918H60.156C59.8457 107.918 59.5482 107.795 59.3287 107.575C59.1093 107.356 58.986 107.058 58.986 106.748V100.382H2.33704Z" fill="#707070"/>
<path d="M11.349 100.382C11.0387 100.382 10.7411 100.259 10.5217 100.039C10.3023 99.82 10.179 99.5225 10.179 99.2122V28.2682C10.1806 27.1512 10.6251 26.0805 11.4151 25.2909C12.2051 24.5012 13.2761 24.0572 14.393 24.0562H56.698C57.0025 24.063 57.2922 24.1883 57.5057 24.4054C57.7192 24.6226 57.8397 24.9143 57.8415 25.2188C57.8433 25.5234 57.7264 25.8166 57.5155 26.0362C57.3046 26.2559 57.0163 26.3846 56.712 26.3951H14.393C13.8981 26.4016 13.4252 26.601 13.075 26.9508C12.7249 27.3006 12.525 27.7732 12.518 28.2682V99.2132C12.5178 99.5231 12.3945 99.8203 12.1753 100.039C11.9562 100.259 11.659 100.382 11.349 100.382Z" fill="#707070"/>
<path d="M142.634 100.382C142.48 100.382 142.328 100.352 142.186 100.293C142.045 100.234 141.916 100.148 141.807 100.039C141.699 99.9307 141.612 99.8018 141.554 99.6598C141.495 99.5179 141.465 99.3658 141.465 99.2122V28.2682C141.464 27.7714 141.266 27.2953 140.915 26.9442C140.563 26.5931 140.087 26.3957 139.59 26.3951H97.345C97.0408 26.3863 96.752 26.2591 96.5399 26.0408C96.3279 25.8224 96.2092 25.53 96.2092 25.2257C96.2092 24.9213 96.3279 24.6289 96.5399 24.4105C96.752 24.1922 97.0408 24.0651 97.345 24.0562H139.59C140.707 24.0575 141.777 24.5017 142.567 25.2913C143.357 26.0809 143.801 27.1515 143.802 28.2682V99.2132C143.802 99.523 143.679 99.8202 143.46 100.039C143.241 100.259 142.944 100.382 142.634 100.382Z" fill="#707070"/>
<path d="M131.383 100.382C131.073 100.382 130.775 100.259 130.556 100.039C130.336 99.8201 130.213 99.5225 130.213 99.2122V37.7912H93.291C93.1346 37.7957 92.9788 37.7689 92.8329 37.7122C92.687 37.6554 92.5539 37.57 92.4417 37.461C92.3294 37.3519 92.2401 37.2215 92.1791 37.0773C92.1182 36.9331 92.0868 36.7782 92.0868 36.6217C92.0868 36.4651 92.1182 36.3102 92.1791 36.166C92.2401 36.0219 92.3294 35.8914 92.4417 35.7823C92.5539 35.6733 92.687 35.5879 92.8329 35.5312C92.9788 35.4744 93.1346 35.4476 93.291 35.4522H131.384C131.694 35.4522 131.992 35.5754 132.211 35.7948C132.431 36.0143 132.554 36.3119 132.554 36.6222V99.2122C132.554 99.3659 132.524 99.5181 132.465 99.6601C132.406 99.8021 132.32 99.9312 132.211 100.04C132.102 100.148 131.973 100.235 131.831 100.293C131.689 100.352 131.537 100.382 131.383 100.382Z" fill="#707070"/>
<path d="M22.593 100.382C22.4394 100.382 22.2873 100.352 22.1454 100.293C22.0036 100.234 21.8746 100.148 21.7661 100.039C21.6575 99.9307 21.5714 99.8018 21.5127 99.6598C21.454 99.5179 21.4239 99.3657 21.424 99.2121V36.6221C21.4239 36.4685 21.454 36.3164 21.5127 36.1745C21.5714 36.0325 21.6575 35.9035 21.7661 35.7949C21.8746 35.6862 22.0036 35.6 22.1454 35.5412C22.2873 35.4824 22.4394 35.4521 22.593 35.4521H60.538C60.8423 35.461 61.1311 35.5882 61.3431 35.8065C61.5552 36.0249 61.6738 36.3173 61.6738 36.6217C61.6738 36.926 61.5552 37.2184 61.3431 37.4368C61.1311 37.6551 60.8423 37.7822 60.538 37.7911H23.761V99.2121C23.7611 99.3657 23.7311 99.5177 23.6724 99.6596C23.6138 99.8015 23.5278 99.9304 23.4193 100.039C23.3109 100.148 23.1821 100.234 23.0403 100.293C22.8985 100.352 22.7465 100.382 22.593 100.382Z" fill="#707070"/>
<path d="M76.999 52.8661C76.7082 52.8675 76.4272 52.7606 76.211 52.5661C73.166 49.8041 70.572 47.5391 68.362 45.6111C65.2614 43.0794 62.3469 40.328 59.641 37.3781C56.869 34.0231 55.83 30.9781 55.528 25.2891C55.38 22.4121 55.411 18.7941 55.456 14.2161C55.481 11.5881 55.509 8.60414 55.509 5.18914C55.5089 5.01759 55.5465 4.84812 55.6194 4.69279C55.6922 4.53746 55.7984 4.4001 55.9303 4.29048C56.0623 4.18086 56.2168 4.10168 56.3829 4.05859C56.5489 4.01549 56.7224 4.00953 56.891 4.04114C60.2267 4.72991 63.6665 4.74502 67.0082 4.08558C70.3498 3.42614 73.526 2.10547 76.35 0.201142C76.5604 0.0608597 76.8106 -0.00737302 77.063 0.00669211C77.3155 0.0207572 77.5565 0.116356 77.75 0.279138C82.206 4.04314 88.521 5.27114 97.041 4.03314C97.2068 4.00919 97.3757 4.02118 97.5365 4.06828C97.6972 4.11539 97.846 4.19652 97.9726 4.30617C98.0992 4.41581 98.2008 4.55141 98.2704 4.70376C98.34 4.85611 98.376 5.02164 98.376 5.18914C98.376 9.44014 98.442 13.0011 98.495 16.0321C98.561 19.8171 98.614 22.8091 98.511 25.2771C98.279 30.9241 97.225 33.8671 94.17 37.3911C91.298 40.4669 88.2421 43.3655 85.019 46.0711C82.945 47.9131 80.55 50.0411 77.784 52.5641C77.5692 52.7593 77.2892 52.867 76.999 52.8661ZM57.846 6.56614C57.84 9.42314 57.817 11.9661 57.795 14.2381C57.752 18.7781 57.719 22.3621 57.865 25.1671C58.14 30.3381 59.007 32.9421 61.438 35.8821C64.067 38.7337 66.8944 41.3957 69.899 43.8481C71.926 45.6181 74.273 47.6661 76.999 50.1221C79.445 47.9001 81.589 45.9941 83.47 44.3221C86.6143 41.6824 89.5986 38.8577 92.407 35.8631C95.087 32.7631 95.968 30.2711 96.179 25.1791C96.279 22.7791 96.228 19.8231 96.161 16.0791C96.112 13.3601 96.061 10.2141 96.046 6.52814C87.871 7.50114 81.608 6.21614 76.926 2.62014C71.2556 6.2071 64.4735 7.60793 57.846 6.56114V6.56614Z" fill="#707070"/>
<path d="M76.9771 43.8994C76.7404 43.8991 76.5093 43.8271 76.3144 43.6928C76.1194 43.5585 75.9698 43.3682 75.8853 43.147C75.8008 42.9259 75.7854 42.6844 75.841 42.4543C75.8967 42.2242 76.0208 42.0164 76.197 41.8584C77.661 40.5484 78.969 39.3984 80.14 38.3694C89.599 30.0544 89.5991 30.0544 89.3151 18.1214C89.2841 16.7974 89.249 15.3344 89.221 13.7064H88.9911C84.7357 13.817 80.5248 12.8175 76.773 10.8064C73.0272 12.7257 68.8819 13.7353 64.6731 13.7534C64.6241 17.1004 64.5731 20.5534 64.6911 23.9084C64.7019 24.2182 64.5893 24.5197 64.378 24.7466C64.1666 24.9734 63.8739 25.1072 63.5641 25.1184H63.523C63.2196 25.1188 62.9279 25.0013 62.7096 24.7906C62.4913 24.5799 62.3634 24.2926 62.3531 23.9894C62.2301 20.5554 62.2851 17.0384 62.3361 13.6394L62.3531 12.5534C62.3551 12.398 62.3882 12.2446 62.4502 12.1021C62.5121 11.9596 62.6018 11.8308 62.7141 11.7234C62.8242 11.6128 62.9565 11.5268 63.1024 11.4713C63.2482 11.4158 63.4043 11.392 63.5601 11.4014C67.9795 11.575 72.3636 10.5513 76.249 8.43838C76.4289 8.34051 76.6315 8.29184 76.8362 8.29729C77.0409 8.30273 77.2406 8.36209 77.4151 8.46937C80.8691 10.5824 85.215 11.5494 90.325 11.3424C90.6394 11.3369 90.9441 11.4513 91.1771 11.6624C91.2904 11.7696 91.3811 11.8985 91.4438 12.0414C91.5064 12.1843 91.5399 12.3383 91.5421 12.4944C91.5691 14.5944 91.614 16.4374 91.653 18.0654C91.953 30.8464 91.7741 31.2594 81.6851 40.1284C80.5171 41.1534 79.2131 42.2994 77.7541 43.6014C77.541 43.7937 77.2641 43.9 76.9771 43.8994Z" fill="#707070"/>
<path d="M76.999 92.8261C76.6887 92.8261 76.3912 92.7028 76.1717 92.4834C75.9523 92.264 75.829 91.9664 75.829 91.6561V62.9981C75.8244 62.8418 75.8513 62.6861 75.9079 62.5404C75.9646 62.3946 76.05 62.2617 76.1589 62.1495C76.2679 62.0373 76.3982 61.9481 76.5423 61.8872C76.6863 61.8263 76.8411 61.7949 76.9975 61.7949C77.1539 61.7949 77.3087 61.8263 77.4527 61.8872C77.5968 61.9481 77.7272 62.0373 77.8362 62.1495C77.9451 62.2617 78.0304 62.3946 78.0871 62.5404C78.1437 62.6861 78.1706 62.8418 78.1661 62.9981V91.6571C78.1661 91.9668 78.0431 92.2638 77.8243 92.483C77.6055 92.7022 77.3087 92.8256 76.999 92.8261Z" fill="#707070"/>
<path d="M76.999 93.8509C76.8119 93.8504 76.6276 93.8054 76.4612 93.7197C76.2948 93.634 76.1512 93.51 76.0421 93.3579L68.1831 82.2479C68.0036 81.9944 67.9323 81.68 67.9847 81.3738C68.0371 81.0676 68.209 80.7949 68.4625 80.6154C68.7161 80.436 69.0305 80.3647 69.3367 80.4171C69.6428 80.4695 69.9156 80.6414 70.095 80.8949L76.9951 90.6529L83.905 80.8949C83.9923 80.7659 84.1045 80.6557 84.2349 80.5706C84.3654 80.4855 84.5115 80.4274 84.6647 80.3996C84.818 80.3718 84.9753 80.3749 85.1273 80.4088C85.2793 80.4426 85.4231 80.5065 85.5501 80.5966C85.6771 80.6868 85.7848 80.8014 85.8668 80.9337C85.9489 81.0661 86.0037 81.2135 86.028 81.3673C86.0523 81.5212 86.0457 81.6783 86.0084 81.8295C85.9712 81.9808 85.9041 82.123 85.8111 82.2479L77.9581 93.3479C77.8467 93.4989 77.7025 93.6225 77.5364 93.7096C77.3703 93.7968 77.1865 93.8451 76.999 93.8509Z" fill="#707070"/>
<path d="M72.469 30.448C72.2339 30.4473 72.0044 30.3759 71.8103 30.243C71.6163 30.1101 71.4667 29.922 71.381 29.703L69.403 24.62C69.2906 24.3308 69.2976 24.0087 69.4226 23.7247C69.5476 23.4407 69.7803 23.2179 70.0695 23.1055C70.3588 22.993 70.6808 23.0001 70.9648 23.1251C71.2488 23.25 71.4716 23.4828 71.584 23.772L73.114 27.698L83.534 22.905C83.8149 22.7812 84.1331 22.7728 84.4201 22.8815C84.7071 22.9902 84.94 23.2073 85.0684 23.4861C85.1968 23.7648 85.2105 24.0829 85.1067 24.3717C85.0028 24.6605 84.7896 24.8969 84.513 25.03L72.962 30.342C72.8071 30.4121 72.639 30.4483 72.469 30.448Z" fill="#707070"/>
</svg>
