<svg width="141" height="118" viewBox="0 0 141 118" fill="none" xmlns="http://www.w3.org/2000/svg">
<path d="M138.959 117.187H1.151C0.999719 117.187 0.849922 117.157 0.710205 117.099C0.570489 117.041 0.443551 116.956 0.33667 116.849C0.22979 116.742 0.145053 116.615 0.0872807 116.475C0.0295086 116.335 -0.000130944 116.185 4.34848e-07 116.034V1.151C4.34847e-07 0.845737 0.121243 0.552982 0.337098 0.337128C0.552952 0.121273 0.845737 0 1.151 0H138.959C139.264 0 139.557 0.121273 139.773 0.337128C139.989 0.552982 140.11 0.845737 140.11 1.151V116.034C140.11 116.185 140.08 116.335 140.023 116.475C139.965 116.615 139.88 116.742 139.773 116.849C139.666 116.956 139.539 117.041 139.4 117.099C139.26 117.157 139.11 117.187 138.959 117.187V117.187ZM2.30402 114.887H137.804V2.302H2.30402V114.887Z" fill="#707070"/>
<path d="M138.958 117.187H77.893C77.6893 117.187 77.4892 117.133 77.3135 117.03C77.1377 116.927 76.9926 116.779 76.893 116.601L76.431 115.786C76.2959 115.547 76.2502 115.269 76.3021 115C76.3539 114.731 76.5 114.489 76.7141 114.318L85.571 107.257C84.9758 105.574 84.5156 103.847 84.195 102.091L72.995 100.414C72.7217 100.374 72.4719 100.236 72.2914 100.027C72.1109 99.8182 72.0117 99.551 72.012 99.2748V93.8588C72.0117 93.5825 72.1109 93.3154 72.2914 93.1062C72.4719 92.8971 72.7217 92.7599 72.995 92.7198L84.195 91.0448C84.5145 89.2893 84.9747 87.5624 85.571 85.8808L76.7141 78.8178C76.4989 78.6458 76.3525 78.4025 76.3015 78.1318C76.2505 77.8612 76.2982 77.5812 76.436 77.3428L79.566 71.9248C79.7034 71.6858 79.9222 71.5043 80.1824 71.4136C80.4427 71.3228 80.7269 71.329 80.983 71.4308L91.533 75.5748C92.6908 74.2214 93.9527 72.9605 95.307 71.8038L91.148 61.2508C91.0472 60.9935 91.0422 60.7085 91.134 60.4478C91.2258 60.1871 91.4082 59.9681 91.648 59.8308L97.071 56.7048C97.3101 56.568 97.5902 56.5213 97.8607 56.573C98.1312 56.6247 98.3743 56.7715 98.546 56.9868L105.606 65.8568C107.282 65.2567 109.005 64.7935 110.756 64.4718L112.449 53.2608C112.49 52.9879 112.627 52.7387 112.836 52.5587C113.045 52.3786 113.312 52.2796 113.588 52.2798H119.833C120.109 52.2798 120.376 52.3789 120.585 52.5589C120.794 52.7389 120.931 52.988 120.972 53.2608L122.656 64.4718C124.411 64.7947 126.136 65.2579 127.817 65.8568L134.873 56.9868C135.045 56.7712 135.288 56.6242 135.558 56.5724C135.829 56.5207 136.109 56.5676 136.348 56.7048L139.532 58.5368C139.708 58.638 139.853 58.7838 139.955 58.9594C140.056 59.1349 140.109 59.3341 140.109 59.5368V66.5168C140.11 66.6617 140.082 66.8054 140.028 66.9398L138.103 71.8048C138.716 72.3288 139.263 72.8248 139.761 73.3048C139.871 73.4124 139.959 73.541 140.019 73.683C140.079 73.825 140.11 73.9776 140.11 74.1318V116.032C140.11 116.183 140.081 116.333 140.023 116.474C139.965 116.614 139.881 116.741 139.774 116.848C139.667 116.956 139.54 117.041 139.4 117.099C139.26 117.157 139.11 117.187 138.958 117.187V117.187ZM79.698 114.887H137.805V74.6258C137.274 74.1258 136.677 73.6038 135.993 73.0408C135.805 72.886 135.672 72.6757 135.611 72.4401C135.551 72.2045 135.566 71.9558 135.656 71.7298L137.804 66.2978V60.2038L136.056 59.1958L129.096 67.9428C128.943 68.1355 128.733 68.274 128.495 68.3381C128.258 68.4022 128.006 68.3884 127.777 68.2988C125.736 67.5091 123.617 66.9393 121.456 66.5988C121.215 66.5601 120.993 66.4457 120.821 66.2722C120.649 66.0988 120.537 65.8751 120.501 65.6338L118.84 54.5818H114.578L112.908 65.6338C112.872 65.8751 112.76 66.0988 112.588 66.2722C112.416 66.4457 112.194 66.5601 111.953 66.5988C109.796 66.9386 107.682 67.5085 105.646 68.2988C105.417 68.389 105.165 68.4032 104.927 68.3391C104.689 68.2749 104.478 68.136 104.325 67.9428L97.363 59.1958L93.658 61.3278L97.7531 71.7278C97.8427 71.9548 97.8579 72.2044 97.7964 72.4406C97.7349 72.6768 97.6 72.8873 97.411 73.0418C95.7115 74.4206 94.1598 75.9723 92.781 77.6718C92.6269 77.8627 92.4157 77.9992 92.1783 78.0613C91.9409 78.1234 91.6899 78.1078 91.462 78.0168L81.062 73.9288L78.924 77.6288L87.655 84.5908C87.8461 84.743 87.9838 84.9521 88.0482 85.1878C88.1125 85.4235 88.1002 85.6735 88.013 85.9018C87.2304 87.9444 86.6666 90.0642 86.331 92.2258C86.2937 92.469 86.1796 92.694 86.0052 92.8676C85.8308 93.0413 85.6054 93.1545 85.362 93.1908L74.312 94.8418V98.2778L85.362 99.9298C85.6054 99.966 85.8308 100.079 86.0052 100.253C86.1796 100.427 86.2937 100.652 86.331 100.895C86.6672 103.057 87.231 105.179 88.013 107.223C88.1 107.451 88.1123 107.7 88.0479 107.936C87.9835 108.171 87.846 108.38 87.655 108.532L79.698 114.887Z" fill="#707070"/>
<path d="M138.959 25.5881H1.151C0.857728 25.5708 0.582141 25.4421 0.380615 25.2283C0.17909 25.0146 0.0668335 24.7319 0.0668335 24.4381C0.0668335 24.1443 0.17909 23.8616 0.380615 23.6479C0.582141 23.4341 0.857728 23.3054 1.151 23.2881H138.959C139.252 23.3054 139.528 23.4341 139.729 23.6479C139.931 23.8616 140.043 24.1443 140.043 24.4381C140.043 24.7319 139.931 25.0146 139.729 25.2283C139.528 25.4421 139.252 25.5708 138.959 25.5881V25.5881Z" fill="#707070"/>
<path d="M15.065 17.6072C14.0624 17.6055 13.0828 17.3064 12.2501 16.7478C11.4175 16.1893 10.7692 15.3963 10.3872 14.4693C10.0053 13.5422 9.90683 12.5228 10.1043 11.5398C10.3018 10.5568 10.7864 9.65442 11.4968 8.94685C12.2071 8.23928 13.1114 7.75826 14.0952 7.56464C15.0789 7.37103 16.098 7.47353 17.0235 7.85914C17.949 8.24475 18.7394 8.89615 19.2947 9.731C19.85 10.5658 20.1452 11.5466 20.143 12.5492C20.1398 13.8932 19.6031 15.1809 18.651 16.1293C17.6988 17.0778 16.409 17.6094 15.065 17.6072ZM15.065 9.77424C14.5189 9.77582 13.9855 9.93908 13.5321 10.2434C13.0786 10.5478 12.7255 10.9796 12.5172 11.4844C12.3088 11.9891 12.2546 12.5443 12.3614 13.0799C12.4682 13.6154 12.7311 14.1074 13.1171 14.4937C13.5032 14.8799 13.9949 15.1433 14.5304 15.2505C15.0659 15.3576 15.6211 15.3038 16.1261 15.0959C16.631 14.8879 17.063 14.535 17.3677 14.0818C17.6724 13.6286 17.836 13.0953 17.838 12.5492C17.8385 12.1848 17.7672 11.8238 17.6281 11.487C17.4889 11.1501 17.2847 10.844 17.0272 10.5862C16.7696 10.3283 16.4637 10.1239 16.127 9.98435C15.7903 9.84486 15.4295 9.7731 15.065 9.77323V9.77424Z" fill="#707070"/>
<path d="M32.067 17.6072C31.0642 17.6062 30.0842 17.3078 29.251 16.7498C28.4179 16.1917 27.769 15.399 27.3864 14.472C27.0039 13.5451 26.9048 12.5255 27.1019 11.5422C27.2989 10.5589 27.7831 9.65621 28.4934 8.94824C29.2036 8.24027 30.1078 7.75888 31.0917 7.56494C32.0756 7.371 33.0949 7.47324 34.0206 7.85873C34.9464 8.24423 35.737 8.89563 36.2924 9.73056C36.8479 10.5655 37.1432 11.5464 37.141 12.5492C37.1381 13.8926 36.6021 15.1798 35.6507 16.1282C34.6993 17.0766 33.4104 17.6086 32.067 17.6072ZM32.067 9.77423C31.5208 9.77522 30.9871 9.93796 30.5333 10.2419C30.0794 10.5459 29.7258 10.9775 29.517 11.4823C29.3082 11.987 29.2536 12.5423 29.3601 13.078C29.4665 13.6138 29.7292 14.106 30.1151 14.4926C30.501 14.8792 30.9928 15.1428 31.5283 15.2502C32.0639 15.3577 32.6193 15.304 33.1244 15.0961C33.6295 14.8882 34.0617 14.5354 34.3665 14.0821C34.6713 13.6288 34.8351 13.0954 34.837 12.5492C34.8376 11.8139 34.5461 11.1084 34.0267 10.5878C33.5073 10.0673 32.8024 9.77428 32.067 9.77322V9.77423Z" fill="#707070"/>
<path d="M138.963 13.6989H62.403C62.1097 13.6816 61.8342 13.5529 61.6326 13.3392C61.4311 13.1254 61.3188 12.8427 61.3188 12.549C61.3188 12.2552 61.4311 11.9725 61.6326 11.7587C61.8342 11.5449 62.1097 11.4162 62.403 11.3989H138.963C139.256 11.4162 139.532 11.5449 139.733 11.7587C139.935 11.9725 140.047 12.2552 140.047 12.549C140.047 12.8427 139.935 13.1254 139.733 13.3392C139.532 13.5529 139.256 13.6816 138.963 13.6989V13.6989Z" fill="#707070"/>
<path d="M122.387 43.712H17.727C17.5757 43.7123 17.4258 43.6827 17.2859 43.625C17.146 43.5673 17.0189 43.4825 16.9118 43.3756C16.8047 43.2687 16.7198 43.1418 16.6618 43.002C16.6038 42.8622 16.574 42.7124 16.574 42.561V35.3781C16.5741 35.2268 16.604 35.077 16.662 34.9373C16.7201 34.7975 16.805 34.6706 16.9121 34.5638C17.0192 34.4569 17.1463 34.3721 17.2861 34.3144C17.4259 34.2566 17.5757 34.2269 17.727 34.2271H122.387C122.538 34.2269 122.688 34.2566 122.828 34.3144C122.968 34.3721 123.095 34.4569 123.202 34.5638C123.309 34.6706 123.394 34.7975 123.452 34.9373C123.51 35.077 123.54 35.2268 123.54 35.3781V42.56C123.54 42.7114 123.51 42.8614 123.452 43.0013C123.395 43.1412 123.31 43.2683 123.203 43.3753C123.095 43.4823 122.968 43.5671 122.828 43.6249C122.688 43.6827 122.538 43.7123 122.387 43.712V43.712ZM18.878 41.412H121.236V36.534H18.878V41.412Z" fill="#707070"/>
<path d="M77.778 58.7488H17.278C17.1213 58.758 16.9643 58.7351 16.8168 58.6815C16.6692 58.6279 16.5342 58.5447 16.4199 58.437C16.3057 58.3293 16.2147 58.1994 16.1525 58.0553C16.0903 57.9111 16.0582 57.7558 16.0582 57.5988C16.0582 57.4418 16.0903 57.2864 16.1525 57.1423C16.2147 56.9981 16.3057 56.8682 16.4199 56.7605C16.5342 56.6529 16.6692 56.5696 16.8168 56.516C16.9643 56.4624 17.1213 56.4395 17.278 56.4488H77.778C78.0713 56.4661 78.3469 56.5948 78.5484 56.8086C78.7499 57.0223 78.8622 57.305 78.8622 57.5988C78.8622 57.8926 78.7499 58.1752 78.5484 58.389C78.3469 58.6028 78.0713 58.7315 77.778 58.7488V58.7488Z" fill="#707070"/>
<path d="M39.293 65.9812H17.282C17.1253 65.9904 16.9684 65.9676 16.8208 65.914C16.6732 65.8603 16.5382 65.7771 16.424 65.6694C16.3097 65.5617 16.2187 65.4318 16.1565 65.2877C16.0943 65.1435 16.0622 64.9882 16.0622 64.8312C16.0622 64.6742 16.0943 64.5189 16.1565 64.3747C16.2187 64.2306 16.3097 64.1007 16.424 63.993C16.5382 63.8853 16.6732 63.802 16.8208 63.7484C16.9684 63.6948 17.1253 63.672 17.282 63.6812H39.293C39.4498 63.672 39.6067 63.6948 39.7543 63.7484C39.9018 63.802 40.0369 63.8853 40.1511 63.993C40.2654 64.1007 40.3564 64.2306 40.4186 64.3747C40.4808 64.5189 40.5129 64.6742 40.5129 64.8312C40.5129 64.9882 40.4808 65.1435 40.4186 65.2877C40.3564 65.4318 40.2654 65.5617 40.1511 65.6694C40.0369 65.7771 39.9018 65.8603 39.7543 65.914C39.6067 65.9676 39.4498 65.9904 39.293 65.9812V65.9812Z" fill="#707070"/>
<path d="M65.772 73.2322H17.282C17.127 73.2386 16.9722 73.2137 16.827 73.1588C16.6819 73.1039 16.5493 73.0203 16.4373 72.9128C16.3253 72.8054 16.2362 72.6764 16.1753 72.5337C16.1144 72.3909 16.0831 72.2373 16.0831 72.0821C16.0831 71.927 16.1144 71.7734 16.1753 71.6306C16.2362 71.4879 16.3253 71.3589 16.4373 71.2515C16.5493 71.1441 16.6819 71.0604 16.827 71.0055C16.9722 70.9506 17.127 70.9257 17.282 70.9322H65.772C65.9271 70.9257 66.0818 70.9506 66.227 71.0055C66.3722 71.0604 66.5047 71.1441 66.6167 71.2515C66.7287 71.3589 66.8178 71.4879 66.8787 71.6306C66.9396 71.7734 66.971 71.927 66.971 72.0821C66.971 72.2373 66.9396 72.3909 66.8787 72.5337C66.8178 72.6764 66.7287 72.8054 66.6167 72.9128C66.5047 73.0203 66.3722 73.1039 66.227 73.1588C66.0818 73.2137 65.9271 73.2386 65.772 73.2322V73.2322Z" fill="#707070"/>
<path d="M52.785 80.469H17.285C17.1283 80.4782 16.9714 80.4554 16.8238 80.4017C16.6762 80.3481 16.5412 80.2649 16.4269 80.1572C16.3127 80.0495 16.2217 79.9196 16.1595 79.7755C16.0973 79.6313 16.0652 79.476 16.0652 79.319C16.0652 79.162 16.0973 79.0066 16.1595 78.8625C16.2217 78.7184 16.3127 78.5885 16.4269 78.4808C16.5412 78.3731 16.6762 78.2899 16.8238 78.2363C16.9714 78.1826 17.1283 78.1597 17.285 78.169H52.785C53.0783 78.1863 53.3539 78.315 53.5554 78.5288C53.7569 78.7425 53.8691 79.0252 53.8691 79.319C53.8691 79.6128 53.7569 79.8955 53.5554 80.1092C53.3539 80.323 53.0783 80.4517 52.785 80.469V80.469Z" fill="#707070"/>
<path d="M65.52 87.7039H17.282C17.1253 87.7131 16.9684 87.6902 16.8208 87.6366C16.6732 87.583 16.5382 87.4998 16.424 87.3921C16.3097 87.2844 16.2187 87.1545 16.1565 87.0104C16.0943 86.8662 16.0622 86.7108 16.0622 86.5538C16.0622 86.3969 16.0943 86.2415 16.1565 86.0974C16.2187 85.9532 16.3097 85.8233 16.424 85.7156C16.5382 85.6079 16.6732 85.5247 16.8208 85.4711C16.9684 85.4175 17.1253 85.3946 17.282 85.4039H65.52C65.8133 85.4212 66.0889 85.5499 66.2904 85.7636C66.4919 85.9774 66.6042 86.2601 66.6042 86.5538C66.6042 86.8476 66.4919 87.1303 66.2904 87.3441C66.0889 87.5579 65.8133 87.6866 65.52 87.7039V87.7039Z" fill="#707070"/>
<path d="M51.655 94.9558H17.282C17.1253 94.9651 16.9684 94.9422 16.8208 94.8886C16.6732 94.835 16.5382 94.7518 16.424 94.6441C16.3097 94.5364 16.2187 94.4065 16.1565 94.2623C16.0943 94.1182 16.0622 93.9628 16.0622 93.8058C16.0622 93.6488 16.0943 93.4935 16.1565 93.3493C16.2187 93.2052 16.3097 93.0753 16.424 92.9676C16.5382 92.8599 16.6732 92.7767 16.8208 92.7231C16.9684 92.6695 17.1253 92.6466 17.282 92.6558H51.655C51.9483 92.6731 52.2239 92.8018 52.4254 93.0156C52.6269 93.2293 52.7392 93.512 52.7392 93.8058C52.7392 94.0996 52.6269 94.3823 52.4254 94.5961C52.2239 94.8098 51.9483 94.9385 51.655 94.9558Z" fill="#707070"/>
</svg>
