<svg width="1446" height="741" viewBox="0 0 1446 741" fill="none" xmlns="http://www.w3.org/2000/svg">
<path d="M72.195 740.734C72.195 740.734 -83.065 410.103 222.935 410.103C384.615 410.103 318.01 319.388 427.935 214.403C537.86 109.418 922.274 25.5416 1004.09 228.27C1085.91 430.998 883.707 584.92 1079.09 558.516C1313.89 526.786 1406.65 740.733 1406.65 740.733L72.195 740.734Z" fill="#EEE2CC"/>
<path d="M1329.65 698.782C1315.16 688.195 1285.56 695.343 1263.71 702.988C1260.14 697.982 1256.12 693.318 1251.7 689.053C1298.77 658.73 1363.78 594.064 1329.32 588.59C1299.37 583.831 1258.94 642.038 1237.34 677.473C1214.9 662.38 1180.53 651.286 1128.04 655.134C991.825 665.12 885.414 577.257 806.974 606.561C744.608 629.861 687.454 642.915 632.332 638.456C634.704 598.189 635.219 519.127 603.599 510.925C571.499 502.598 602.985 592.385 620.486 637.218C616.379 636.693 612.282 636.066 608.195 635.337C596.862 612.992 578.188 583.751 557.684 582.751C538.373 581.811 562.206 608.098 585.66 630.37C518.251 616.218 438.29 671.012 436.96 735.801H1278.53C1278.53 735.801 1277.04 726.343 1270.43 713.875C1302.95 713.237 1345.39 710.283 1329.65 698.782Z" fill="#AE9A73"/>
<path d="M822.027 504.952H707.795V735.799H872.949V504.952H822.027Z" fill="#E5CEA8"/>
<path d="M656.871 735.799H822.027V504.952H656.871V735.799Z" fill="#CFB991"/>
<path d="M312.202 556.088C312.202 556.088 281.316 579.056 275.294 577.662C269.272 576.268 297.866 552.869 297.866 552.869C287.106 547.696 253.657 550.94 253.657 550.94C253.657 550.94 242.516 586.869 237.021 584.04C231.526 581.211 248.51 552.729 248.51 552.729C236.525 552.007 221.826 560.906 221.826 560.906C201.704 576.798 223.149 601.816 223.149 601.816C223.149 601.816 219.019 614.184 206.312 625.447C206.312 625.447 188.162 638.869 186.902 662.847L190.195 663.142C190.195 663.142 195.418 640.806 204.907 630.242C205.276 629.86 205.812 629.31 206.474 628.642C208.02 627.211 209.103 626.135 209.831 625.337C214.554 620.798 221.081 615.018 224.231 614.458C224.117 613.939 224.071 613.407 224.096 612.877C224.139 613.382 224.184 613.903 224.231 614.458C225.307 627.103 249.84 638.146 264.931 640.417C280.022 642.688 275.358 636.484 270.158 627.286C264.958 618.088 248.502 613.971 244.747 609.736C240.992 605.501 248.755 605.49 257.847 609.643C266.939 613.796 268.184 624.869 282.772 631.856C297.36 638.843 319.307 614.636 319.307 614.636C307.682 614.046 291.081 601.421 291.681 597.558C292.281 593.695 319.862 604.223 324.581 604.728C329.3 605.233 340.023 599.369 341.681 580.378C343.339 561.387 312.202 556.088 312.202 556.088Z" fill="#EDC396"/>
<path d="M148.168 570.349C148.168 570.349 182.283 551.249 166.362 525.318C166.362 525.318 153.626 509.398 139.981 505.304C139.981 505.304 147.258 543.966 139.981 544.877C132.704 545.788 134.981 501.211 134.981 501.211C134.981 501.211 99.048 483.926 84.947 485.291C84.947 485.291 107.235 523.044 99.958 522.135C92.681 521.226 67.664 483.018 67.664 483.018C67.664 483.018 30.8201 476.194 24.9071 498.027C18.9941 519.86 28.546 530.777 34.007 532.141C39.468 533.505 74.4891 533.051 73.5791 537.599C72.6691 542.147 49.0171 549.426 35.8261 545.331C35.8261 545.331 50.3811 581.265 69.4851 579.446C88.5891 577.627 94.5021 565.8 106.329 564.89C118.156 563.98 126.797 567.164 120.884 570.349C114.971 573.534 94.958 571.392 85.406 579.512C75.854 587.632 68.122 592.636 85.861 596.275C103.6 599.914 135.44 597.64 141.807 583.994L148.168 570.349Z" fill="#EDCC96"/>
<path d="M157.265 603.553C147.713 585.814 148.165 570.353 148.165 570.353C137.248 535.783 41.73 504.853 41.73 504.853C163.175 553.977 141.797 583.997 141.797 583.997C145.07 585.906 149.977 595.009 153.383 601.997C153.867 603.185 154.636 604.83 155.776 607.063C156.239 608.072 156.609 608.898 156.864 609.476C163.117 625.121 159.804 652.139 159.804 652.139L163.594 653.157C171.996 625.922 157.265 603.553 157.265 603.553Z" fill="#5B5B57"/>
<path d="M202.441 544.002C202.441 544.002 157.472 518.82 178.458 484.644C178.458 484.644 195.246 463.658 213.233 458.262C213.233 458.262 203.64 509.226 213.233 510.425C222.826 511.624 219.833 452.865 219.833 452.865C219.833 452.865 267.2 430.081 285.787 431.88C285.787 431.88 256.408 481.646 266.001 480.446C275.594 479.246 308.571 428.882 308.571 428.882C308.571 428.882 357.138 419.888 364.932 448.668C372.726 477.448 360.132 491.837 352.941 493.636C345.75 495.435 299.578 494.836 300.777 500.836C301.976 506.836 333.154 516.425 350.542 511.029C350.542 511.029 331.356 558.396 306.173 555.998C280.99 553.6 273.196 538.011 257.606 536.811C242.016 535.611 230.626 539.811 238.42 544.006C246.214 548.201 272.596 545.381 285.187 556.086C297.778 566.791 307.971 573.386 284.587 578.186C261.203 582.986 219.233 579.986 210.839 561.997L202.441 544.002Z" fill="#E2C6AF"/>
<path d="M342.743 457.662C342.743 457.662 216.831 498.433 202.443 544.002C202.443 544.002 203.043 564.388 190.45 587.771C190.45 587.771 171.032 617.257 182.103 653.152L187.103 651.809C187.103 651.809 182.736 616.195 190.979 595.572C191.315 594.812 191.803 593.722 192.412 592.392C193.912 589.448 194.929 587.279 195.568 585.712C200.058 576.505 206.527 564.505 210.84 561.989C210.835 561.989 182.655 522.417 342.743 457.662Z" fill="#5B5B57"/>
<path d="M200.926 730.988C224.288 730.988 246.693 721.707 263.212 705.188C279.732 688.669 289.012 666.264 289.012 642.902H112.84C112.84 666.264 122.121 688.669 138.64 705.188C155.159 721.707 177.564 730.988 200.926 730.988Z" fill="#AE9A73"/>
<path d="M222.601 730.315C210.208 731.856 197.628 730.745 185.696 727.057C173.764 723.37 162.752 717.189 153.389 708.924C144.027 700.659 136.527 690.499 131.387 679.117C126.247 667.735 123.584 655.391 123.575 642.902H145.458C145.459 664.369 153.298 685.098 167.503 701.194C181.707 717.289 201.3 727.645 222.601 730.315V730.315Z" fill="#EEE2CC"/>
<path d="M279.361 724.932H122.49C119.608 724.932 116.843 726.077 114.805 728.115C112.767 730.153 111.622 732.917 111.622 735.8H290.229C290.229 732.917 289.084 730.153 287.046 728.115C285.008 726.077 282.243 724.932 279.361 724.932Z" fill="#AE9A73"/>
<path d="M289.664 642.902H111.294C111.112 642.895 110.931 642.925 110.761 642.989C110.591 643.054 110.436 643.152 110.305 643.278C110.174 643.404 110.07 643.556 109.999 643.723C109.928 643.89 109.891 644.07 109.891 644.252C109.891 644.434 109.928 644.614 109.999 644.781C110.07 644.948 110.174 645.099 110.305 645.225C110.436 645.351 110.591 645.45 110.761 645.514C110.931 645.579 111.112 645.609 111.294 645.602H289.664C290.013 645.589 290.343 645.44 290.586 645.189C290.828 644.937 290.963 644.601 290.963 644.252C290.963 643.903 290.828 643.567 290.586 643.315C290.343 643.064 290.013 642.915 289.664 642.902V642.902Z" fill="#AF4E4E"/>
<path d="M969.388 179.048C966.835 178.66 959.141 185.773 959.141 185.773C942.712 187.673 918.693 192.033 910.047 193.698C903.915 194.878 887.433 189.259 871.33 182.806C852.18 175.129 833.57 166.273 833.57 166.273C822.943 165.732 810.876 185.119 832.426 197.445C835.715 199.327 848.077 202.538 862.309 205.47C881.944 209.516 905.139 213.028 913.035 211.794C922.206 210.359 948.169 200.862 963.611 193.594L963.65 193.575L963.822 193.494C964.749 193.061 968.528 191.377 971.052 191.526C973.945 191.698 980.389 186.402 980.585 184.99C980.781 183.578 971.943 179.436 969.388 179.048Z" fill="#FFB27D"/>
<path d="M949.328 423.281L940.283 425.119C940.283 425.119 898.888 378.609 892.502 359.038C889.084 348.58 867.23 344.06 844.392 338.155C824.514 333.016 803.892 326.824 794.04 314.742C772.87 288.784 807.34 256.887 807.34 256.887C807.34 256.887 843.986 278.667 875.601 301.168C897.701 316.893 917.338 332.968 920.301 342.208C927.48 364.674 942.722 407.381 949.328 423.281Z" fill="#232320"/>
<path d="M937.223 438.625H942.311C944.011 438.357 945.274 437.864 947.022 437.635C949.676 437.287 950.898 438.375 951.141 438.625C951.174 438.658 951.189 438.676 951.189 438.676H972.802C973.346 437.9 972.824 436.101 972.312 434.776C972.141 434.332 971.869 433.934 971.518 433.613C971.167 433.292 970.746 433.057 970.289 432.927C967.997 432.263 963.478 431.672 959.34 427.927C957.012 425.827 948.098 420.191 948.098 420.191L948.05 420.18C947.85 420.18 946.923 420.47 942.869 423.894C940.769 425.66 937.2 421.394 937.2 421.394C936.71 421.842 936.312 422.382 936.029 422.983C935.524 424.011 935.362 425.173 935.565 426.301C935.888 428.249 934.848 431.868 934.016 434.316C933.516 435.8 933.088 436.851 933.088 436.851C933.088 436.851 932.845 438.077 937.223 438.625Z" fill="#0C0C0C"/>
<path d="M875.597 301.167L844.397 338.155C824.519 333.016 803.897 326.824 794.045 314.742C772.875 288.784 807.345 256.887 807.345 256.887C807.345 256.887 843.983 278.666 875.597 301.167Z" fill="#0C0C0C"/>
<path d="M847.24 281.847C847.24 281.847 844.724 289.78 840.629 301.715C835.451 316.806 827.737 338.293 819.37 358.22C817.532 362.599 815.66 366.904 813.777 371.048C806.82 386.382 799.697 399.527 793.426 406.207C782.159 418.215 754.765 495.419 754.765 495.419L747.939 493.53C747.939 493.53 738.423 427.606 772.134 390.093C772.512 389.716 772.752 389.223 772.817 388.693C772.819 388.688 772.819 388.683 772.817 388.679C773.265 383.125 774.87 358.26 778.361 333.062C779.219 326.88 780.19 320.683 781.282 314.743C781.349 314.363 781.423 313.987 781.491 313.612C786.62 286.152 791.531 273.938 797.869 267.794L844.477 281.061L847.24 281.847Z" fill="#232320"/>
<path d="M747.179 504.902H752.267C753.967 504.634 755.23 504.141 756.978 503.912C759.632 503.564 760.855 504.651 761.097 504.902C761.114 504.918 761.13 504.935 761.145 504.953H782.759C783.303 504.177 782.781 502.378 782.269 501.053C782.098 500.609 781.826 500.211 781.475 499.89C781.124 499.57 780.703 499.334 780.246 499.204C777.954 498.54 773.435 497.949 769.298 494.204C766.97 492.104 758.056 486.468 758.056 486.468L758.009 486.458C757.809 486.458 756.882 486.748 752.827 490.171C750.727 491.937 747.159 487.671 747.159 487.671C746.669 488.119 746.271 488.659 745.987 489.26C745.483 490.288 745.321 491.451 745.524 492.578C745.847 494.526 744.806 498.145 743.976 500.593C743.476 502.075 743.047 503.127 743.047 503.127C743.047 503.127 742.801 504.355 747.179 504.902Z" fill="#0C0C0C"/>
<path d="M757.176 192.19C757.176 192.19 749.376 211.267 740.386 229.837C732.823 245.449 724.42 260.701 719.092 263.956C711.578 268.546 690.882 281.491 677.456 291.148C677.456 291.148 666.979 291.069 665.356 293.074C663.733 295.079 659.972 304.092 661.068 305.004C662.164 305.916 670.494 305.493 672.517 303.419C674.283 301.61 678.217 300.31 679.189 300.006L679.371 299.951L679.413 299.939C695.728 294.921 721.319 284.464 729.065 279.35C735.735 274.95 750.521 256.733 762.316 240.523C770.865 228.773 777.844 218.075 779.01 214.47C786.644 190.846 764.667 184.636 757.176 192.19Z" fill="#FFB27D"/>
<path d="M797.96 117.374C797.1 116.118 796.167 114.913 795.167 113.765C796.337 113.824 797.508 113.648 798.609 113.248C801.346 112.116 802.594 103.426 802.182 100.848C801.77 98.2698 797.97 90.8168 793.282 90.0738C788.594 89.3308 783.747 94.5378 783.747 94.5378C784.613 90.7788 792.547 88.6118 792.547 88.6118C776.206 91.6238 777.04 102.523 777.152 103.53C762.194 98.2008 753.412 126.37 753.412 126.37L792.158 149.203C792.158 149.203 792.258 142.98 795.958 143.382C801.722 144.012 806.52 129.855 797.96 117.374Z" fill="#232320"/>
<path d="M800.429 176.484C791.538 180.674 779.74 174.639 779.804 174.575C780.566 173.813 780.298 171.53 779.604 168.546C778.459 164.142 776.638 159.944 774.204 156.1C773.569 155.02 772.934 153.941 772.172 152.8L773.188 152.42L790.46 145.498C790.46 145.498 793.254 150.514 796.176 155.086C798.652 158.897 801.256 162.325 802.399 162.199C802.46 162.132 813.89 170.006 800.429 176.484Z" fill="#FFB27D"/>
<path d="M790.458 147.208C790.013 153.367 787.918 164.481 779.599 168.545C778.454 164.142 776.633 159.943 774.199 156.099L790.458 147.208Z" fill="#EA8888"/>
<path d="M773.191 163.111C773.191 163.111 795.678 154.248 789.943 140.329C784.208 126.41 783.243 115.891 768.643 120.962C754.043 126.033 753.46 132.486 754.243 137.598C755.026 142.71 767.193 165.057 773.191 163.111Z" fill="#FFB27D"/>
<path d="M781.578 137.153C791.961 135.687 794.993 131.49 794.993 131.49C788.681 129.336 783.314 125.056 779.811 119.381C779.811 119.381 768.141 115.445 759.492 122.025C758.943 122.742 758.569 123.577 758.398 124.464C756.416 123.814 753.435 123.983 751.715 129.585C749.13 138.001 758.323 147.191 758.323 147.191C760.551 146.561 758.038 139.061 757.686 135.057C757.429 132.111 759.016 128.341 759.874 126.552C760.974 127.979 771.929 141.746 785.302 142.295C780.494 140.504 775.952 138.067 771.802 135.049C775.005 136.622 778.407 137.601 781.578 137.153Z" fill="#232320"/>
<path d="M843.243 205.162C843.052 204.49 842.843 203.794 842.633 203.079C845.482 197.776 847.401 192.024 848.309 186.074C849.834 175.785 847.231 169.435 847.231 169.435C847.231 169.435 831.631 161.163 824.745 160.11C824.717 160.098 824.689 160.09 824.659 160.085C824.578 160.074 824.485 160.066 824.383 160.059C817.43 159.101 802.383 162.173 802.383 162.173C802.383 162.173 805.283 169.903 797.095 175.056C788.907 180.209 780.156 173.736 780.156 173.736C779.892 173.913 779.611 174.109 779.322 174.314C779.322 174.314 757.769 188.535 755.833 191.785C753.897 195.035 745.609 211.126 745.609 211.126C745.609 211.126 748.237 224.635 777.354 225.764C779.746 231.569 781.58 237.231 782.175 241.955C784.488 260.292 781.803 274.755 784.499 285.455C787.195 296.155 835.775 290.055 844.572 287.996C853.369 285.937 851.391 276.542 852.072 267.416C852.913 255.95 846.107 215.278 843.243 205.162Z" fill="#CFB991"/>
<path d="M848.308 186.073C847.397 192.052 845.464 197.83 842.594 203.154C841.832 199.789 838.72 187.469 833.704 181.88C833.704 181.88 842.149 182.643 848.308 186.073Z" fill="#AF956B"/>
<path d="M650.505 306.248C650.505 306.248 659.555 295.28 661.505 293.984C663.455 292.688 672.005 290.414 672.492 290.872C672.979 291.33 673.003 291.992 671.944 292.928C670.885 293.864 666.844 296.228 667.418 296.489C667.992 296.75 680.192 290.682 681.951 292.724C683.71 294.766 680.951 303.197 676.251 307.238C671.551 311.279 657.522 313.004 656.639 313.568C649.158 318.353 650.505 306.248 650.505 306.248Z" fill="#ED985F"/>
<path d="M491.157 280.922C491.157 280.922 504.157 296.348 520.718 289.895C520.718 289.895 524.28 281.28 524.33 274.929C524.335 274.148 524.345 273.391 524.357 272.67C524.446 265.518 524.687 261.506 524.687 261.506H524.67C523.917 261.192 499.358 251.106 499.379 251.946C499.8 271.285 491.157 280.922 491.157 280.922Z" fill="#FFB27D"/>
<path d="M501.844 256.555C504.212 260.944 512.339 269.533 524.357 272.67C524.446 265.518 524.687 261.506 524.687 261.506H524.67C523.99 261.32 501.14 255.261 501.844 256.555Z" fill="#EA8888"/>
<path d="M529.83 260.76C529.83 260.76 502.211 267.254 498.43 249.992C494.649 232.73 488.541 221.943 506.015 217.067C523.489 212.191 528.369 218.026 531.031 223.481C533.693 228.936 536.917 258.629 529.83 260.76Z" fill="#FFB27D"/>
<path d="M499.378 254.697C499.001 254.938 493.058 256.765 481.803 234.344C480.557 231.49 480.011 228.381 480.21 225.274C480.41 222.167 481.35 219.153 482.951 216.483C487.07 209.756 501.672 204.466 513.804 202.164C525.936 199.862 528.849 206.689 531.704 213.55C534.704 220.75 543.365 226.682 543.365 226.682C532.903 232.527 520.302 224.167 515.937 225.542C511.572 226.917 510.029 233.797 509.702 236.003C509.375 238.209 508.871 240.04 503.381 238.071C497.891 236.102 500.899 245.851 501.781 247.714C501.78 247.718 502.526 252.68 499.378 254.697Z" fill="#5B5B57"/>
<path d="M428.234 685.725H411.51C408.005 685.725 404.11 682.168 403.134 675.655C402.158 669.142 394.953 665.586 393.392 660.255C391.831 654.924 399.824 647.418 399.824 647.418L401.159 645.679L402.549 643.866L415.796 647.023C415.796 647.023 416.123 650.223 416.327 654.291C416.469 657.23 416.546 660.63 416.381 663.61C415.991 670.72 418.346 678.374 424.581 679.758C430.816 681.142 428.234 685.725 428.234 685.725Z" fill="#0C0C0C"/>
<path d="M544.653 685.886H500.323C499.998 685.833 499.682 685.738 499.381 685.605C496.421 684.08 497.348 672.412 497.704 668.805C497.773 668.137 497.821 667.746 497.821 667.746C497.821 667.746 513.409 654.909 515.554 664.738C515.622 665.044 515.7 665.346 515.783 665.638V665.643C518.489 674.843 530.583 679.016 537.572 680.181C542.912 681.083 544.297 684.285 544.653 685.886Z" fill="#0C0C0C"/>
<path d="M535.718 429.535C535.718 429.535 533.351 459.071 530.568 494.575C526.786 542.805 522.238 602.048 521.788 613.275C521.011 632.764 517.888 663.937 517.888 663.937C517.888 663.937 510.488 671.343 495.675 668.221C495.675 668.221 482.475 623.721 478.706 576.636C478.648 575.864 478.589 575.087 478.531 574.309C475.024 526.378 469.57 425.446 469.57 425.446L535.718 429.535Z" fill="#5B5B57"/>
<path d="M535.718 429.535C535.718 429.535 533.351 459.071 530.568 494.575L478.708 576.632C478.65 575.86 478.591 575.083 478.533 574.305C475.026 526.374 469.572 425.442 469.572 425.442L535.718 429.535Z" fill="#232320"/>
<path d="M524.908 433.042C524.908 433.042 482.237 540.012 454.179 590.281C426.121 640.55 417.354 654.581 417.354 654.581C417.354 654.581 401.279 648.15 399.818 643.767C399.818 643.767 410.548 546.718 429.337 523.06C439.954 509.693 452.426 469.576 453.011 455.547C453.596 441.518 456.811 413.753 456.811 413.753L524.908 433.042Z" fill="#5B5B57"/>
<path d="M427.208 415.228C427.208 415.228 426.103 428.587 425.293 430.639C424.483 432.691 419.093 439.049 418.464 438.957C417.835 438.865 417.464 438.365 417.782 437.071C418.1 435.777 419.959 431.777 419.37 431.88C418.781 431.983 412.606 443.248 410.146 442.613C407.686 441.978 405.282 433.971 406.746 428.313C408.21 422.655 418.146 413.774 418.521 412.863C421.737 405.134 427.208 415.228 427.208 415.228Z" fill="#FFB27D"/>
<path d="M422.629 418.615C427.352 420.131 428.109 419.788 428.109 419.788C428.109 419.788 451.097 377.936 453.426 374.105C455.755 370.274 502.233 327.172 502.233 327.172L490.289 282.631C490.289 282.631 437.425 351.087 431.715 360.911C422.282 377.143 416.754 414.843 416.754 414.843C418.357 416.583 420.38 417.881 422.629 418.615Z" fill="#232320"/>
<path d="M544.726 344.66C544.56 353.807 544.026 364.09 543.312 374.533C543.269 375.153 543.225 375.772 543.181 376.391C542.722 382.861 542.225 389.346 541.654 395.67C541.425 398.206 541.182 400.712 540.928 403.17L540.889 403.502C540.869 404.424 540.757 405.423 540.655 406.335C538.324 430.022 535.881 448.735 535.428 449.022C534.898 449.392 534.251 449.556 533.609 449.485C527.398 448.704 508.864 450.114 493.692 446.812C480.892 444.112 469.864 438.992 458.182 432.088C456.631 431.171 453.097 428.744 453.382 426.93C453.665 424.935 454.182 422.054 454.85 418.43C457.15 405.83 461.125 384.159 462.48 358.795C462.743 354.07 463.125 349.41 463.626 344.816C464.793 333.54 466.863 322.376 469.814 311.431C475.014 292.699 482.661 278.354 492.252 272.742C493.505 272.042 500.252 276.331 506.44 280.304C511.664 283.65 517.87 285.12 524.04 284.473L529.194 290.173C535.434 297.428 542.08 307.087 543.894 320.817C544.027 321.831 544.144 322.91 544.245 324.054C544.757 330.91 544.918 337.787 544.726 344.66V344.66Z" fill="#232320"/>
<path d="M544.726 344.659C544.56 353.806 544.026 364.089 543.312 374.532C543.269 375.152 543.225 375.772 543.181 376.391C507.7 354.182 502.234 313.542 502.234 313.542C519.689 314.308 533.557 318.32 544.243 324.058C544.756 330.913 544.917 337.789 544.726 344.659V344.659Z" fill="#0C0C0C"/>
<path d="M655.888 307.345C654.058 302.397 651.215 302.719 651.215 302.719C651.215 302.719 598.461 315.865 593.726 316.43C588.991 316.995 536.917 296.097 536.917 296.097C536.917 296.097 516.417 286.897 506.817 295.297C498.474 302.597 498.094 311.842 500.047 319.607C501.201 324.128 503.69 328.196 507.19 331.281C510.69 334.366 515.038 336.325 519.668 336.902C540.912 339.609 583.3 344.702 592.184 343.465C611.957 340.712 656.76 314.849 656.76 314.849C657.05 312.314 656.751 309.746 655.888 307.345V307.345Z" fill="#232320"/>
<path d="M1176.08 404.041C1176.08 404.041 1183.41 410.833 1181.98 415.66C1180.55 420.487 1173.93 423.704 1173.04 429.604C1172.14 435.504 1168.57 438.72 1165.35 438.72H1150.01C1150.01 438.72 1147.64 434.569 1153.36 433.32C1159.08 432.071 1161.24 425.137 1160.88 418.701C1160.73 413.689 1160.91 408.673 1161.42 403.685L1173.57 400.824L1176.08 404.041Z" fill="#0C0C0C"/>
<path d="M1084.73 437.917C1083.99 438.291 1081.37 438.547 1077.79 438.717H1043.1C1043.21 437.685 1044.02 434.007 1049.7 433.092C1056.11 432.05 1067.21 428.325 1069.68 420.127C1069.76 419.866 1069.84 419.595 1069.9 419.327C1071.86 410.568 1086.16 422.007 1086.16 422.007C1086.16 422.007 1086.2 422.357 1086.26 422.954C1086.6 426.176 1087.44 436.564 1084.73 437.917Z" fill="#0C0C0C"/>
<path d="M1051.39 203.632C1051.39 203.632 1053.57 230.732 1056.12 263.305C1059.59 307.554 1063.76 361.905 1064.17 372.205C1064.89 390.085 1067.75 418.684 1067.75 418.684C1067.75 418.684 1074.54 425.484 1088.13 422.615C1088.13 422.615 1100.24 381.788 1103.7 338.59C1103.75 337.882 1103.8 337.169 1103.86 336.456C1107.08 292.48 1112.08 199.881 1112.08 199.881L1051.39 203.632Z" fill="#C4B694"/>
<path d="M1051.39 203.632C1051.39 203.632 1053.57 230.732 1056.12 263.305L1103.7 338.589C1103.75 337.881 1103.8 337.168 1103.86 336.455C1107.08 292.479 1112.08 199.88 1112.08 199.88L1051.39 203.632Z" fill="#AE9A73"/>
<path d="M1061.31 206.851C1061.31 206.851 1100.46 304.991 1126.2 351.111C1151.94 397.231 1159.99 410.103 1159.99 410.103C1159.99 410.103 1174.74 404.203 1176.08 400.181C1176.08 400.181 1166.23 311.143 1148.99 289.439C1139.25 277.174 1127.81 240.368 1127.27 227.497C1126.74 214.626 1123.79 189.153 1123.79 189.153L1061.31 206.851Z" fill="#C4B694"/>
<path d="M940.561 153.623C940.561 153.623 929.942 151.195 928.155 151.317C926.368 151.439 920.116 154.055 920.033 154.562C919.95 155.069 920.246 155.481 921.326 155.554C922.406 155.627 925.962 155.169 925.737 155.6C925.512 156.031 915.269 158.044 915.157 160.106C915.045 162.168 920.657 165.998 925.397 166.254C930.137 166.51 939.459 161.003 940.258 160.933C947.033 160.34 940.561 153.623 940.561 153.623Z" fill="#E59B6A"/>
<path d="M936.014 156.319C934.493 151.468 934.848 150.696 934.848 150.696C934.848 150.696 977.893 127.421 981.834 125.06C985.775 122.699 1030.26 75.3599 1030.26 75.3599L1075.82 87.9009C1075.82 87.9009 1005.31 141.612 995.207 147.396C978.507 156.954 939.838 162.364 939.838 162.364C938.067 160.709 936.751 158.628 936.014 156.319V156.319Z" fill="#F9DDBF"/>
<path d="M1044.07 52.3467C1044.07 52.3467 1028.09 80.4467 1012.48 84.1197C1012.48 84.1197 1013.13 74.6807 1016.93 68.2197C1015.38 66.3837 1014.01 64.6967 1012.82 63.1877C1010.75 60.5857 1008.81 57.8756 1007.03 55.0687L1012.32 40.8237L1015.92 31.1587C1017.51 34.0486 1019.39 36.7622 1021.54 39.2537C1031.77 51.0207 1044.07 52.3467 1044.07 52.3467Z" fill="#E59B6A"/>
<path d="M1021.53 39.2549C1021.53 39.2549 1023.44 53.3389 1012.82 63.1899C1010.74 60.5879 1008.81 57.8778 1007.02 55.0709L1012.32 40.8259C1015.29 39.8286 1018.4 39.2986 1021.53 39.2549Z" fill="#CC8660"/>
<path d="M1002.81 57.1475C1002.81 57.1475 1026.68 47.8475 1020.65 33.0705C1014.63 18.2935 1013.65 7.14652 998.164 12.4625C982.673 17.7785 982.027 24.6155 982.838 30.0355C983.649 35.4555 996.451 59.1885 1002.81 57.1475Z" fill="#E59B6A"/>
<path d="M1126.1 196.571C1116.47 210.413 1044.49 228.907 1045.35 219.326C1045.92 213.039 1045.91 206.712 1045.34 200.426C1045.16 198.373 1044.9 196.197 1044.57 193.897C1042.74 181.309 1038.4 165.12 1028.71 146.383C1027.98 144.979 1027.23 143.562 1026.44 142.132C1022.49 134.95 1019.16 127.449 1016.46 119.708C1011.47 105.296 1009.46 91.5078 1011.98 82.4918C1011.99 82.449 1012.01 82.4069 1012.02 82.3658C1027.07 75.4078 1032.9 48.4248 1032.9 48.4248C1032.9 48.4248 1084.23 57.6398 1112.99 126.066C1112.99 126.067 1134.48 184.523 1126.1 196.571Z" fill="#F9DDBF"/>
<path d="M1045.34 200.428C1045.16 198.375 1044.9 196.199 1044.57 193.899C1042.74 181.311 1038.4 165.122 1028.71 146.385C1030.37 136.301 1032.67 127.916 1035.19 124.142C1045.43 108.798 1051.39 106.399 1051.39 106.399C1051.39 106.399 1066.75 171.149 1045.34 200.428Z" fill="#E0B690"/>
<path d="M964.416 185.021C964.416 185.021 950.216 185.766 948.016 186.56C945.816 187.354 938.9 192.87 938.976 193.536C939.052 194.202 939.576 194.614 940.955 194.32C942.334 194.026 946.639 192.18 946.51 192.802C946.381 193.424 934.24 199.612 934.834 202.24C935.428 204.868 943.843 207.673 949.888 206.302C955.933 204.931 965.669 194.683 966.648 194.31C974.944 191.145 964.416 185.021 964.416 185.021Z" fill="#E59B6A"/>
<path d="M961.738 190.407C958.893 185.807 960.944 183.714 960.944 183.714C960.944 183.714 1004.81 149.367 1008.25 145.897C1011.69 142.427 1027.62 87.1747 1027.62 87.1747C1027.62 87.1747 1033.1 64.8137 1045.94 62.3487C1057.1 60.2057 1064.81 65.7247 1069.85 72.1957C1072.78 75.977 1074.5 80.5521 1074.78 85.3246C1075.07 90.0971 1073.91 94.8455 1071.46 98.9507C1060.26 117.825 1037.66 155.288 1031.07 161.689C1016.39 175.937 967.247 195.837 967.247 195.837C965.018 194.474 963.133 192.616 961.738 190.407V190.407Z" fill="#F9DDBF"/>
<path d="M1024.08 5.62778C1024.25 5.29778 1024.74 4.94476 1025.92 4.58176C1025.14 4.35584 1024.32 4.32494 1023.52 4.49176C1022.85 2.85676 1021.22 0.0727578 1018.17 0.0517578C1018.71 0.216542 1019.2 0.500743 1019.62 0.883301C1020.04 1.26586 1020.36 1.73696 1020.57 2.26175C1016.38 -0.391251 1008.62 -1.16223 989.251 5.29077C963.72 13.7908 976.476 28.6148 980.344 29.8028C984.212 30.9908 991.337 23.3648 997.744 22.3238C1004.15 21.2828 1007.62 30.2078 1010.06 30.9478C1012.5 31.6878 1011.11 29.6568 1013.67 27.6228C1016.23 25.5888 1017.7 30.3738 1017.64 33.7348C1017.58 37.0958 1022.57 40.2808 1022.57 40.2808L1025.5 34.9148C1028.42 29.5498 1027.63 10.0718 1024.83 6.56677C1024.58 6.25677 1024.34 5.94278 1024.08 5.62778Z" fill="#232320"/>
<path d="M2.578 735.8H1442.73C1443.42 735.8 1444.07 736.071 1444.56 736.555C1445.04 737.038 1445.31 737.694 1445.31 738.378C1445.31 739.062 1445.04 739.717 1444.56 740.201C1444.07 740.684 1443.42 740.956 1442.73 740.956H2.579C1.89518 740.956 1.23935 740.684 0.755725 740.201C0.272097 739.717 0.000265149 739.062 0 738.378H0C0 737.694 0.27161 737.038 0.755079 736.555C1.23855 736.071 1.89427 735.8 2.578 735.8V735.8Z" fill="#232320"/>
<path d="M398.737 685.726V735.809H620.537V685.726H398.737Z" fill="#898989"/>
<path d="M979.657 438.723V735.802H1205.84V438.723H979.657Z" fill="#898989"/>
<path d="M552.149 685.724H330.348V735.811H552.149V685.724Z" fill="#5B5B57"/>
<path d="M1136.1 438.72H909.915V735.8H1136.1V438.72Z" fill="#5B5B57"/>
</svg>
