<svg width="958" height="635" viewBox="0 0 958 635" fill="none" xmlns="http://www.w3.org/2000/svg">
<path d="M200.187 634.977C286.398 634.977 356.286 628.22 356.286 619.885C356.286 611.55 286.398 604.793 200.187 604.793C113.976 604.793 44.088 611.55 44.088 619.885C44.088 628.22 113.976 634.977 200.187 634.977Z" fill="#BBBBBC"/>
<path d="M525.304 95.4661C498.591 107.615 472.432 121.266 446.226 133.658C371.947 168.794 294.176 183.45 213.774 197.794C150.338 209.112 80.383 227.35 45.022 286.242C7.02196 349.535 43.241 438.142 92.247 485.162C168.847 558.651 282.571 574.578 384.337 565.224C517.71 552.965 665.263 511.216 776.184 434.154C856.136 378.608 886.453 292.266 854.572 199.477C824.054 110.658 742.41 54.5341 648.329 60.3581C604.868 63.0481 564.489 77.6441 525.304 95.4661Z" fill="#EAE0D3"/>
<path d="M223.508 166.636H175.46V182.976H223.508V166.636Z" fill="#C5403F"/>
<path d="M252.502 69.4297H147.873C137.881 69.4297 129.781 77.5298 129.781 87.5217V148.544C129.781 158.536 137.881 166.636 147.873 166.636H252.502C262.494 166.636 270.594 158.536 270.594 148.544V87.5217C270.594 77.5298 262.494 69.4297 252.502 69.4297Z" fill="#7FD3F4"/>
<path d="M190.521 117.189C195.577 105.106 189.881 91.2118 177.798 86.1553C165.714 81.0988 151.82 86.7951 146.763 98.8783C141.707 110.961 147.403 124.856 159.486 129.912C171.57 134.969 185.464 129.273 190.521 117.189Z" fill="#232320"/>
<path d="M188.127 114.522C191.71 103.761 185.89 92.1323 175.129 88.5495C164.367 84.9667 152.739 90.7862 149.156 101.548C145.573 112.309 151.393 123.938 162.154 127.52C172.916 131.103 184.544 125.284 188.127 114.522Z" fill="#C5403F"/>
<path d="M180.483 84.3789H167.786V131.691H180.483V84.3789Z" fill="#EA8088"/>
<path d="M165.064 84.3789H158.078V131.691H165.064V84.3789Z" fill="#EA8088"/>
<path d="M253.986 116.236C258.516 103.946 252.225 90.3103 239.934 85.7805C227.644 81.2507 214.008 87.5419 209.479 99.8323C204.949 112.123 211.24 125.758 223.531 130.288C235.821 134.818 249.456 128.526 253.986 116.236Z" fill="#232320"/>
<path d="M247.73 120.917C254.842 112.082 253.444 99.1538 244.609 92.0422C235.773 84.9306 222.845 86.3282 215.734 95.1638C208.622 103.999 210.02 116.927 218.855 124.039C227.691 131.15 240.619 129.753 247.73 120.917Z" fill="#C5403F"/>
<path d="M230.153 84.3379H219.264V135.191H230.153V84.3379Z" fill="#EA8088"/>
<path d="M237.346 84.8477H232.7V135.701H237.346V84.8477Z" fill="#EA8088"/>
<path d="M243.732 84.8926H239.086V135.746H243.732V84.8926Z" fill="#EA8088"/>
<path d="M224.42 140.704H175.953C172.787 140.704 170.22 143.271 170.22 146.437V151.705C170.22 154.871 172.787 157.438 175.953 157.438H224.42C227.586 157.438 230.153 154.871 230.153 151.705V146.437C230.153 143.271 227.586 140.704 224.42 140.704Z" fill="white"/>
<path d="M178.273 140.704H175.46V157.438H178.273V140.704Z" fill="#232320"/>
<path d="M184.936 140.704H182.123V157.438H184.936V140.704Z" fill="#232320"/>
<path d="M191.599 140.704H188.786V157.438H191.599V140.704Z" fill="#232320"/>
<path d="M198.262 140.704H195.449V157.438H198.262V140.704Z" fill="#232320"/>
<path d="M204.925 140.704H202.112V157.438H204.925V140.704Z" fill="#232320"/>
<path d="M211.588 140.704H208.775V157.438H211.588V140.704Z" fill="#232320"/>
<path d="M218.251 140.704H215.438V157.438H218.251V140.704Z" fill="#232320"/>
<path d="M224.914 140.704H222.101V157.438H224.914V140.704Z" fill="#232320"/>
<path d="M242.937 58.8857H157.437V69.4297H242.937V58.8857Z" fill="#3CC5F0"/>
<path d="M129.78 87.4971H115.593V145.088H129.78V87.4971Z" fill="#232320"/>
<path d="M284.78 89.2363H270.593V146.827H284.78V89.2363Z" fill="#232320"/>
<path d="M247.142 182.976H153.232C141.422 182.976 131.849 192.549 131.849 204.359V353.586C131.849 365.395 141.422 374.969 153.232 374.969H247.142C258.951 374.969 268.525 365.395 268.525 353.586V204.359C268.525 192.549 258.951 182.976 247.142 182.976Z" fill="#3CC5F0"/>
<path d="M275.971 339.703H124.189V389.423H275.971V339.703Z" fill="#7FD3F4"/>
<path d="M156.295 182.976H240.995V250.698C240.995 261.93 236.533 272.702 228.59 280.645C220.648 288.588 209.875 293.05 198.643 293.05C187.411 293.049 176.64 288.586 168.698 280.644C160.756 272.701 156.295 261.929 156.295 250.698V182.976Z" fill="#232320"/>
<path d="M181.605 213.57H174.942V252.04H181.605V213.57Z" fill="#D1D3D4"/>
<path d="M194.931 213.57H188.268V252.04H194.931V213.57Z" fill="#D1D3D4"/>
<path d="M208.257 213.57H201.594V252.04H208.257V213.57Z" fill="#D1D3D4"/>
<path d="M221.583 213.57H214.92V252.04H221.583V213.57Z" fill="#D1D3D4"/>
<path d="M170.22 374.968H148.105V550.287H170.22V374.968Z" fill="#232320"/>
<path d="M252.056 374.968H229.941V550.287H252.056V374.968Z" fill="#232320"/>
<path d="M166.485 473.07C176.476 469.029 181.298 457.654 177.257 447.663C173.215 437.672 161.84 432.85 151.849 436.891C141.859 440.933 137.036 452.308 141.078 462.298C145.119 472.289 156.494 477.112 166.485 473.07Z" fill="#3CC5F0"/>
<path d="M252.845 472.812C261.409 466.27 263.048 454.023 256.506 445.459C249.964 436.895 237.718 435.255 229.153 441.798C220.589 448.34 218.95 460.586 225.492 469.151C232.034 477.715 244.28 479.354 252.845 472.812Z" fill="#3CC5F0"/>
<path d="M170.22 619.885H124.189L137.648 559.294C138.215 556.739 139.637 554.454 141.679 552.816C143.72 551.179 146.259 550.286 148.876 550.287H170.22V619.885Z" fill="#3CC5F0"/>
<path d="M170.22 619.885H114.165C114.165 617.075 114.718 614.294 115.793 611.698C116.868 609.103 118.444 606.744 120.43 604.758C122.417 602.771 124.775 601.196 127.371 600.121C129.966 599.046 132.748 598.493 135.557 598.493H170.22V619.885Z" fill="#232320"/>
<path d="M133.013 610.959H125.199V619.884H133.013V610.959Z" fill="#D1D3D4"/>
<path d="M145.792 610.959H137.978V619.884H145.792V610.959Z" fill="#D1D3D4"/>
<path d="M157.836 610.959H150.022V619.884H157.836V610.959Z" fill="#D1D3D4"/>
<path d="M229.941 619.885H275.972L262.513 559.294C261.946 556.739 260.524 554.454 258.482 552.816C256.441 551.179 253.902 550.286 251.285 550.287H229.941V619.885Z" fill="#3CC5F0"/>
<path d="M229.941 619.885H285.996C285.996 617.075 285.443 614.294 284.368 611.698C283.293 609.103 281.717 606.745 279.731 604.758C277.745 602.772 275.387 601.196 272.791 600.121C270.196 599.046 267.414 598.493 264.605 598.493H229.941V619.885Z" fill="#232320"/>
<path d="M267.148 619.885H274.962V610.96H267.148V619.885Z" fill="#D1D3D4"/>
<path d="M254.37 619.885H262.184V610.96H254.37V619.885Z" fill="#D1D3D4"/>
<path d="M242.325 619.885H250.139V610.96H242.325V619.885Z" fill="#D1D3D4"/>
<path d="M163.27 491.614H155.056V550.287H163.27V491.614Z" fill="#D1D3D4"/>
<path d="M245.106 491.614H236.892V550.287H245.106V491.614Z" fill="#D1D3D4"/>
<path d="M163.376 374.968H155.162V386.713H163.376V374.968Z" fill="#D1D3D4"/>
<path d="M245.212 374.968H236.998V386.713H245.212V374.968Z" fill="#D1D3D4"/>
<path d="M131.849 193.46H93.224V232.806H100.862V315.288L107.956 314.84V232.806H131.849V193.46Z" fill="#232320"/>
<path d="M107.956 218.977H100.864V232.806H107.956V218.977Z" fill="#D1D3D4"/>
<path d="M104.072 329.828C110.063 329.828 114.92 324.971 114.92 318.98C114.92 312.989 110.063 308.132 104.072 308.132C98.0808 308.132 93.224 312.989 93.224 318.98C93.224 324.971 98.0808 329.828 104.072 329.828Z" fill="#3CC5F0"/>
<path d="M268.525 193.46H307.15V232.806H299.512V315.288L292.418 314.84V232.806H268.524L268.525 193.46Z" fill="#232320"/>
<path d="M292.419 232.806H299.511V218.977H292.419V232.806Z" fill="#D1D3D4"/>
<path d="M296.301 329.828C302.292 329.828 307.149 324.971 307.149 318.98C307.149 312.989 302.292 308.132 296.301 308.132C290.31 308.132 285.453 312.989 285.453 318.98C285.453 324.971 290.31 329.828 296.301 329.828Z" fill="#3CC5F0"/>
<path d="M86.895 293.503L291.87 353.781C292.362 364.407 296.257 374.593 302.979 382.836C309.702 391.08 318.895 396.944 329.205 399.565C339.514 402.185 350.392 401.423 360.235 397.39C370.078 393.357 378.364 386.267 383.87 377.166L352.215 377.877C347.05 377.993 342.018 376.227 338.059 372.907C334.1 369.588 331.483 364.942 330.697 359.835C330.238 356.857 330.417 353.816 331.221 350.912C332.025 348.008 333.437 345.308 335.362 342.99C337.288 340.673 339.684 338.79 342.391 337.467C345.098 336.144 348.055 335.411 351.067 335.316L387.884 334.156C384.733 325.716 379.343 318.292 372.292 312.683C365.241 307.075 356.796 303.492 347.863 302.32C338.93 301.148 329.846 302.431 321.587 306.032C313.328 309.632 306.205 315.414 300.984 322.756L96.017 262.483C95.5246 251.858 91.6299 241.672 84.9077 233.428C78.1854 225.185 68.9916 219.32 58.6824 216.7C48.3733 214.079 37.4949 214.842 27.6522 218.875C17.8094 222.908 9.52356 229.998 4.01703 239.098L35.671 238.387C40.8363 238.271 45.8676 240.038 49.8267 243.357C53.7858 246.677 56.4025 251.323 57.189 256.429C57.6477 259.407 57.4689 262.449 56.6647 265.352C55.8604 268.256 54.4489 270.956 52.5236 273.274C50.5982 275.591 48.2028 277.474 45.4957 278.797C42.7886 280.12 39.8316 280.853 36.82 280.948L0.00201416 282.108C3.15344 290.549 8.54407 297.972 15.5952 303.58C22.6464 309.188 31.0917 312.77 40.0248 313.942C48.9579 315.113 58.0414 313.83 66.3001 310.229C74.5588 306.628 81.681 300.846 86.902 293.503H86.895Z" fill="#BBBBBC"/>
<path d="M109.572 283.321C110.082 281.593 111.257 280.139 112.838 279.276C114.42 278.414 116.279 278.214 118.008 278.721L263.468 321.497C265.196 322.007 266.65 323.182 267.513 324.763C268.375 326.345 268.575 328.204 268.068 329.932C267.558 331.66 266.383 333.115 264.802 333.977C263.22 334.84 261.361 335.039 259.632 334.532L114.174 291.756C112.446 291.247 110.991 290.072 110.128 288.491C109.265 286.909 109.065 285.05 109.572 283.321Z" fill="white"/>
<path d="M144.979 258.483C142.308 257.311 139.28 257.248 136.563 258.307C133.845 259.367 131.659 261.463 130.487 264.135L119.687 288.755L124.873 291.031L103.207 315.731C102.588 316.437 102.275 317.361 102.336 318.298C102.397 319.236 102.828 320.11 103.534 320.731C104.241 321.351 105.166 321.664 106.104 321.603C107.043 321.541 107.919 321.11 108.539 320.403L131.685 294.014L139.831 297.589L150.631 272.969C151.801 270.298 151.863 267.272 150.803 264.556C149.743 261.839 147.649 259.655 144.979 258.483Z" fill="#232320"/>
<path d="M119.682 288.754L139.826 297.594L142.426 291.667L122.397 282.567L119.682 288.754Z" fill="#3CC5F0"/>
<path d="M289.454 350.217L271.296 351.886L269.284 330.003C269.063 327.595 269.807 325.198 271.353 323.339C272.899 321.48 275.12 320.311 277.528 320.089C278.72 319.979 279.922 320.106 281.066 320.461C282.209 320.816 283.272 321.392 284.192 322.158C285.113 322.923 285.874 323.863 286.431 324.922C286.989 325.982 287.332 327.141 287.442 328.333L289.454 350.217Z" fill="#232320"/>
<path d="M288.962 344.878L270.805 346.547L271.296 351.887L289.453 350.217L288.962 344.878Z" fill="#3CC5F0"/>
<path d="M281.124 359.201C280.639 359.246 280.149 359.194 279.684 359.05C279.219 358.906 278.786 358.671 278.411 358.359C278.037 358.048 277.727 357.665 277.5 357.234C277.273 356.803 277.134 356.331 277.089 355.846L276.68 351.391L284.07 350.712L284.48 355.166C284.525 355.651 284.473 356.141 284.329 356.606C284.184 357.071 283.949 357.504 283.638 357.878C283.326 358.253 282.944 358.563 282.512 358.79C282.081 359.017 281.609 359.156 281.124 359.201Z" fill="#232320"/>
<path d="M203.519 16.7197H195.449V58.8847H203.519V16.7197Z" fill="#232320"/>
<path d="M199.364 24.45C206.116 24.45 211.589 18.9767 211.589 12.225C211.589 5.47332 206.116 0 199.364 0C192.612 0 187.139 5.47332 187.139 12.225C187.139 18.9767 192.612 24.45 199.364 24.45Z" fill="#C5403F"/>
<path d="M208.607 9.83924C209.45 6.25504 207.228 2.66634 203.643 1.82365C200.059 0.980955 196.47 3.20338 195.628 6.78758C194.785 10.3718 197.007 13.9605 200.592 14.8032C204.176 15.6459 207.765 13.4234 208.607 9.83924Z" fill="#EA8088"/>
<path d="M129.781 95.165H122.687V102.259H129.781V95.165Z" fill="#EA8088"/>
<path d="M129.781 106.886H122.687V113.98H129.781V106.886Z" fill="#EA8088"/>
<path d="M129.781 118.606H122.687V125.7H129.781V118.606Z" fill="#EA8088"/>
<path d="M129.781 130.327H122.687V137.421H129.781V130.327Z" fill="#EA8088"/>
<path d="M277.633 96.9053H270.539V103.999H277.633V96.9053Z" fill="#EA8088"/>
<path d="M277.633 108.626H270.539V115.72H277.633V108.626Z" fill="#EA8088"/>
<path d="M277.633 120.347H270.539V127.441H277.633V120.347Z" fill="#EA8088"/>
<path d="M277.633 132.066H270.539V139.16H277.633V132.066Z" fill="#EA8088"/>
<path d="M312.615 157.438L354.53 101.331L356 132.066L403.043 100.452L345.343 161.598L346.088 128.572L312.615 157.438Z" fill="#F7941D"/>
<path d="M96.374 380.841L18.781 454.992L62.764 441.155L15.539 507.893L112.539 417.793L78.304 421.034L96.374 380.841Z" fill="#F7941D"/>
<path d="M93.224 172.831L78.624 119.531L67.279 138.611L46.136 102.011L62.636 171.094L74.5 147.376L93.224 172.831Z" fill="#F7941D"/>
<path d="M280.851 414.553L290.432 449.531L297.877 437.01L311.752 461.03L300.923 415.695L293.14 431.257L280.851 414.553Z" fill="#F7941D"/>
<path d="M651.342 238.035C651.342 291.235 619.009 319.441 579.567 319.441C538.749 319.441 510.084 287.796 510.084 241.016C510.084 191.942 540.584 159.838 581.86 159.838C624.054 159.838 651.342 192.176 651.342 238.035ZM531.41 240.557C531.41 273.578 549.297 303.157 580.71 303.157C612.356 303.157 630.242 274.034 630.242 238.949C630.242 208.221 614.19 176.117 580.942 176.117C547.921 176.12 531.41 206.619 531.41 240.557Z" fill="#232320"/>
<path d="M777.922 260.507C777.922 301.555 749.486 319.441 722.657 319.441C692.617 319.441 669.457 297.427 669.457 262.341C669.457 225.192 693.764 203.407 724.492 203.407C756.366 203.408 777.922 226.569 777.922 260.507ZM689.865 261.654C689.865 285.961 703.853 304.307 723.574 304.307C742.836 304.307 757.283 286.191 757.283 261.196C757.283 242.396 747.883 218.543 724.033 218.543C700.183 218.543 689.865 240.557 689.865 261.654Z" fill="#232320"/>
<path d="M803.374 242.162C803.374 227.945 802.916 216.479 802.457 205.931H820.573L821.49 224.964H821.949C830.205 211.434 843.275 203.408 861.391 203.408C888.221 203.408 908.401 226.108 908.401 259.82C908.401 299.72 884.093 319.441 857.952 319.441C843.275 319.441 830.434 313.021 823.784 302.014H823.325V362.323H803.374V242.162ZM823.325 271.744C823.378 274.518 823.685 277.281 824.242 279.999C825.922 286.753 829.817 292.748 835.303 297.03C840.79 301.311 847.553 303.631 854.512 303.619C875.838 303.619 888.221 286.191 888.221 260.737C888.221 238.493 876.526 219.46 855.2 219.46C841.441 219.46 828.6 229.321 824.7 244.455C823.89 247.137 823.427 249.912 823.324 252.711L823.325 271.744Z" fill="#232320"/>
<path d="M929.953 305.224C929.953 296.969 935.686 291.006 943.482 291.006C951.738 291.006 957.012 296.969 957.012 305.224C957.012 313.25 951.738 319.441 943.482 319.441C935.456 319.441 929.953 313.25 929.953 305.224ZM935.686 272.432L932.475 162.361H954.489L951.278 272.432H935.686Z" fill="#232320"/>
<path d="M554.971 404.143C558.124 403.631 561.315 403.382 564.51 403.4C569.422 403.4 573.021 404.543 575.31 406.6C576.425 407.616 577.304 408.863 577.886 410.254C578.469 411.645 578.74 413.147 578.681 414.654C578.755 416.153 578.531 417.652 578.021 419.064C577.511 420.476 576.725 421.773 575.71 422.879C573.083 425.679 568.799 427.106 563.943 427.106C562.601 427.149 561.258 427.034 559.943 426.763V442.186H554.974L554.971 404.143ZM559.94 422.707C561.289 423.01 562.671 423.144 564.053 423.107C570.053 423.107 573.706 420.194 573.706 414.881C573.706 409.798 570.106 407.342 564.624 407.342C563.052 407.298 561.481 407.432 559.94 407.742V422.707Z" fill="#232320"/>
<path d="M599.01 442.185L598.61 438.7H598.438C597.456 440.007 596.178 441.062 594.708 441.777C593.238 442.492 591.619 442.847 589.985 442.813C584.385 442.813 581.531 438.871 581.531 434.873C581.531 428.19 587.471 424.535 598.153 424.592V424.021C598.153 421.736 597.524 417.621 591.87 417.621C589.326 417.628 586.834 418.34 584.67 419.678L583.527 416.364C586.266 414.715 589.412 413.865 592.609 413.909C601.063 413.909 603.119 419.678 603.119 425.218V435.557C603.082 437.774 603.235 439.991 603.576 442.183L599.01 442.185ZM598.267 428.076C592.783 427.962 586.557 428.933 586.557 434.302C586.505 434.94 586.591 435.583 586.81 436.185C587.029 436.787 587.376 437.334 587.826 437.79C588.277 438.246 588.82 438.599 589.419 438.826C590.019 439.052 590.66 439.146 591.299 439.102C592.76 439.141 594.195 438.713 595.397 437.881C596.598 437.049 597.503 435.856 597.981 434.475C598.159 433.96 598.256 433.42 598.267 432.875V428.076Z" fill="#232320"/>
<path d="M635.051 414.539C634.937 416.539 634.822 418.766 634.822 422.139V438.186C634.822 444.526 633.566 448.411 630.882 450.81C628.197 453.323 624.313 454.123 620.828 454.123C617.515 454.123 613.86 453.323 611.628 451.838L612.885 448.011C615.339 449.463 618.145 450.213 620.996 450.181C626.137 450.181 629.906 447.497 629.906 440.528V437.444H629.792C628.866 438.925 627.563 440.134 626.017 440.946C624.471 441.759 622.737 442.147 620.992 442.07C614.138 442.07 609.225 436.244 609.225 428.59C609.225 419.223 615.337 413.911 621.677 413.911C626.477 413.911 629.103 416.423 630.302 418.711H630.417L630.645 414.541L635.051 414.539ZM629.851 425.449C629.884 424.466 629.72 423.487 629.368 422.569C629.015 421.651 628.483 420.813 627.801 420.104C627.12 419.396 626.303 418.831 625.399 418.444C624.495 418.056 623.523 417.854 622.54 417.849C617.74 417.849 614.315 421.904 614.315 428.301C614.315 433.728 617.056 438.24 622.483 438.24C624.039 438.232 625.553 437.729 626.805 436.805C628.057 435.881 628.984 434.584 629.451 433.099C629.723 432.231 629.858 431.325 629.851 430.415V425.449Z" fill="#232320"/>
<path d="M645.959 429.276C646.074 436.076 650.415 438.876 655.441 438.876C658.065 438.958 660.677 438.471 663.095 437.449L663.952 441.049C661.04 442.262 657.905 442.846 654.752 442.763C646.241 442.763 641.152 437.163 641.152 428.825C641.152 420.487 646.065 413.918 654.118 413.918C663.143 413.918 665.542 421.857 665.542 426.941C665.533 427.724 665.476 428.506 665.371 429.282L645.959 429.276ZM660.696 425.676C660.753 422.476 659.382 417.508 653.727 417.508C648.644 417.508 646.416 422.191 646.016 425.676H660.696Z" fill="#232320"/>
<path d="M683.889 422.021C683.889 419.166 683.831 416.821 683.66 414.539H688.115L688.401 419.108H688.515C689.42 417.49 690.749 416.151 692.36 415.235C693.971 414.318 695.801 413.859 697.654 413.908C701.481 413.908 707.422 416.192 707.422 425.674V442.182H702.389V426.248C702.389 421.793 700.733 418.08 695.989 418.08C694.065 418.155 692.247 418.98 690.923 420.378C689.599 421.777 688.875 423.638 688.906 425.563V442.185H683.889V422.021Z" fill="#232320"/>
<path d="M740.603 428.133C740.603 438.357 733.52 442.813 726.837 442.813C719.354 442.813 713.585 437.329 713.585 428.59C713.585 419.337 719.64 413.911 727.294 413.911C735.234 413.911 740.603 419.676 740.603 428.133ZM718.669 428.419C718.669 434.473 722.153 439.043 727.069 439.043C731.869 439.043 735.469 434.53 735.469 428.304C735.469 423.621 733.127 417.68 727.186 417.68C721.245 417.68 718.669 423.164 718.669 428.419Z" fill="#232320"/>
<path d="M752.997 406.599V414.539H760.197V418.366H752.997V433.276C752.997 436.703 753.967 438.645 756.766 438.645C757.748 438.66 758.727 438.544 759.679 438.302L759.908 442.072C758.478 442.573 756.967 442.806 755.453 442.758C754.449 442.818 753.445 442.66 752.508 442.295C751.571 441.931 750.725 441.367 750.026 440.644C748.598 439.159 748.084 436.703 748.084 433.444V418.366H743.8V414.539H748.084V407.913L752.997 406.599Z" fill="#232320"/>
<path d="M778.47 442.185V418.366H774.589V414.539H778.473V413.225C778.473 409.341 779.33 405.799 781.673 403.572C783.501 401.873 785.918 400.952 788.413 401.002C789.879 400.997 791.332 401.268 792.697 401.802L792.011 405.686C791.003 405.244 789.911 405.03 788.811 405.058C784.527 405.058 783.441 408.828 783.441 413.058V414.543H790.124V418.37H783.441V442.189L778.47 442.185Z" fill="#232320"/>
<path d="M818.911 428.133C818.911 438.357 811.828 442.813 805.145 442.813C797.662 442.813 791.893 437.329 791.893 428.59C791.893 419.337 797.948 413.911 805.602 413.911C813.542 413.911 818.911 419.676 818.911 428.133ZM796.977 428.419C796.977 434.473 800.461 439.043 805.377 439.043C810.177 439.043 813.777 434.53 813.777 428.304C813.777 423.621 811.435 417.68 805.495 417.68C799.555 417.68 796.977 423.164 796.977 428.419Z" fill="#232320"/>
<path d="M848.383 434.645C848.383 437.501 848.44 440.014 848.612 442.185H844.156L843.871 437.672H843.756C842.825 439.262 841.488 440.575 839.882 441.478C838.277 442.382 836.46 442.842 834.618 442.813C830.277 442.813 825.079 440.413 825.079 430.704V414.539H830.105V429.847C830.105 435.102 831.705 438.647 836.274 438.647C837.706 438.623 839.099 438.176 840.277 437.363C841.456 436.55 842.369 435.407 842.9 434.077C843.204 433.254 843.359 432.384 843.357 431.507V414.539H848.383V434.645Z" fill="#232320"/>
<path d="M856.722 422.021C856.722 419.166 856.664 416.821 856.493 414.539H860.948L861.234 419.108H861.348C862.253 417.49 863.582 416.151 865.193 415.235C866.804 414.318 868.634 413.859 870.487 413.908C874.314 413.908 880.255 416.192 880.255 425.674V442.182H875.228V426.248C875.228 421.793 873.572 418.08 868.828 418.08C866.904 418.155 865.086 418.98 863.762 420.378C862.438 421.777 861.715 423.638 861.745 425.563V442.185H856.719L856.722 422.021Z" fill="#232320"/>
<path d="M912.297 401.63V435.044C912.297 437.501 912.355 440.299 912.526 442.185H908.013L907.785 437.385H907.671C906.769 439.084 905.407 440.495 903.739 441.454C902.072 442.414 900.168 442.884 898.246 442.811C891.563 442.811 886.422 437.156 886.422 428.759C886.365 419.559 892.077 413.909 898.817 413.909C903.044 413.909 905.9 415.909 907.157 418.135H907.271V401.63H912.297ZM907.271 425.791C907.28 425.08 907.203 424.37 907.042 423.678C906.683 422.023 905.767 420.541 904.447 419.48C903.126 418.42 901.482 417.845 899.788 417.852C894.588 417.852 891.506 422.421 891.506 428.533C891.506 434.133 894.248 438.757 899.674 438.757C901.403 438.751 903.078 438.152 904.419 437.06C905.76 435.968 906.686 434.449 907.042 432.757C907.209 432.046 907.286 431.316 907.271 430.586V425.791Z" fill="#232320"/>
</svg>
