<svg width="924" height="536" viewBox="0 0 924 536" fill="none" xmlns="http://www.w3.org/2000/svg">
<path d="M26.9252 535.979L329.927 534.533L410.694 534.51L437.452 534.501L518.373 534.48L888.069 534.387C888.069 534.387 972.63 434.683 882.304 339.986C788.653 241.803 743.116 321.764 714.329 183.56C641.869 -164.32 -74.539 38.1535 113.37 334.186C181.029 440.779 -19.813 384.122 26.9252 535.979Z" fill="#F2EBE2"/>
<path d="M317.387 445.259L315.04 444.077C314.198 443.654 313.208 443.556 312.287 443.803C311.367 444.051 310.59 444.624 310.129 445.397L302.602 458.038C302.141 458.812 302.034 459.722 302.303 460.569C302.572 461.416 303.196 462.13 304.037 462.554L305.676 463.381C306.517 463.804 307.507 463.903 308.428 463.655C309.349 463.408 310.125 462.834 310.587 462.061L315.583 453.669C315.628 453.594 315.656 453.512 315.666 453.427C315.676 453.342 315.668 453.256 315.642 453.174C315.616 453.092 315.572 453.016 315.514 452.949C315.456 452.882 315.384 452.827 315.302 452.786C315.221 452.745 315.131 452.719 315.039 452.71C314.946 452.701 314.853 452.709 314.764 452.733C314.675 452.757 314.592 452.796 314.519 452.85C314.447 452.904 314.386 452.97 314.342 453.045L309.345 461.436C309.064 461.906 308.592 462.255 308.032 462.405C307.472 462.556 306.87 462.496 306.358 462.239L304.719 461.412C304.208 461.154 303.828 460.72 303.665 460.205C303.501 459.69 303.566 459.136 303.845 458.665L311.373 446.025C311.654 445.554 312.126 445.206 312.686 445.055C313.246 444.904 313.848 444.964 314.361 445.222L316.707 446.403C318.749 447.432 319.414 449.941 318.189 452L305.299 473.647C304.074 475.704 301.415 476.541 299.373 475.513L296.436 474.034C294.393 473.006 293.728 470.495 294.954 468.437L306.27 449.433C306.315 449.358 306.343 449.275 306.353 449.19C306.363 449.105 306.355 449.02 306.329 448.938C306.303 448.856 306.259 448.779 306.201 448.713C306.143 448.646 306.071 448.591 305.989 448.55C305.908 448.509 305.818 448.483 305.726 448.474C305.633 448.464 305.54 448.472 305.451 448.496C305.362 448.52 305.278 448.56 305.206 448.613C305.134 448.667 305.073 448.733 305.029 448.808L293.712 467.812C292.112 470.499 293.029 473.802 295.756 475.174L298.693 476.653C301.42 478.026 304.94 476.957 306.54 474.271L319.431 452.624C321.031 449.934 320.113 446.632 317.387 445.259Z" fill="#C4B694"/>
<path d="M1.56947 532.48H918.764C919.18 532.48 919.58 532.633 919.874 532.903C920.168 533.174 920.334 533.541 920.334 533.924V533.924C920.334 534.306 920.168 534.674 919.874 534.944C919.579 535.215 919.18 535.367 918.763 535.367H1.57016C1.15373 535.367 0.754351 535.215 0.459889 534.944C0.165427 534.674 0 534.306 0 533.924H0C0 533.541 0.165354 533.174 0.459687 532.903C0.754019 532.633 1.15322 532.48 1.56947 532.48V532.48Z" fill="#646460"/>
<path opacity="0.6" d="M238.175 85.3262H564.568C573.351 85.3262 581.774 88.5342 587.984 94.2446C594.194 99.955 597.683 107.7 597.683 115.776V362.626C597.683 370.701 594.194 378.446 587.984 384.156C581.774 389.867 573.351 393.075 564.569 393.075H238.175C229.393 393.075 220.97 389.867 214.76 384.156C208.55 378.446 205.061 370.701 205.061 362.626V115.775C205.061 107.699 208.55 99.9547 214.76 94.2444C220.97 88.5342 229.393 85.3262 238.175 85.3262V85.3262Z" fill="white"/>
<path d="M229.782 85.3262H572.961C579.517 85.3262 585.805 87.7211 590.442 91.9841C595.078 96.2471 597.682 102.029 597.682 108.058V119.475H205.061V108.058C205.061 102.029 207.665 96.2471 212.302 91.9841C216.938 87.7211 223.226 85.3262 229.782 85.3262V85.3262Z" fill="#898989"/>
<path d="M220.938 102.196C220.938 101.388 221.199 100.599 221.686 99.9274C222.174 99.256 222.868 98.7326 223.679 98.4236C224.49 98.1146 225.383 98.0337 226.244 98.1913C227.106 98.3488 227.897 98.7377 228.518 99.3087C229.139 99.8797 229.562 100.607 229.733 101.399C229.904 102.191 229.816 103.012 229.48 103.758C229.144 104.504 228.575 105.142 227.845 105.591C227.115 106.039 226.256 106.279 225.378 106.279C224.201 106.279 223.071 105.849 222.239 105.083C221.406 104.317 220.938 103.279 220.938 102.196V102.196Z" fill="#DBDCDD"/>
<path d="M239.574 102.196C239.574 101.388 239.834 100.599 240.322 99.9274C240.81 99.256 241.504 98.7326 242.315 98.4236C243.126 98.1146 244.019 98.0337 244.88 98.1913C245.741 98.3488 246.533 98.7377 247.154 99.3087C247.774 99.8797 248.197 100.607 248.369 101.399C248.54 102.191 248.452 103.012 248.116 103.758C247.78 104.504 247.211 105.142 246.481 105.591C245.751 106.039 244.892 106.279 244.014 106.279C242.836 106.279 241.707 105.849 240.874 105.083C240.042 104.317 239.574 103.279 239.574 102.196V102.196Z" fill="#DBDCDD"/>
<path d="M258.21 102.196C258.21 101.388 258.471 100.599 258.959 99.9274C259.447 99.256 260.14 98.7326 260.951 98.4236C261.763 98.1146 262.655 98.0337 263.517 98.1913C264.378 98.3488 265.169 98.7377 265.79 99.3087C266.411 99.8797 266.834 100.607 267.005 101.399C267.176 102.191 267.089 103.012 266.753 103.758C266.416 104.504 265.847 105.142 265.117 105.591C264.387 106.039 263.529 106.279 262.65 106.279C261.473 106.279 260.344 105.849 259.511 105.083C258.678 104.317 258.21 103.279 258.21 102.196V102.196Z" fill="#DBDCDD"/>
<path d="M347.471 146.573H236.176V248.908H347.471V146.573Z" fill="#EEE2CC"/>
<path d="M466.259 154.201H377.733C376.617 154.201 375.547 153.793 374.758 153.068C373.97 152.342 373.526 151.359 373.526 150.333C373.526 149.307 373.97 148.323 374.758 147.598C375.547 146.872 376.617 146.465 377.733 146.465H466.259C467.375 146.465 468.445 146.872 469.234 147.598C470.022 148.323 470.466 149.307 470.466 150.333V150.333C470.466 151.359 470.022 152.342 469.234 153.068C468.445 153.793 467.375 154.201 466.259 154.201V154.201Z" fill="#B2B2B2"/>
<path d="M572.121 149.012H483.595C482.479 149.012 481.409 148.605 480.621 147.879C479.832 147.154 479.389 146.17 479.389 145.145V145.145C479.389 144.119 479.832 143.135 480.621 142.41C481.409 141.684 482.479 141.277 483.595 141.277H572.121C573.237 141.277 574.307 141.684 575.096 142.41C575.884 143.135 576.328 144.119 576.328 145.145V145.145C576.328 146.17 575.884 147.154 575.096 147.879C574.307 148.605 573.237 149.012 572.121 149.012V149.012Z" fill="#B2B2B2"/>
<g opacity="0.3">
<path opacity="0.3" d="M483.782 183.973H376.253C375.53 183.973 374.836 183.709 374.325 183.239C373.813 182.769 373.526 182.131 373.526 181.466V181.466C373.526 181.137 373.597 180.81 373.734 180.506C373.871 180.202 374.072 179.926 374.325 179.693C374.578 179.46 374.879 179.276 375.209 179.15C375.54 179.024 375.895 178.959 376.253 178.959H483.782C484.14 178.959 484.495 179.024 484.826 179.15C485.157 179.276 485.457 179.46 485.71 179.693C485.964 179.926 486.165 180.202 486.302 180.506C486.439 180.81 486.509 181.137 486.509 181.466C486.509 181.795 486.439 182.121 486.302 182.425C486.165 182.73 485.964 183.006 485.711 183.239C485.457 183.472 485.157 183.656 484.826 183.782C484.495 183.908 484.141 183.973 483.782 183.973Z" fill="#DBDCDD"/>
<path opacity="0.3" d="M524.664 183.973H496.279C495.556 183.973 494.862 183.709 494.351 183.239C493.84 182.769 493.552 182.131 493.552 181.466V181.466C493.552 181.137 493.623 180.81 493.76 180.506C493.897 180.202 494.098 179.926 494.351 179.693C494.604 179.46 494.905 179.276 495.236 179.15C495.566 179.024 495.921 178.959 496.279 178.959H524.664C525.387 178.959 526.08 179.223 526.591 179.693C527.103 180.164 527.39 180.801 527.39 181.466V181.466C527.39 181.795 527.319 182.121 527.182 182.425C527.046 182.729 526.845 183.006 526.592 183.239C526.339 183.471 526.038 183.656 525.707 183.782C525.377 183.908 525.022 183.973 524.664 183.973V183.973Z" fill="#DBDCDD"/>
<path opacity="0.3" d="M416.825 199.52H376.252C375.529 199.52 374.836 199.256 374.324 198.786C373.813 198.316 373.526 197.678 373.526 197.013V197.013C373.526 196.684 373.596 196.358 373.733 196.054C373.87 195.75 374.071 195.473 374.324 195.241C374.578 195.008 374.878 194.823 375.209 194.697C375.54 194.572 375.894 194.507 376.252 194.507H416.825C417.183 194.507 417.537 194.572 417.868 194.697C418.199 194.823 418.5 195.008 418.753 195.241C419.006 195.473 419.207 195.75 419.344 196.054C419.481 196.358 419.552 196.684 419.552 197.013C419.552 197.342 419.481 197.668 419.344 197.973C419.207 198.277 419.006 198.553 418.753 198.786C418.5 199.019 418.199 199.203 417.868 199.329C417.538 199.455 417.183 199.52 416.825 199.52Z" fill="#DBDCDD"/>
<path opacity="0.3" d="M482.541 199.52H426.946C426.588 199.52 426.233 199.455 425.902 199.329C425.572 199.203 425.271 199.019 425.018 198.786C424.765 198.553 424.564 198.277 424.427 197.972C424.29 197.668 424.22 197.342 424.22 197.013V197.013C424.22 196.348 424.507 195.711 425.018 195.241C425.529 194.771 426.223 194.507 426.946 194.507H482.541C483.264 194.507 483.957 194.771 484.468 195.241C484.979 195.711 485.267 196.348 485.267 197.013C485.267 197.342 485.196 197.668 485.059 197.972C484.922 198.277 484.722 198.553 484.468 198.786C484.215 199.019 483.915 199.203 483.584 199.329C483.253 199.455 482.899 199.52 482.541 199.52V199.52Z" fill="#DBDCDD"/>
<path opacity="0.3" d="M524.664 199.52H496.279C495.556 199.52 494.862 199.256 494.351 198.786C493.84 198.316 493.552 197.678 493.552 197.013V197.013C493.552 196.684 493.623 196.358 493.76 196.054C493.897 195.75 494.098 195.473 494.351 195.241C494.604 195.008 494.905 194.823 495.236 194.697C495.566 194.572 495.921 194.507 496.279 194.507H524.664C525.387 194.507 526.08 194.771 526.591 195.241C527.103 195.711 527.39 196.349 527.39 197.013V197.013C527.39 197.342 527.319 197.668 527.182 197.972C527.046 198.276 526.845 198.553 526.592 198.786C526.339 199.018 526.038 199.203 525.707 199.329C525.377 199.455 525.022 199.52 524.664 199.52V199.52Z" fill="#DBDCDD"/>
<path opacity="0.3" d="M431.302 212.962H376.25C375.527 212.962 374.833 212.698 374.322 212.228C373.81 211.758 373.523 211.12 373.523 210.455V210.455C373.523 210.126 373.594 209.8 373.731 209.496C373.868 209.192 374.069 208.915 374.322 208.683C374.575 208.45 374.876 208.265 375.206 208.139C375.537 208.013 375.892 207.949 376.25 207.949H431.302C432.025 207.949 432.719 208.213 433.23 208.683C433.741 209.153 434.028 209.79 434.028 210.455V210.455C434.028 210.784 433.958 211.11 433.821 211.414C433.684 211.718 433.483 211.995 433.23 212.228C432.977 212.46 432.676 212.645 432.346 212.771C432.015 212.897 431.66 212.962 431.302 212.962V212.962Z" fill="#DBDCDD"/>
<path opacity="0.3" d="M536.432 212.962H446.393C446.035 212.962 445.68 212.897 445.35 212.771C445.019 212.645 444.718 212.46 444.465 212.228C444.212 211.995 444.011 211.718 443.874 211.414C443.737 211.11 443.667 210.784 443.667 210.455V210.455C443.667 209.79 443.954 209.153 444.465 208.683C444.977 208.213 445.67 207.949 446.393 207.949H536.432C537.155 207.949 537.848 208.213 538.359 208.683C538.87 209.153 539.158 209.79 539.158 210.455V210.455C539.158 210.784 539.087 211.11 538.95 211.414C538.813 211.718 538.612 211.995 538.359 212.228C538.106 212.46 537.806 212.645 537.475 212.771C537.144 212.897 536.79 212.962 536.432 212.962V212.962Z" fill="#DBDCDD"/>
</g>
<g opacity="0.3">
<path opacity="0.3" d="M483.783 233.36H376.253C375.53 233.36 374.837 233.096 374.326 232.626C373.814 232.155 373.527 231.518 373.527 230.853V230.853C373.527 230.188 373.814 229.55 374.325 229.08C374.837 228.609 375.53 228.345 376.253 228.345H483.783C484.141 228.345 484.496 228.41 484.827 228.536C485.158 228.662 485.458 228.847 485.711 229.08C485.965 229.312 486.165 229.589 486.302 229.893C486.439 230.197 486.51 230.523 486.51 230.853C486.51 231.182 486.439 231.508 486.302 231.812C486.165 232.117 485.964 232.393 485.711 232.626C485.458 232.859 485.157 233.043 484.827 233.169C484.496 233.295 484.141 233.36 483.783 233.36V233.36Z" fill="#DBDCDD"/>
<path opacity="0.3" d="M524.664 233.36H496.279C495.556 233.36 494.863 233.096 494.351 232.626C493.84 232.155 493.553 231.518 493.552 230.853V230.853C493.552 230.188 493.84 229.55 494.351 229.08C494.862 228.609 495.556 228.345 496.279 228.345H524.664C525.022 228.345 525.377 228.41 525.707 228.536C526.038 228.662 526.339 228.847 526.592 229.08C526.845 229.313 527.046 229.589 527.182 229.893C527.319 230.198 527.39 230.524 527.39 230.853V230.853C527.39 231.518 527.103 232.155 526.591 232.625C526.08 233.095 525.387 233.36 524.664 233.36V233.36Z" fill="#DBDCDD"/>
<path opacity="0.3" d="M416.825 248.908H376.252C375.529 248.908 374.836 248.644 374.325 248.174C373.813 247.704 373.526 247.067 373.526 246.402V246.402C373.526 245.737 373.813 245.099 374.324 244.629C374.836 244.159 375.529 243.895 376.252 243.895H416.825C417.183 243.894 417.538 243.959 417.868 244.085C418.199 244.211 418.5 244.396 418.753 244.629C419.006 244.862 419.207 245.138 419.344 245.442C419.481 245.746 419.552 246.072 419.552 246.402C419.552 246.731 419.481 247.057 419.344 247.361C419.207 247.665 419.006 247.942 418.753 248.174C418.5 248.407 418.199 248.592 417.868 248.718C417.537 248.844 417.183 248.908 416.825 248.908V248.908Z" fill="#DBDCDD"/>
<path opacity="0.3" d="M482.541 248.908H426.946C426.223 248.908 425.529 248.644 425.018 248.174C424.507 247.704 424.22 247.066 424.22 246.402C424.22 246.072 424.29 245.746 424.427 245.442C424.564 245.138 424.765 244.862 425.018 244.629C425.271 244.396 425.572 244.211 425.902 244.085C426.233 243.959 426.588 243.895 426.946 243.895H482.541C482.899 243.895 483.253 243.959 483.584 244.085C483.915 244.211 484.215 244.396 484.468 244.629C484.722 244.862 484.922 245.138 485.059 245.442C485.196 245.746 485.267 246.072 485.267 246.402V246.402C485.267 247.066 484.979 247.704 484.468 248.174C483.957 248.644 483.264 248.908 482.541 248.908Z" fill="#DBDCDD"/>
</g>
<path d="M236.176 269.522V302.629H298.347V269.522H236.176Z" fill="#AE9A73"/>
<path d="M344.154 275.769H309.948C309.26 275.769 308.601 275.518 308.115 275.071C307.629 274.624 307.356 274.018 307.356 273.386V273.386C307.356 272.754 307.629 272.148 308.115 271.701C308.601 271.254 309.26 271.003 309.948 271.003H344.154C344.842 271.003 345.501 271.254 345.987 271.701C346.473 272.148 346.746 272.754 346.746 273.386V273.386C346.746 274.018 346.473 274.624 345.987 275.071C345.501 275.518 344.842 275.769 344.154 275.769V275.769Z" fill="#DBDCDD"/>
<path d="M332.63 284.171H309.947C309.259 284.171 308.6 283.92 308.114 283.473C307.628 283.026 307.355 282.42 307.355 281.787V281.787C307.355 281.155 307.628 280.549 308.114 280.102C308.6 279.655 309.259 279.404 309.947 279.404H332.63C333.317 279.404 333.976 279.655 334.462 280.102C334.948 280.549 335.222 281.155 335.222 281.787V281.787C335.222 282.42 334.948 283.026 334.462 283.473C333.976 283.92 333.317 284.171 332.63 284.171V284.171Z" fill="#DBDCDD"/>
<path d="M236.176 326.583V359.692H298.347V326.583H236.176Z" fill="#EEE2CC"/>
<path d="M344.154 332.832H309.948C309.26 332.832 308.601 332.581 308.115 332.134C307.629 331.687 307.356 331.08 307.356 330.448V330.448C307.356 329.816 307.629 329.21 308.115 328.763C308.601 328.316 309.26 328.065 309.948 328.065H344.154C344.842 328.065 345.501 328.316 345.987 328.763C346.473 329.21 346.746 329.816 346.746 330.448V330.448C346.746 331.08 346.473 331.687 345.987 332.134C345.501 332.581 344.842 332.832 344.154 332.832V332.832Z" fill="#DBDCDD"/>
<path d="M332.63 341.232H309.947C309.259 341.232 308.6 340.981 308.114 340.534C307.628 340.087 307.355 339.481 307.355 338.849V338.849C307.355 338.217 307.628 337.61 308.114 337.163C308.6 336.716 309.259 336.465 309.947 336.465H332.63C333.317 336.465 333.976 336.716 334.462 337.163C334.948 337.61 335.222 338.217 335.222 338.849V338.849C335.222 339.481 334.948 340.087 334.462 340.534C333.976 340.981 333.317 341.232 332.63 341.232V341.232Z" fill="#DBDCDD"/>
<path d="M601.648 113.196C601.648 113.196 603.266 130.941 598.869 130.672C594.473 130.403 585.792 122.595 568.274 123.862C550.756 125.13 529.323 128.657 516.366 107.576C503.409 86.4941 532.937 80.4258 532.937 80.4258L601.649 113.197L601.648 113.196Z" fill="#232320"/>
<path d="M564.408 111.897L652.68 118.572L654.515 114.961L569.887 57.5213L484.401 48.3379L482.759 51.5688L564.408 111.897V111.897Z" fill="#5B5B57"/>
<path d="M623.225 176.415C623.7 176.092 624.076 175.662 624.317 175.166C624.557 174.67 624.653 174.125 624.596 173.584C624.539 173.044 624.33 172.526 623.99 172.082C623.65 171.638 623.19 171.282 622.656 171.05L622.052 109.848L621.595 109.534L575.487 78.1719L573.831 80.2332L619.48 111.282L620.448 170.82C620.379 170.833 620.31 170.845 620.244 170.863C619.639 171.022 619.093 171.332 618.667 171.758C618.241 172.184 617.952 172.71 617.83 173.278C617.708 173.846 617.76 174.434 617.978 174.977C618.197 175.52 618.574 175.997 619.069 176.355C615.769 183.415 615.408 203.242 615.408 203.242C616.754 204.111 620.637 203.987 620.637 203.987L620.747 199.793C620.747 199.793 621.326 203.793 622.461 204.028C623.596 204.262 625.905 203.265 625.905 203.265C625.905 203.265 625.354 183.528 623.225 176.415Z" fill="#C9B99A"/>
<path d="M488.26 412.138H674.873C684.533 412.138 693.798 415.667 700.63 421.948C707.461 428.229 711.298 436.748 711.298 445.632V445.632C711.298 454.716 707.374 463.429 700.387 469.853C693.401 476.277 683.926 479.885 674.046 479.885H488.26V412.138Z" fill="#FCECDB"/>
<path d="M877.648 440.011V450.203C877.668 455.416 876.261 460.55 873.558 465.133C868.333 473.955 858.618 479.883 847.488 479.883H482.287C481.087 479.844 479.952 479.37 479.132 478.564C478.312 477.757 477.873 476.684 477.912 475.581V474.054C477.874 472.951 478.312 471.878 479.132 471.072C479.952 470.266 481.087 469.791 482.287 469.753H704.911C706.113 468.309 707.159 466.762 708.036 465.132C710.196 461.104 711.312 456.671 711.298 452.18V439.224C711.302 436.901 711 434.586 710.399 432.329C709.433 428.691 707.677 425.269 705.237 422.269H482.287C481.086 422.231 479.951 421.756 479.131 420.948C478.311 420.141 477.873 419.068 477.912 417.964V416.442C477.873 415.338 478.311 414.264 479.131 413.457C479.951 412.65 481.086 412.174 482.287 412.136H849.327C862.262 412.136 873.17 420.669 876.557 432.329C877.285 434.835 877.652 437.418 877.648 440.011V440.011Z" fill="#C4B694"/>
<path d="M876.557 432.33H710.397C709.431 428.691 707.675 425.27 705.235 422.27H482.287C481.086 422.232 479.951 421.757 479.131 420.949C478.311 420.142 477.873 419.069 477.912 417.965V416.443C477.873 415.338 478.311 414.265 479.131 413.458C479.951 412.65 481.086 412.175 482.287 412.137H849.327C862.261 412.137 873.172 420.669 876.557 432.33Z" fill="#AE9A73"/>
<path d="M488.26 446.011L515.301 447.15L488.26 447.836V446.011Z" fill="#F4D2B8"/>
<path d="M488.26 456.641L552.593 457.78L488.26 458.466V456.641Z" fill="#F4D2B8"/>
<path d="M650.286 532.438H461.978C454.14 532.438 446.623 529.574 441.08 524.478C435.537 519.381 432.423 512.469 432.423 505.261C432.423 498.493 435.347 492.002 440.552 487.217C445.757 482.431 452.816 479.742 460.177 479.742H650.286V532.438Z" fill="#5B5B57"/>
<path d="M858.072 532.438H643.238C635.553 532.438 628.183 529.63 622.749 524.634C617.315 519.637 614.263 512.861 614.263 505.794C614.263 498.885 617.248 492.258 622.561 487.373C627.874 482.487 635.081 479.742 642.595 479.742H858.072V532.438Z" fill="#FCECDB"/>
<path d="M600.227 532.438H865.096C867.463 532.438 869.382 530.673 869.382 528.497C869.382 526.32 867.463 524.556 865.096 524.556H600.227C597.86 524.556 595.941 526.32 595.941 528.497C595.941 530.673 597.86 532.438 600.227 532.438Z" fill="#5B5B57"/>
<path d="M600.227 487.623L865.096 487.623C867.463 487.623 869.382 485.858 869.382 483.682C869.382 481.506 867.463 479.742 865.096 479.742L600.227 479.742C597.86 479.742 595.941 481.506 595.941 483.682C595.941 485.858 597.86 487.623 600.227 487.623Z" fill="#5B5B57"/>
<path d="M858.073 506.092L828.514 506.978L858.073 507.512V506.092Z" fill="#F4D2B8"/>
<path d="M858.073 493.963L787.75 494.848L858.073 495.382V493.963Z" fill="#F4D2B8"/>
<path d="M788.473 494.673C790.419 496.264 791.814 498.345 792.485 500.658C792.67 501.34 792.775 502.038 792.798 502.741C792.964 507.685 792.798 518.875 792.798 518.875L801.695 513.279L810.57 518.875V503.709C810.57 500.84 809.809 498.048 808.394 496.224C807.71 495.339 806.877 494.673 805.937 494.673H788.473Z" fill="#C4B694"/>
<path d="M788.473 494.673C790.419 496.264 791.814 498.345 792.485 500.658L810.315 500.879C810.315 500.879 809.616 495.551 805.936 494.673H788.473Z" fill="#AE9A73"/>
<path d="M439.329 334.859H615.851C626.892 334.859 637.48 338.892 645.286 346.07C653.093 353.249 657.479 362.984 657.479 373.136V373.136C657.479 378.277 656.378 383.367 654.238 388.116C652.099 392.865 648.963 397.181 645.01 400.816C641.057 404.45 636.364 407.334 631.199 409.301C626.034 411.268 620.498 412.281 614.907 412.281H439.329V334.859Z" fill="#FCECDB"/>
<path d="M657.584 364.9V381.564C657.538 388.68 653.951 394.857 648.679 398.156C646.098 399.799 643.037 400.685 639.898 400.7H433.588C431.167 400.7 429.211 402.853 429.211 405.507V407.473C429.211 410.128 431.171 412.282 433.588 412.282H789.992C800.219 412.282 809.256 406.699 814.715 398.154C818.342 392.373 820.228 385.807 820.179 379.133V365.986C820.196 361.35 819.241 356.754 817.365 352.451C812.781 342.041 803.075 334.862 791.837 334.862H433.588C431.167 334.862 429.211 337.011 429.211 339.666V341.632C429.211 344.287 431.171 346.44 433.588 346.44H640.529C645.475 346.44 649.952 348.752 653.079 352.451C656.025 356.034 657.608 360.408 657.584 364.9V364.9Z" fill="#898989"/>
<path d="M429.211 405.507V407.473C429.211 410.128 431.171 412.282 433.588 412.282H789.992C800.219 412.282 809.256 406.699 814.715 398.153H648.679C646.098 399.796 643.037 400.683 639.898 400.697H433.588C431.171 400.699 429.211 402.852 429.211 405.507Z" fill="#5B5B57"/>
<path d="M439.33 373.57L465.778 374.871L439.33 375.655V373.57Z" fill="#F4D2B8"/>
<path d="M439.33 355.752L502.251 357.054L439.33 357.837V355.752Z" fill="#F4D2B8"/>
<path d="M501.603 356.796C501.603 356.796 497.453 359.251 496.075 363.283C495.822 364.014 495.677 364.774 495.644 365.54C495.415 370.902 495.644 383.037 495.644 383.037L483.384 376.969L471.157 383.037V366.591C471.157 363.48 472.206 360.455 474.154 358.475C474.56 357.992 475.071 357.593 475.655 357.304C476.238 357.014 476.882 356.84 477.543 356.793L501.603 356.796Z" fill="#C4B694"/>
<path d="M501.603 356.795C501.603 356.795 497.453 359.25 496.075 363.282L471.507 363.522C471.507 363.522 472.471 357.745 477.541 356.792L501.603 356.795Z" fill="#AE9A73"/>
<path d="M337.656 500.721L337.649 532.983L514.141 533.014L514.148 500.752L337.656 500.721Z" fill="#C4B694"/>
<path d="M337.649 532.981L311.71 522.778L296.623 516.844L312.066 510.775L337.659 500.718C337.659 500.718 341.074 508.574 341.125 515.961C341.204 527.557 337.649 532.981 337.649 532.981Z" fill="#FCECDB"/>
<path d="M534.664 511.459V521.657C534.663 523.149 534.344 524.626 533.723 526.004C533.102 527.382 532.191 528.634 531.044 529.689C529.896 530.744 528.534 531.58 527.035 532.151C525.536 532.721 523.93 533.015 522.307 533.015H514.145L514.152 500.754H523.031C526.117 500.756 529.076 501.885 531.258 503.892C533.439 505.899 534.664 508.621 534.664 511.459V511.459Z" fill="#FCECDB"/>
<path d="M312.065 510.775C312.707 514.034 313.266 519.029 311.709 522.777L296.622 516.844L312.065 510.775Z" fill="#232320"/>
<path d="M650.836 398.697C656.992 408.71 664.798 412.609 664.798 412.609L697.403 412.821C697.403 412.821 646.14 391.059 650.836 398.697Z" fill="#232320"/>
<path d="M675.285 476.015C675.672 476.412 675.927 476.903 676.018 477.429C676.109 477.955 676.033 478.495 675.8 478.983C675.799 478.988 675.796 478.994 675.791 478.997C674.998 480.969 672.412 483.158 669.411 485.342C669.028 485.624 668.686 485.878 668.389 486.115C668.311 486.179 668.232 486.239 668.159 486.302C668.098 486.35 668.04 486.4 667.982 486.446C665.181 488.787 666.224 489.334 661.188 494.089C655.447 499.506 651.52 499.579 650.407 499.074C649.465 498.645 651.407 495.767 653.559 492.527C653.663 492.371 653.766 492.213 653.872 492.055C654.158 491.625 654.443 491.188 654.728 490.755C657.25 486.858 656.624 485.018 656.079 479.191C655.634 474.455 648.275 452.701 648.275 452.701L659.213 451.042C659.213 451.042 662.37 468.346 665.974 471.032C667.902 472.463 670.072 472.494 671.926 473.559C672.057 473.632 672.186 473.708 672.311 473.786C673.407 474.403 674.407 475.153 675.285 476.015V476.015Z" fill="#FFB27D"/>
<path d="M675.285 476.015C675.672 476.412 675.926 476.903 676.018 477.429C676.109 477.955 676.033 478.495 675.8 478.983C675.799 478.988 675.796 478.994 675.791 478.997C674.822 480.965 672.302 483.144 669.401 485.322C669.022 485.607 668.687 485.87 668.389 486.114C668.311 486.178 668.233 486.238 668.159 486.301C668.098 486.349 668.04 486.399 667.982 486.445C665.181 488.786 666.224 489.333 661.188 494.087C655.447 499.504 651.52 499.577 650.407 499.073C649.465 498.643 651.407 495.766 653.558 492.526C657.557 491.12 661.081 488.767 663.773 485.707C667.236 481.7 669.566 476.541 671.926 473.559C672.057 473.632 672.186 473.708 672.312 473.786C673.407 474.404 674.407 475.153 675.285 476.015V476.015Z" fill="#5B5B57"/>
<path d="M587.243 469.169C586.544 472.266 581.742 471.717 576.383 470.475C571.024 469.234 572.287 470.676 564.65 469.849C557.013 469.021 554.718 466.386 554.493 465.339C554.291 464.411 558.07 464.108 562.124 463.705C562.634 463.656 563.146 463.602 563.658 463.546C568.236 463.048 571.606 460.357 575.778 458.155C579.729 456.069 585.669 447.507 585.669 447.507L596.145 448.338C596.145 448.338 590.586 455.984 588.433 459.311C587.167 461.267 587.213 463.865 587.353 465.872C587.477 466.97 587.439 468.079 587.243 469.169Z" fill="#FFB27D"/>
<path d="M576.381 470.476C571.02 469.234 572.285 470.677 564.648 469.849C557.011 469.021 554.715 466.387 554.491 465.34C554.289 464.411 558.068 464.108 562.122 463.706L562.16 463.777C565.419 465.731 569.193 466.837 573.081 466.977C578.269 467.127 583.769 465.796 587.349 465.873C587.474 466.972 587.439 468.08 587.243 469.17C586.545 472.266 581.745 471.717 576.381 470.476Z" fill="#5B5B57"/>
<path d="M627.885 407.801L637.499 432.109L650.05 463.847C652.332 464.018 654.63 463.84 656.85 463.319C659.171 462.609 661.386 461.635 663.445 460.42C663.445 460.42 660.153 426.408 653.677 406.853C652.017 401.834 650.145 397.77 648.062 395.476C637.876 384.248 627.885 407.801 627.885 407.801Z" fill="#232320"/>
<path d="M638.143 369.362C644.576 367.5 662.868 370.062 681.236 373.496L685.131 367.681L724.879 365.086C724.879 365.086 737.783 391.902 730.476 408.888C729.402 411.384 726.783 412.423 723.209 412.453L723.205 412.457C723.205 412.457 699.495 412.839 691.818 412.786C672.062 412.659 650.102 400.027 647.253 399.484C642.59 398.593 640.656 407.17 635.917 416.157C631.178 425.144 591.713 455.807 591.713 455.807C591.713 455.807 585.684 455.823 583.2 454.947C580.528 454.007 579.558 452.801 579.558 452.801C579.558 452.801 623.633 373.563 638.143 369.362Z" fill="#232320"/>
<path d="M685.752 317.374C699.843 324.625 728.43 339.662 728.578 339.567C728.578 339.567 739.098 343.29 745.11 339.674C755.131 333.648 760.604 317.291 742.473 303.066C733.431 295.972 726.979 294.217 726.085 282.977C725.601 276.879 716.693 256.707 701.625 258.469C700.368 258.634 699.098 258.702 697.829 258.674C695.147 258.58 692.493 259.192 690.177 260.438C681.618 265.045 664.564 314.464 685.752 317.374Z" fill="#232320"/>
<path d="M697.653 311.355C697.591 311.392 704.597 313.645 709.307 311.76C713.739 309.994 717.136 303.332 717.071 303.328C715.065 303.23 712.868 301.6 711.251 290.989L710.392 291.266L695.968 295.933C695.968 295.933 696.978 300.185 697.621 304.231C698.164 307.625 698.443 310.881 697.653 311.355Z" fill="#FFB27D"/>
<path d="M695.969 295.933C695.969 295.933 696.584 298.912 697.437 303.171C705.711 301.857 709.196 295.366 710.393 291.265L695.969 295.933Z" fill="#ED975D"/>
<path d="M693.794 300.132C693.794 300.132 713.497 297.831 711.749 286.57C710 275.309 711.367 267.425 698.713 268.422C686.059 269.418 684.287 274.032 683.876 277.921C683.465 281.81 688.622 300.441 693.794 300.132Z" fill="#FFB27D"/>
<path d="M684.641 271.759C684.641 271.759 697.166 281.827 705.731 282.687C714.296 283.548 717.559 281.039 717.559 281.039C714.159 278.202 711.431 274.753 709.544 270.905C709.114 270 708.429 269.217 707.56 268.637C706.691 268.056 705.669 267.7 704.6 267.605C698.485 267.08 686.884 266.783 684.641 271.759Z" fill="#232320"/>
<path d="M692.525 270.916C692.525 270.916 688.281 274.637 686.932 277.408C685.63 280.083 685.196 286.497 686.197 289.052C686.197 289.052 679.719 277.265 683.482 271.583C687.471 265.559 692.525 270.916 692.525 270.916Z" fill="#232320"/>
<path d="M680.873 337.91C681.187 374.554 680.815 366.895 685.146 370.4C686.19 371.244 689.138 371.762 693.023 372.023C705.236 372.85 726.729 371.136 727.562 369.066C730.435 361.9 728.461 359.653 730.898 348.672C731.152 347.503 731.465 346.239 731.832 344.863C733.851 337.321 735.778 334.763 728.916 322.583C722.691 311.548 716.209 302.583 715.617 302.902C698.906 311.877 697.622 304.234 697.622 304.234C697.622 304.234 680.718 320.037 680.873 337.91Z" fill="#F9DDBF"/>
<path d="M637.498 432.109L650.048 463.847C652.331 464.018 654.629 463.84 656.848 463.319C659.169 462.609 661.385 461.635 663.444 460.421C663.444 460.421 660.153 426.408 653.676 406.853L637.498 432.109Z" fill="#232320"/>
<path d="M697.621 304.228C697.621 304.228 680.478 306.787 678.415 313.553C676.352 320.319 664.214 360.095 664.214 360.095C664.214 360.095 672.908 361.59 676.958 357.918C681.007 354.246 691.214 323.7 691.214 323.7L697.621 304.228Z" fill="#F9DDBF"/>
<path d="M693.023 372.023C705.236 372.85 726.729 371.136 727.562 369.065C730.435 361.899 728.461 359.652 730.898 348.671L725.121 333.374C725.121 333.374 725.965 350.371 720.481 354.808C714.998 359.244 698.102 363.29 695.425 367.007C694.264 368.513 693.447 370.219 693.023 372.023Z" fill="#F2CCAA"/>
<path d="M707.078 364.968C707.078 364.968 695.042 362.424 693.089 363.392C691.137 364.361 686.356 367.915 685.751 369.158C685.147 370.402 690.089 368.24 691.694 367.855C692.732 367.606 695.458 368.496 696.806 368.919C702.483 370.7 705.975 369.825 705.975 369.825L707.078 364.968Z" fill="#FFB27D"/>
<path d="M715.626 302.893C715.626 302.893 731.805 303.915 737.353 311.137C745.163 321.303 760.479 364.514 751.464 370.206C741.316 376.615 705.49 371.601 705.49 371.601C705.49 371.601 704.336 366.464 706.016 363.994C707.696 361.525 734.709 357.691 735.967 356.553C737.224 355.415 720.571 334.122 720.597 330.687C720.623 327.252 715.626 302.893 715.626 302.893Z" fill="#F9DDBF"/>
<path d="M692.482 366.474C692.482 366.474 689.933 369.453 689.102 369.805C688.684 370.01 688.21 370.101 687.738 370.065L689.461 367.259L692.482 366.474Z" fill="#FFB27D"/>
<path d="M693.089 363.393L685.721 366.625C685.863 366.789 686.051 366.916 686.263 366.993C686.476 367.071 686.708 367.095 686.934 367.064C688.022 366.896 689.09 366.633 690.125 366.28L693.089 363.393Z" fill="#FFB27D"/>
<path d="M690.674 374.641L632.586 374.263L615.418 334.194L673.417 334.571L690.674 374.641Z" fill="#C4B694"/>
<path d="M631.917 372.701L708.622 373.199L708.61 374.756L632.586 374.263L631.917 372.701Z" fill="#AE9A73"/>
<path d="M647.403 354.381C647.278 354.092 647.234 353.778 647.276 353.469C647.318 353.16 647.444 352.866 647.643 352.614C647.842 352.361 648.106 352.159 648.413 352.026C648.719 351.893 649.057 351.833 649.395 351.852C650.198 351.898 650.967 352.168 651.6 352.627C652.232 353.085 652.698 353.71 652.934 354.418C653.059 354.707 653.102 355.021 653.06 355.33C653.018 355.639 652.892 355.933 652.694 356.185C652.495 356.438 652.23 356.64 651.924 356.773C651.618 356.906 651.28 356.966 650.942 356.947C650.138 356.901 649.369 356.63 648.737 356.172C648.105 355.713 647.639 355.089 647.403 354.381Z" fill="white"/>
<path d="M375.595 332.747C375.595 332.747 378.757 345.359 387.973 345.359C395.871 345.359 406.707 328.942 406.707 328.942L375.595 332.747Z" fill="#C4B694"/>
<path d="M481.394 519.042L475.474 522.785C475.474 522.785 447 494.878 440.128 468.127C438.874 463.57 438.47 458.852 438.931 454.171C438.931 454.171 438.516 452.962 437.788 450.817C437.756 450.724 437.723 450.626 437.691 450.531C437.373 449.591 436.991 448.486 436.567 447.234C435.183 443.192 433.29 437.66 431.129 431.362C426.153 416.87 414.771 384.186 409.907 370.59L444.864 358.96C444.864 358.96 448.834 367.286 454.54 389.915C455.418 392.869 456.3 396.135 457.121 399.693C458.054 403.724 458.923 408.131 459.648 412.892C461.005 421.87 461.705 430.922 461.744 439.986C461.763 444.035 461.655 448.234 461.394 452.565C461.203 455.742 461.716 459.975 462.679 464.79C467.08 486.807 481.394 519.042 481.394 519.042Z" fill="#5B5B57"/>
<path d="M500.019 532.488H471.757C471.757 532.488 470.701 528.344 472.556 525.523C474.199 523.028 473.569 521.606 472.353 519.544C473.852 520.142 475.478 520.425 477.112 520.371C478.607 520.216 480.044 519.751 481.315 519.012C482.531 520.284 487.739 525.715 489.367 526.79C491.214 528.006 499.449 527.571 500.019 532.488Z" fill="#232320"/>
<path d="M459.644 412.892L437.687 450.532C437.369 449.592 436.987 448.487 436.563 447.235C435.18 443.193 433.287 437.661 431.126 431.363C426.15 416.871 414.767 384.187 409.904 370.591L444.86 358.961C444.86 358.961 448.831 367.287 454.536 389.916C455.415 392.87 456.296 396.136 457.118 399.694C458.053 403.724 458.92 408.131 459.644 412.892Z" fill="#232320"/>
<path d="M409.333 524.355C409.333 524.355 407.377 528.768 409.219 532.489H424.591C424.591 532.489 424.91 529.134 419.334 525.242C415.109 522.295 409.333 524.355 409.333 524.355Z" fill="#232320"/>
<path d="M426.065 237.031C426.075 236.328 426.468 228.74 439.004 228.067C439.004 228.067 432.852 228.88 431.851 231.398C431.851 231.398 435.971 228.223 439.418 229.138C442.866 230.053 445.021 235.52 445.09 237.333C445.16 239.145 443.411 245.028 441.252 245.576C440.389 245.758 439.496 245.78 438.624 245.64C439.267 246.517 439.854 247.428 440.381 248.368C445.638 257.707 441.103 268.708 436.838 267.782C434.102 267.188 432.439 271.547 432.439 271.547L406.132 250.745C406.132 250.745 415.345 232.07 426.065 237.031Z" fill="#5B5B57"/>
<path d="M409.528 300.241C412.912 302.34 416.702 303.823 420.694 304.609C437.904 308.266 444.5 294.891 446.978 285.71C445.18 284.794 443.194 284.233 441.147 284.062C439.902 283.928 438.595 283.839 437.512 283.789C435.579 282.428 432.699 276.856 432.062 268.207L431.253 268.406L417.689 271.82C417.689 271.82 418.311 275.785 418.615 279.531C418.85 282.464 418.887 285.266 418.283 285.952C417.225 286.163 416.59 286.301 416.59 286.301C416.588 286.305 416.586 286.309 416.583 286.313C413.752 290.737 411.39 295.401 409.528 300.241Z" fill="#FFB27D"/>
<path d="M417.686 271.822C417.686 271.822 418.309 275.783 418.612 279.534C426.297 278.827 429.863 272.099 431.251 268.409L417.686 271.822Z" fill="#ED985F"/>
<path d="M417.529 277.773C417.529 277.773 435.221 273.593 432.221 263.501C429.22 253.41 429.482 246.075 418.059 248.317C406.636 250.56 405.595 254.96 405.706 258.552C405.817 262.144 412.849 278.601 417.529 277.773Z" fill="#FFB27D"/>
<path d="M404.555 252.81C406.371 249.088 408.628 249.235 410.052 249.856C418.226 242.558 426.578 248.187 426.578 248.187C428.676 252.401 432.301 255.813 436.833 257.84C436.833 257.84 434.167 260.475 426.244 260.593C423.823 260.63 421.364 259.662 419.113 258.304C421.942 260.741 425.119 262.813 428.557 264.46C418.596 262.934 411.668 252.526 410.957 251.422C410.147 252.582 408.605 255.048 408.522 257.099C408.412 259.889 409.596 265.277 407.866 265.521C407.867 265.518 401.831 258.391 404.555 252.81Z" fill="#5B5B57"/>
<path d="M412.44 285.463C412.44 285.463 442.154 278.829 455.075 288.628L448.618 371.43L390.506 358.519C390.506 358.519 392.141 353.279 403.284 339.347C414.428 325.414 409.582 304.979 412.44 285.463Z" fill="#FFB27D"/>
<path d="M429.762 362.211C429.762 362.211 429.729 362.492 429.668 363.026C429.641 363.256 429.607 363.535 429.57 363.858C429.32 366.004 428.847 370.123 428.236 375.477C426.641 389.52 424.139 412.075 422.434 429.878C421.1 443.797 420.253 454.813 420.71 456.582C422.087 461.905 420.71 525.538 420.71 525.538C415.771 527.716 408.282 525.538 408.282 525.538C408.282 525.538 395.126 468.196 396.968 460.226C398.038 455.291 397.612 450.18 395.736 445.452C385.521 401.71 386.64 377.466 388.668 365.86C389.059 363.461 389.643 361.093 390.416 358.773C390.609 358.18 390.843 357.598 391.116 357.031C413.648 351.457 429.762 362.211 429.762 362.211Z" fill="#5B5B57"/>
<path d="M459.081 312.244C457.647 322.205 451.908 334.394 449.858 340.956C449.858 340.956 453.284 363.736 450.013 369.99C449.75 370.607 449.255 371.117 448.618 371.427C436.501 376.281 389.31 371.568 387.319 357.571C386.596 352.483 405.294 334.596 406.383 332.425C406.835 331.528 407.318 328.617 405.126 322.586C402.018 331.395 384.867 328.861 384.867 328.861C386.88 325.694 391.895 303.783 397.495 293.892C401.705 286.457 412.946 285.381 412.946 285.381C412.946 285.381 417.625 292.203 428.939 291.236C440.254 290.268 442.323 283.899 442.323 283.899C442.323 283.899 452.358 285.126 455.45 287.42C455.986 287.815 460.963 299.193 459.081 312.244Z" fill="#C4B694"/>
<path d="M449.858 340.956C449.858 340.956 453.284 363.735 450.013 369.99C441.185 365.915 434.227 354.893 435.834 342.614C437.021 333.538 438.785 331.468 444.065 326.274C447.945 322.458 456.917 322.242 456.214 324.058C454.123 329.465 450.94 337.488 449.858 340.956Z" fill="#AE9A73"/>
<path d="M413.005 314.018L433.239 343.866H398.811L379.533 314.664L413.005 314.018Z" fill="#5B5B57"/>
<path d="M432.188 342.367L432.533 341.325L413.386 313.079L413.003 314.019L432.188 342.367Z" fill="#EFDECE"/>
<path d="M413.389 313.079L380.957 313.928L379.533 314.665L413.005 314.018L413.389 313.079Z" fill="#FCECDB"/>
<path d="M379.533 314.664L361.342 305.608L382.55 336.233L398.814 343.865L379.533 314.664Z" fill="#232320"/>
<path d="M475.817 335.58C473.868 336.399 468.866 341.817 467.08 342.367C459.052 344.837 424.886 338.264 424.886 338.264L425.944 332.762C425.944 332.762 459.477 333.581 463.164 332.674C463.856 332.502 467.482 327.291 468.875 326.542L475.817 335.58Z" fill="#FFB27D"/>
<path d="M425.944 332.761C425.944 332.761 421.901 329.734 419.166 330.419C416.431 331.104 412.412 334.281 410.92 335.034C409.427 335.786 405.371 338.477 407.426 340.105C409.481 341.732 415.882 340.334 418.417 339.087C420.952 337.84 424.884 338.265 424.884 338.265L425.944 332.761Z" fill="#FFB27D"/>
<path d="M419.944 330.32C419.944 330.32 415.029 329.781 413.687 329.806C412.344 329.83 412.709 330.101 413.45 331.058C414.191 332.016 416.75 332.382 416.868 332.717C416.985 333.051 419.944 330.32 419.944 330.32Z" fill="#FFB27D"/>
<path d="M442.323 283.899C442.323 283.899 456.897 285.489 460.91 291.236C465.984 298.502 477.957 327.44 477.572 334.732C477.572 334.732 468.817 348.433 438.796 346.24C438.796 346.24 435.672 336.097 441.988 332.747C441.988 332.747 457.407 330.226 459.183 328.787L446.611 307.78L442.323 283.899Z" fill="#C4B694"/>
<path d="M384.195 325.575C383.744 323.887 379.739 324.939 378.39 325.913C377.991 326.235 377.646 326.609 377.364 327.022C377.322 326.74 377.286 326.469 377.265 326.259C377.189 325.466 376.185 324.046 375.935 325.109C375.685 326.171 375.275 330.641 375.275 330.641C375.226 334.24 377.743 335.725 379.356 334.554C380.969 333.383 384.647 327.263 384.195 325.575Z" fill="#FFB27D"/>
<path d="M188.421 405.432C188.421 405.432 226.827 420.817 233.797 420.537C240.767 420.257 283.725 408.507 283.725 408.507L282.632 415.302C282.632 415.302 249.48 432.832 237.89 433.827C226.477 434.807 187.465 424.411 183.696 422.216C179.926 420.022 177.474 407.654 188.421 405.432Z" fill="#ED985F"/>
<path d="M182.651 348.833C182.651 348.833 168.483 346.359 161.427 351.097C148.645 359.68 147.958 389.27 143.166 393.678C138.374 398.087 126.827 396.205 125.799 419.014C124.772 441.823 130.397 443.729 123.697 453.911C116.998 464.092 126.533 474.283 126.533 474.283C126.533 474.283 122.628 468.663 124.302 464.606C124.302 464.606 125.927 473.559 132.113 475.657C138.299 477.756 139.214 479.295 140.202 482.373C140.202 482.373 192.974 457.508 193.031 439.872C193.089 422.237 203.416 404.764 198.345 397.124C199.726 399.23 200.592 401.587 200.881 404.031C200.881 404.031 203.924 398.67 198.649 393.679C193.374 388.688 204.837 378.36 203.14 366.399C201.975 358.187 195.708 349.191 182.651 348.833Z" fill="#5B5B57"/>
<path d="M193.088 422.235C189.175 424.663 184.792 426.378 180.177 427.288C160.275 431.516 152.647 416.049 149.784 405.432C151.863 404.373 154.159 403.725 156.526 403.527C157.965 403.371 159.478 403.268 160.73 403.209C162.965 401.636 166.295 395.195 167.032 385.192L167.968 385.423L183.653 389.37C183.653 389.37 182.934 393.954 182.582 398.288C182.309 401.679 182.267 404.919 182.965 405.713C184.189 405.957 184.923 406.116 184.923 406.116C184.925 406.121 184.928 406.126 184.932 406.13C188.204 411.246 190.936 416.639 193.088 422.235V422.235Z" fill="#FFB27D"/>
<path d="M183.654 389.374C183.654 389.374 182.933 393.954 182.584 398.292C173.698 397.474 169.574 389.694 167.968 385.427L183.654 389.374Z" fill="#ED985F"/>
<path d="M186.307 393.679C186.307 393.679 165.215 392.608 166.142 380.541C167.069 368.473 164.971 360.207 178.477 360.379C191.983 360.55 194.243 365.326 194.999 369.424C195.755 373.521 191.818 393.646 186.307 393.679Z" fill="#FFB27D"/>
<path d="M194.896 362.674C191.922 358.83 189.4 359.464 187.936 360.464C176.875 353.884 168.783 362.001 168.783 362.001C167.438 367.215 164.164 371.838 159.521 375.077C159.521 375.077 163.191 377.512 172.206 376.002C174.96 375.542 177.512 373.934 179.731 371.926C177.121 375.277 174.026 378.286 170.532 380.868C181.457 377.071 186.758 363.828 187.292 362.423C188.496 363.568 190.851 366.045 191.447 368.357C192.257 371.499 195.754 376.41 197.776 376.328C197.776 376.331 199.355 368.44 194.896 362.674Z" fill="#5B5B57"/>
<path d="M143.776 461.667C141.871 452.713 135.661 416.942 141.871 405.432C144.102 401.298 152.854 400.924 162.457 401.286C165.445 403.06 176.83 409.763 181.508 408.926C181.558 408.917 181.646 408.898 181.769 408.87C183.971 408.361 184.803 406.94 182.966 405.714C186.533 405.495 190.116 405.697 193.628 406.314C196.964 406.891 205.962 411.173 205.962 411.173C205.962 411.173 201.431 418.7 194.749 421.298C195.885 430.643 194.196 434.766 183.652 456.35C174.743 474.596 184.854 491.022 184.854 491.022C184.854 491.022 132.407 529.796 132.115 510.054C131.897 495.191 146.21 473.11 143.776 461.667Z" fill="#F9DDBF"/>
<path d="M187.455 533.185C188.864 533.039 190.222 532.612 191.433 531.934C192.645 531.255 193.681 530.343 194.469 529.259C194.723 528.91 194.993 528.536 195.28 528.135C201.25 519.825 203.573 494.376 216.999 467.264C220.271 460.664 232.009 459.477 235.213 452.015C235.213 452.015 243.092 427.83 220.134 427.117C197.175 426.404 158.641 494.408 158.031 501.541C157.44 508.45 142.849 537.812 187.455 533.185Z" fill="#AE9A73"/>
<path d="M278.717 532.628H246.035C246.035 532.628 244.813 527.835 246.959 524.573C248.858 521.688 248.13 520.044 246.724 517.657C248.459 518.348 250.339 518.674 252.228 518.611C253.957 518.431 255.619 517.894 257.089 517.039C258.495 518.513 264.519 524.79 266.401 526.034C268.536 527.443 278.059 526.94 278.717 532.628Z" fill="#232320"/>
<path d="M235.961 434.108C237.929 447.673 245.614 490.49 259.17 511.38C263.541 518.115 248.159 521.89 248.076 521.87C246.012 521.374 242.576 518.35 240.991 517.036C229.986 507.916 207.644 482.091 207.644 461.385C207.644 451.289 207.451 432.009 215.435 427.108C220.355 424.093 235.179 428.721 235.961 434.108Z" fill="#AE9A73"/>
<path d="M167.967 532.627C167.967 532.627 169.178 531.077 171.287 528.133C173.801 524.635 176.582 517.745 179.956 508.915C183.501 499.645 187.703 488.242 192.96 476.376C194.582 472.713 196.305 469.006 198.136 465.305C201.407 458.705 210.405 459.617 213.606 452.154C213.606 452.154 226.097 426.288 203.136 425.574C180.175 424.861 136.543 494.768 134.035 501.539C131.295 508.951 117.902 539.728 167.967 532.627Z" fill="#C4B694"/>
<path d="M254.728 532.628H222.045C222.045 532.628 220.824 527.835 222.97 524.573C224.869 521.688 224.141 520.044 222.734 517.657C224.469 518.348 226.35 518.674 228.239 518.611C229.967 518.431 231.629 517.894 233.099 517.039C234.506 518.513 240.528 524.79 242.411 526.034C244.546 527.443 254.069 526.94 254.728 532.628Z" fill="#5B5B57"/>
<path d="M179.959 508.915C183.504 499.645 187.706 488.241 192.963 476.375C191.591 467.385 188.63 459.521 183.652 456.351C183.653 456.351 171.576 490.754 179.959 508.915Z" fill="#AE9A73"/>
<path d="M216.885 433.147C218.853 446.712 221.624 490.491 235.181 511.381C239.552 518.116 224.17 521.891 224.087 521.871C222.023 521.375 218.587 518.351 217.002 517.037C205.997 507.917 183.655 482.092 183.655 461.386C183.655 451.29 196.54 432.819 204.523 427.919C205.661 427.235 206.969 426.827 208.326 426.734C209.682 426.641 211.041 426.867 212.277 427.389C213.512 427.912 214.583 428.714 215.389 429.721C216.195 430.728 216.71 431.907 216.885 433.147V433.147Z" fill="#C4B694"/>
<path d="M190.256 386.739C190.256 386.739 188.262 386.014 182.651 386.432C182.651 386.432 182.949 388.445 187.088 388.643C187.764 388.663 188.431 388.491 188.998 388.151C189.565 387.81 190.004 387.317 190.256 386.739V386.739Z" fill="white"/>
<path d="M287.825 394.293L281.047 383.053L266.389 420.66L275.035 429.196L287.825 394.293Z" fill="#163560"/>
<path d="M252.447 400.875L238.821 436.666L275.039 429.195L287.824 394.292L252.447 400.875Z" fill="#5B5B57"/>
<path d="M239.544 434.861L238.909 433.844L251.802 399.973L252.447 400.878L239.544 434.861Z" fill="#EFDECE"/>
<path d="M251.802 399.971L286.138 393.826L287.825 394.292L252.446 400.876L251.802 399.971Z" fill="#FCECDB"/>
<path d="M287.826 394.292L280.499 383.598L275.828 395.671L286.139 393.827L287.826 394.292Z" fill="#EFDECE"/>
<path d="M262.904 406.057C261.728 405.85 259.2 404.976 256.642 404.326C257.433 403.856 258.072 403.199 258.492 402.423C258.948 401.098 259.253 400.671 257.731 401.091C256.209 401.511 250.883 403.755 250.883 403.755L250.896 403.761C247.872 404.574 245.086 408.505 245.086 408.505C245.086 408.505 207.641 420.607 203.136 420.815C196.167 421.137 149.78 405.43 149.78 405.43C138.833 407.652 141.289 420.019 145.056 422.215C148.823 424.41 182.2 435.574 201.983 435.784C212.002 435.891 248.448 414.35 248.448 414.35C248.448 414.35 252.708 412.56 256.056 413.12C259.405 413.679 267.163 413.12 268.836 410.602C270.51 408.084 264.882 406.409 262.904 406.057Z" fill="#FFB27D"/>
<path d="M173.683 413.179C173.683 413.179 169.532 425.255 155.283 428.002C155.283 428.002 131.754 421.337 143.47 406.598C143.473 406.598 155.056 398.684 173.683 413.179Z" fill="#F9DDBF"/>
<path d="M287.215 406.968C287.227 406.637 287.186 406.306 287.091 405.987C287.091 405.987 283.734 401.105 282.636 400.906C279.288 400.298 279.288 404.351 279.998 406.965C280.502 408.658 281.454 410.209 282.769 411.481V411.481L282.636 415.3C284.234 414.508 285.529 413.284 286.348 411.795C287.166 410.305 287.469 408.621 287.215 406.968V406.968Z" fill="#FFB27D"/>
</svg>
