<svg width="333" height="66" viewBox="0 0 333 66" fill="none" xmlns="http://www.w3.org/2000/svg">
<path d="M154.525 21.3429H151.94V19.3789H159.74V21.3429H157.178V28.4209H154.525V21.3429Z" fill="#232320"/>
<path d="M163.409 25.0029V28.4189H160.837V19.377H165.318C167.447 19.377 168.477 20.517 168.477 21.877C168.502 22.3311 168.384 22.7816 168.141 23.1659C167.898 23.5501 167.541 23.849 167.12 24.021C167.689 24.221 168.298 24.821 168.298 26.3549V26.731C168.281 27.2948 168.321 27.8589 168.416 28.4149H165.891C165.721 27.7712 165.656 27.1044 165.698 26.44V26.207C165.698 25.426 165.512 24.998 164.343 24.998L163.409 25.0029ZM163.409 23.1559H164.635C165.518 23.1559 165.835 22.789 165.835 22.181C165.835 21.573 165.453 21.224 164.643 21.224H163.405L163.409 23.1559Z" fill="#232320"/>
<path d="M172.458 19.3789V24.9369C172.458 26.2369 173.096 26.6759 173.899 26.6759C174.769 26.6759 175.274 26.1459 175.274 24.9369V19.3789H177.935V24.6709C177.935 27.6709 176.158 28.5889 173.854 28.5889C171.467 28.5889 169.805 27.6219 169.805 24.6829V19.3829L172.458 19.3789Z" fill="#232320"/>
<path d="M181.651 25.6829C181.802 26.4709 182.351 26.8029 183.209 26.8029C184.009 26.8029 184.38 26.5219 184.38 25.9969C184.38 25.4019 183.98 25.1779 182.551 24.8359C179.884 24.1899 179.351 23.2159 179.351 21.9989C179.351 20.4809 180.466 19.2109 182.983 19.2109C185.599 19.2109 186.668 20.5379 186.794 21.9639H184.235C184.165 21.4789 183.917 20.9849 182.977 20.9849C182.37 20.9849 181.997 21.2139 181.997 21.7029C181.997 22.1919 182.329 22.3829 183.723 22.7249C186.509 23.4249 187.063 24.4249 187.063 25.7099C187.063 27.4099 185.753 28.5879 183.099 28.5879C180.599 28.5879 179.274 27.4209 179.073 25.6819L181.651 25.6829Z" fill="#232320"/>
<path d="M190.135 21.3429H187.55V19.3789H195.35V21.3429H192.787V28.4209H190.134L190.135 21.3429Z" fill="#232320"/>
<path d="M198.28 28.4209L196.104 19.3789H198.892C199.311 21.4927 199.62 23.6269 199.818 25.7729H199.859C200.231 23.8109 200.779 21.4949 201.241 19.3789H203.597C204.002 21.2079 204.603 23.7209 204.918 25.6629H204.958C205.183 23.7879 205.776 20.7709 206 19.3789H208.546L206.258 28.4209H203.549C203.149 26.5439 202.625 24.4099 202.293 22.6549H202.261C201.948 24.3639 201.383 26.6749 200.993 28.4209H198.28Z" fill="#232320"/>
<path d="M218.253 23.8921C218.3 24.5161 218.213 25.1431 217.998 25.7307C217.783 26.3184 217.444 26.8529 217.004 27.2984C216.565 27.7439 216.035 28.0899 215.45 28.3131C214.865 28.5362 214.239 28.6314 213.615 28.5921C210.574 28.5921 209.104 26.4661 209.104 23.9071C209.06 23.2834 209.149 22.6576 209.367 22.0713C209.584 21.4851 209.924 20.952 210.364 20.5078C210.804 20.0635 211.334 19.7183 211.918 19.4952C212.502 19.2721 213.127 19.1763 213.751 19.2141C216.601 19.2111 218.253 21.1871 218.253 23.8921ZM211.837 23.8651C211.837 25.5251 212.388 26.6801 213.699 26.6801C215.076 26.6801 215.531 25.4541 215.531 23.9141C215.531 22.2641 215.049 21.1201 213.664 21.1201C212.377 21.1201 211.837 22.1821 211.837 23.8651Z" fill="#232320"/>
<path d="M222.285 25.0029V28.4189H219.715V19.377H224.196C226.325 19.377 227.356 20.517 227.356 21.877C227.381 22.3311 227.263 22.7816 227.02 23.1659C226.777 23.5501 226.42 23.849 225.999 24.021C226.568 24.221 227.177 24.821 227.177 26.3549V26.731C227.16 27.2948 227.199 27.8589 227.294 28.4149H224.769C224.599 27.7712 224.534 27.1044 224.576 26.44V26.207C224.576 25.426 224.39 24.998 223.221 24.998L222.285 25.0029ZM222.285 23.1559H223.515C224.398 23.1559 224.715 22.789 224.715 22.181C224.715 21.573 224.333 21.224 223.524 21.224H222.285V23.1559Z" fill="#232320"/>
<path d="M230.747 21.3429H228.162V19.3789H235.962V21.3429H233.4V28.4209H230.747V21.3429Z" fill="#232320"/>
<path d="M237.058 19.3789H239.716V22.7619H242.472V19.3789H245.134V28.4209H242.472V24.7209H239.712V28.4209H237.054L237.058 19.3789Z" fill="#232320"/>
<path d="M249.098 28.4209V25.2889C249.105 25.1673 249.072 25.0467 249.006 24.9449L245.912 19.3789H248.904C249.481 20.6529 250.13 22.1209 250.548 23.1549C250.915 22.1659 251.677 20.5419 252.21 19.3789H254.973L251.84 24.9339C251.777 25.0355 251.748 25.1539 251.756 25.2729V28.4209H249.098Z" fill="#232320"/>
<path d="M260.603 25.6829C260.754 26.4709 261.303 26.8029 262.161 26.8029C262.961 26.8029 263.332 26.5219 263.332 25.9969C263.332 25.4019 262.932 25.1779 261.503 24.8359C258.836 24.1899 258.303 23.2159 258.303 21.9989C258.303 20.4809 259.418 19.2109 261.935 19.2109C264.551 19.2109 265.62 20.5379 265.746 21.9639H263.187C263.118 21.4789 262.869 20.9849 261.928 20.9849C261.321 20.9849 260.948 21.2139 260.948 21.7029C260.948 22.1919 261.28 22.3829 262.674 22.7249C265.46 23.4249 266.013 24.4249 266.013 25.7099C266.013 27.4099 264.704 28.5879 262.049 28.5879C259.549 28.5879 258.224 27.4209 258.023 25.6819L260.603 25.6829Z" fill="#232320"/>
<path d="M276.119 23.8921C276.166 24.5161 276.079 25.1431 275.864 25.7307C275.649 26.3184 275.31 26.8529 274.87 27.2984C274.431 27.7439 273.901 28.0899 273.316 28.3131C272.731 28.5362 272.105 28.6314 271.481 28.5921C268.44 28.5921 266.97 26.4661 266.97 23.9071C266.926 23.2834 267.015 22.6576 267.233 22.0713C267.45 21.4851 267.79 20.952 268.23 20.5078C268.67 20.0635 269.2 19.7183 269.784 19.4952C270.368 19.2721 270.993 19.1763 271.617 19.2141C274.467 19.2111 276.119 21.1871 276.119 23.8921ZM269.703 23.8651C269.703 25.5251 270.254 26.6801 271.565 26.6801C272.942 26.6801 273.397 25.4541 273.397 23.9141C273.397 22.2641 272.915 21.1201 271.53 21.1201C270.243 21.1201 269.707 22.1821 269.707 23.8651H269.703Z" fill="#232320"/>
<path d="M277.578 19.3789H284.339V21.3429H280.173V23.1029H284.073V25.0759H280.173V28.4239H277.573L277.578 19.3789Z" fill="#232320"/>
<path d="M287.824 21.3429H285.24V19.3789H293.04V21.3429H290.478V28.4209H287.824V21.3429Z" fill="#232320"/>
<path d="M295.971 28.4209L293.792 19.3789H296.581C297.001 21.4926 297.31 23.6269 297.507 25.7729H297.548C297.92 23.8109 298.468 21.4949 298.929 19.3789H301.281C301.686 21.2079 302.287 23.7209 302.602 25.6629H302.642C302.866 23.7879 303.46 20.7709 303.684 19.3789H306.23L303.942 28.4209H301.233C300.833 26.5439 300.308 24.4099 299.977 22.6549H299.945C299.632 24.3639 299.067 26.6749 298.677 28.4209H295.971Z" fill="#232320"/>
<path d="M308.855 26.6619L308.331 28.4209H305.75L308.607 19.3789H312.037L315.007 28.4209H312.241L311.691 26.6619H308.855ZM311.228 24.6979C310.802 23.2769 310.455 22.0149 310.251 21.1329H310.215C310.006 22.1069 309.66 23.3969 309.294 24.6979H311.228Z" fill="#232320"/>
<path d="M318.532 25.0029V28.4189H315.959V19.377H320.44C322.569 19.377 323.599 20.517 323.599 21.877C323.624 22.3311 323.506 22.7816 323.263 23.1659C323.02 23.5501 322.663 23.849 322.242 24.021C322.811 24.221 323.42 24.821 323.42 26.3549V26.731C323.403 27.2948 323.442 27.8588 323.537 28.4149H321.012C320.842 27.7712 320.777 27.1043 320.82 26.44V26.207C320.82 25.426 320.634 24.998 319.465 24.998L318.532 25.0029ZM318.532 23.1559H319.758C320.641 23.1559 320.958 22.789 320.958 22.181C320.958 21.573 320.576 21.224 319.766 21.224H318.528L318.532 23.1559Z" fill="#232320"/>
<path d="M331.726 24.7618H327.606V26.4618H332.206L331.906 28.4258H325.054V19.3838H331.897V21.3478H327.606V22.8028H331.724L331.726 24.7618Z" fill="#232320"/>
<path d="M159.39 42.0391H155.272V43.7391H159.872L159.572 45.7031H152.72V36.6621H159.563V38.6151H155.27V40.0711H159.388L159.39 42.0391Z" fill="#232320"/>
<path d="M169.403 42.7233C169.071 44.6133 167.684 45.8653 165.203 45.8653C162.241 45.8653 160.811 43.8653 160.811 41.2433C160.811 38.6833 162.225 36.4883 165.331 36.4883C167.988 36.4883 169.198 38.0333 169.376 39.5973H166.746C166.714 39.2367 166.541 38.9033 166.264 38.6695C165.988 38.4358 165.631 38.3207 165.27 38.3493C163.982 38.3493 163.543 39.5723 163.543 41.1493C163.543 42.5833 163.909 43.9983 165.299 43.9983C165.659 44.0107 166.01 43.8858 166.281 43.6489C166.553 43.4119 166.724 43.0807 166.76 42.7223L169.403 42.7233Z" fill="#232320"/>
<path d="M179.571 41.1685C179.618 41.7925 179.531 42.4195 179.316 43.0071C179.101 43.5947 178.762 44.1293 178.322 44.5748C177.883 45.0202 177.353 45.3662 176.768 45.5894C176.183 45.8126 175.557 45.9077 174.933 45.8685C171.892 45.8685 170.422 43.7435 170.422 41.1845C170.378 40.5608 170.467 39.9349 170.685 39.3487C170.902 38.7625 171.242 38.2294 171.682 37.7851C172.122 37.3409 172.652 36.9956 173.236 36.7725C173.82 36.5494 174.445 36.4536 175.069 36.4915C177.919 36.4875 179.571 38.4635 179.571 41.1685ZM173.155 41.1415C173.155 42.8015 173.706 43.9565 175.017 43.9565C176.394 43.9565 176.849 42.7305 176.849 41.1905C176.849 39.5405 176.367 38.3965 174.982 38.3965C173.692 38.3965 173.155 39.4585 173.155 41.1415Z" fill="#232320"/>
<path d="M183.046 42.9601C183.197 43.7481 183.746 44.0791 184.604 44.0791C185.404 44.0791 185.775 43.7981 185.775 43.2791C185.775 42.6841 185.375 42.4591 183.947 42.1181C181.279 41.4721 180.747 40.4992 180.747 39.2822C180.747 37.7642 181.862 36.4941 184.378 36.4941C186.995 36.4941 188.063 37.8211 188.189 39.2471H185.63C185.561 38.7621 185.312 38.2681 184.371 38.2681C183.764 38.2681 183.392 38.4971 183.392 38.9861C183.392 39.4751 183.723 39.6661 185.118 40.0081C187.904 40.7081 188.457 41.7081 188.457 42.9931C188.457 44.6931 187.148 45.8701 184.493 45.8701C181.993 45.8701 180.668 44.7031 180.468 42.9641L183.046 42.9601Z" fill="#232320"/>
<path d="M191.63 45.6963V42.5653C191.637 42.4437 191.605 42.3231 191.538 42.2213L188.444 36.6553H191.436C192.013 37.9293 192.662 39.3973 193.079 40.4313C193.446 39.4423 194.209 37.8183 194.741 36.6553H197.504L194.371 42.2103C194.308 42.3118 194.279 42.4303 194.287 42.5493V45.6973L191.63 45.6963Z" fill="#232320"/>
<path d="M200.099 42.9601C200.25 43.7481 200.799 44.0791 201.657 44.0791C202.457 44.0791 202.828 43.7981 202.828 43.2791C202.828 42.6841 202.428 42.4591 200.999 42.1181C198.331 41.4721 197.799 40.4992 197.799 39.2822C197.799 37.7642 198.914 36.4941 201.431 36.4941C204.047 36.4941 205.115 37.8211 205.242 39.2471H202.683C202.613 38.7621 202.364 38.2681 201.424 38.2681C200.817 38.2681 200.445 38.4971 200.445 38.9861C200.445 39.4751 200.776 39.6661 202.171 40.0081C204.957 40.7081 205.51 41.7081 205.51 42.9931C205.51 44.6931 204.201 45.8701 201.546 45.8701C199.046 45.8701 197.72 44.7031 197.52 42.9641L200.099 42.9601Z" fill="#232320"/>
<path d="M208.583 38.6144H205.999V36.6504H213.799V38.6144H211.237V45.6924H208.584L208.583 38.6144Z" fill="#232320"/>
<path d="M221.563 42.0391H217.445V43.7391H222.045L221.745 45.7031H214.893V36.6621H221.736V38.6151H217.443V40.0711H221.561L221.563 42.0391Z" fill="#232320"/>
<path d="M230.822 42.7463C230.822 41.3333 230.853 39.5133 230.892 38.4393H230.822C230.444 40.3783 229.835 43.0633 229.175 45.6963H227.053C226.534 43.1433 225.94 40.4523 225.587 38.4403H225.509C225.583 39.5043 225.631 41.2683 225.631 42.8183V45.6963H223.272V36.6553H227.086C227.531 38.4843 228.053 41.1373 228.256 42.4733H228.302C228.535 41.0193 229.137 38.6203 229.663 36.6553H233.369V45.6963H230.822V42.7463Z" fill="#232320"/>
<path d="M237.132 42.9601C237.283 43.7481 237.832 44.0791 238.69 44.0791C239.49 44.0791 239.861 43.7981 239.861 43.2791C239.861 42.6841 239.461 42.4591 238.032 42.1181C235.365 41.4721 234.832 40.4992 234.832 39.2822C234.832 37.7642 235.947 36.4941 238.464 36.4941C241.08 36.4941 242.149 37.8211 242.275 39.2471H239.712C239.642 38.7621 239.394 38.2681 238.454 38.2681C237.847 38.2681 237.474 38.4971 237.474 38.9861C237.474 39.4751 237.806 39.6661 239.2 40.0081C241.986 40.7081 242.54 41.7081 242.54 42.9931C242.54 44.6931 241.23 45.8701 238.576 45.8701C236.076 45.8701 234.751 44.7031 234.55 42.9641L237.132 42.9601Z" fill="#232320"/>
<path d="M246.828 36.6553H249.486V43.7333H253.748L253.461 45.6973H246.828V36.6553Z" fill="#232320"/>
<path d="M257.478 43.9382L256.954 45.6973H254.373L257.23 36.6562H260.66L263.63 45.6973H260.864L260.315 43.9382H257.478ZM259.851 41.9753C259.426 40.5553 259.078 39.2912 258.874 38.4102H258.838C258.629 39.3842 258.283 40.6743 257.917 41.9753H259.851Z" fill="#232320"/>
<path d="M264.58 36.6553H269.08C271.26 36.6553 272.222 37.7363 272.222 39.0063C272.242 39.4185 272.134 39.827 271.914 40.1761C271.694 40.5252 271.371 40.7979 270.991 40.9573C271.423 41.0958 271.8 41.3687 272.066 41.7364C272.333 42.1041 272.475 42.5472 272.472 43.0013C272.472 44.4833 271.364 45.6953 269.109 45.6953H264.58V36.6553ZM268.631 40.1413C269.36 40.1413 269.654 39.7653 269.654 39.2763C269.654 38.7153 269.247 38.4403 268.61 38.4403H267.152V40.1403L268.631 40.1413ZM267.152 43.9173H268.507C269.378 43.9173 269.748 43.5383 269.748 42.8913C269.748 42.3233 269.398 41.9213 268.555 41.9213H267.155L267.152 43.9173Z" fill="#232320"/>
<path d="M33.6157 58.3337C33.473 58.4765 33.3035 58.5897 33.117 58.667C32.9305 58.7443 32.7306 58.7841 32.5287 58.7841C32.3268 58.7841 32.1269 58.7443 31.9404 58.667C31.7539 58.5897 31.5844 58.4765 31.4417 58.3337L6.7317 33.6237C6.58893 33.481 6.47567 33.3115 6.3984 33.125C6.32113 32.9385 6.28135 32.7386 6.28135 32.5367C6.28135 32.3348 6.32113 32.1349 6.3984 31.9484C6.47567 31.7619 6.58893 31.5924 6.7317 31.4497L31.4417 6.7397C31.5844 6.59692 31.7539 6.48366 31.9404 6.40639C32.1269 6.32911 32.3268 6.28935 32.5287 6.28935C32.7306 6.28935 32.9305 6.32911 33.117 6.40639C33.3035 6.48366 33.473 6.59692 33.6157 6.7397L58.3257 31.4497C58.4685 31.5924 58.5817 31.7619 58.659 31.9484C58.7363 32.1349 58.7761 32.3348 58.7761 32.5367C58.7761 32.7386 58.7363 32.9385 58.659 33.125C58.5817 33.3115 58.4685 33.481 58.3257 33.6237L54.0257 37.9237L57.6987 41.5967L63.8677 35.4277C64.6352 34.66 65.0664 33.6188 65.0664 32.5332C65.0664 31.4476 64.6352 30.4064 63.8677 29.6387L35.4277 1.1987C34.66 0.431168 33.6188 0 32.5332 0C31.4476 0 30.4065 0.431168 29.6387 1.1987L1.19871 29.6387C0.431175 30.4064 0 31.4476 0 32.5332C0 33.6188 0.431175 34.66 1.19871 35.4277L29.6387 63.8677C30.4065 64.6352 31.4476 65.0664 32.5332 65.0664C33.6188 65.0664 34.66 64.6352 35.4277 63.8677L46.6397 52.6547L42.9677 48.9827L33.6157 58.3337Z" fill="#232320"/>
<path d="M69.1827 58.3346C69.04 58.4774 68.8705 58.5907 68.684 58.6679C68.4975 58.7452 68.2976 58.785 68.0957 58.785C67.8938 58.785 67.6939 58.7452 67.5074 58.6679C67.3209 58.5907 67.1515 58.4774 67.0087 58.3346L42.2987 33.6246C42.1559 33.4819 42.0427 33.3124 41.9654 33.1259C41.8881 32.9394 41.8484 32.7395 41.8484 32.5376C41.8484 32.3357 41.8881 32.1358 41.9654 31.9493C42.0427 31.7628 42.1559 31.5934 42.2987 31.4506L46.6867 27.0626L43.0137 23.3906L36.7607 29.6436C35.9932 30.4114 35.562 31.4525 35.562 32.5381C35.562 33.6237 35.9932 34.6649 36.7607 35.4326L65.2007 63.8726C65.9685 64.6402 67.0096 65.0713 68.0952 65.0713C69.1808 65.0713 70.222 64.6402 70.9897 63.8726L82.2137 52.6476L78.5407 48.9756L69.1827 58.3346Z" fill="#232320"/>
<path d="M67.0077 6.7406C67.1504 6.59782 67.3199 6.48456 67.5064 6.40729C67.6929 6.33001 67.8928 6.29024 68.0947 6.29024C68.2966 6.29024 68.4965 6.33001 68.683 6.40729C68.8695 6.48456 69.039 6.59782 69.1817 6.7406L93.8917 31.4506C94.0345 31.5933 94.1477 31.7628 94.225 31.9493C94.3023 32.1358 94.3421 32.3357 94.3421 32.5376C94.3421 32.7395 94.3023 32.9394 94.225 33.1259C94.1477 33.3124 94.0345 33.4819 93.8917 33.6246L89.5267 37.9736L93.2047 41.6566L99.4287 35.4326C100.196 34.6649 100.627 33.6237 100.627 32.5381C100.627 31.4525 100.196 30.4113 99.4287 29.6436L70.9887 1.2036C70.221 0.436066 69.1798 0.00488281 68.0942 0.00488281C67.0086 0.00488281 65.9674 0.436066 65.1997 1.2036L54.0277 12.3766L57.6997 16.0486L67.0077 6.7406Z" fill="#232320"/>
<path d="M134.996 29.6426L106.556 1.20261C105.788 0.435074 104.747 0.00390625 103.661 0.00390625C102.576 0.00390625 101.534 0.435074 100.767 1.20261L89.5607 12.4116L93.2327 16.0836L102.574 6.74261C102.716 6.59984 102.886 6.48657 103.072 6.4093C103.259 6.33203 103.459 6.29225 103.661 6.29225C103.863 6.29225 104.062 6.33203 104.249 6.4093C104.436 6.48657 104.605 6.59984 104.748 6.74261L129.458 31.4526C129.6 31.5953 129.714 31.7648 129.791 31.9513C129.868 32.1378 129.908 32.3377 129.908 32.5396C129.908 32.7415 129.868 32.9414 129.791 33.1279C129.714 33.3144 129.6 33.4839 129.458 33.6266L104.748 58.3366C104.605 58.4794 104.436 58.5926 104.249 58.6699C104.062 58.7472 103.863 58.787 103.661 58.787C103.459 58.787 103.259 58.7472 103.072 58.6699C102.886 58.5926 102.716 58.4794 102.574 58.3366L77.8637 33.6266C77.7209 33.4839 77.6077 33.3144 77.5304 33.1279C77.4531 32.9414 77.4133 32.7415 77.4133 32.5396C77.4133 32.3377 77.4531 32.1378 77.5304 31.9513C77.6077 31.7648 77.7209 31.5953 77.8637 31.4526L82.1957 27.1206L78.5237 23.4476L72.3237 29.6476C71.5562 30.4154 71.125 31.4565 71.125 32.5421C71.125 33.6277 71.5562 34.6689 72.3237 35.4366L100.764 63.8766C101.531 64.6441 102.573 65.0753 103.658 65.0753C104.744 65.0753 105.785 64.6441 106.553 63.8766L134.993 35.4366C135.374 35.0566 135.676 34.6051 135.882 34.1082C136.089 33.6112 136.195 33.0784 136.195 32.5402C136.196 32.0021 136.09 31.4692 135.884 30.972C135.678 30.4748 135.376 30.023 134.996 29.6426Z" fill="#232320"/>
</svg>
