<svg width="538" height="106" viewBox="0 0 538 106" fill="none" xmlns="http://www.w3.org/2000/svg">
<path d="M250.323 35.4268H246.15V32.2578H258.733V35.4268H254.6V46.8458H250.319L250.323 35.4268Z" fill="#CFB991"/>
<path d="M264.656 41.3348V46.8458H260.502V32.2578H267.731C271.167 32.2578 272.831 34.0968 272.831 36.2978C272.871 37.0306 272.682 37.7577 272.289 38.3778C271.896 38.9979 271.32 39.4803 270.641 39.7578C271.56 40.0788 272.541 41.0518 272.541 43.5218V44.1298C272.514 45.0392 272.578 45.949 272.731 46.8458H268.658C268.384 45.8077 268.28 44.7322 268.348 43.6608V43.2838C268.348 42.0238 268.048 41.3338 266.162 41.3338L264.656 41.3348ZM264.656 38.3558H266.634C268.058 38.3558 268.576 37.7638 268.576 36.7828C268.576 35.8018 267.96 35.2378 266.654 35.2378H264.654L264.656 38.3558Z" fill="#CFB991"/>
<path d="M279.257 32.2578V41.2268C279.257 43.3168 280.286 44.0328 281.583 44.0328C282.983 44.0328 283.8 43.1768 283.8 41.2268V32.2578H288.095V40.7968C288.095 45.6448 285.226 47.1168 281.51 47.1168C277.658 47.1168 274.977 45.5578 274.977 40.8168V32.2578H279.257Z" fill="#CFB991"/>
<path d="M294.088 42.4289C294.332 43.6999 295.221 44.2339 296.602 44.2339C297.895 44.2339 298.491 43.7809 298.491 42.9339C298.491 41.9749 297.844 41.6119 295.541 41.0609C291.241 40.0189 290.38 38.4479 290.38 36.4839C290.38 34.0359 292.18 31.9839 296.239 31.9839C300.461 31.9839 302.184 34.1249 302.388 36.4269H298.259C298.147 35.6439 297.745 34.8469 296.228 34.8469C295.249 34.8469 294.648 35.2159 294.648 36.0059C294.648 36.7959 295.182 37.1059 297.432 37.6559C301.932 38.7779 302.82 40.3969 302.82 42.4719C302.82 45.2119 300.708 47.1149 296.42 47.1149C292.386 47.1149 290.249 45.2319 289.925 42.4269L294.088 42.4289Z" fill="#CFB991"/>
<path d="M307.777 35.4268H303.608V32.2578H316.191V35.4268H312.057V46.8458H307.777V35.4268Z" fill="#CFB991"/>
<path d="M320.92 46.8458L317.405 32.2568H321.905C322.583 35.6674 323.081 39.1111 323.399 42.5738H323.465C324.065 39.4088 324.949 35.6738 325.694 32.2568H329.494C330.147 35.2078 331.116 39.2628 331.625 42.3968H331.691C332.052 39.3718 333.009 34.5028 333.372 32.2568H337.475L333.786 46.8458H329.417C328.772 43.8188 327.925 40.3758 327.389 37.5458H327.338C326.838 40.3028 325.921 44.0328 325.292 46.8458H320.92Z" fill="#CFB991"/>
<path d="M353.145 39.5398C353.145 43.6678 350.659 47.1178 345.662 47.1178C340.755 47.1178 338.383 43.6888 338.383 39.5598C338.383 35.3598 340.983 31.9868 345.883 31.9868C350.48 31.9868 353.145 35.1808 353.145 39.5398ZM342.793 39.4968C342.793 42.1748 343.682 44.0378 345.793 44.0378C348.016 44.0378 348.748 42.0608 348.748 39.5748C348.748 36.9138 347.97 35.0668 345.736 35.0668C343.664 35.0668 342.793 36.7808 342.793 39.4968Z" fill="#CFB991"/>
<path d="M359.65 41.3348V46.8458H355.499V32.2578H362.728C366.164 32.2578 367.828 34.0968 367.828 36.2978C367.868 37.0306 367.678 37.7577 367.286 38.3778C366.893 38.9979 366.317 39.4803 365.638 39.7578C366.558 40.0788 367.538 41.0518 367.538 43.5218V44.1298C367.511 45.0392 367.575 45.949 367.728 46.8458H363.655C363.381 45.8077 363.277 44.7322 363.345 43.6608V43.2838C363.345 42.0238 363.045 41.3338 361.159 41.3338L359.65 41.3348ZM359.65 38.3558H361.627C363.051 38.3558 363.569 37.7638 363.569 36.7828C363.569 35.8018 362.953 35.2378 361.647 35.2378H359.647L359.65 38.3558Z" fill="#CFB991"/>
<path d="M373.302 35.4268H369.133V32.2578H381.715V35.4268H377.581V46.8458H373.301L373.302 35.4268Z" fill="#CFB991"/>
<path d="M383.485 32.2578H387.773V37.7158H392.226V32.2578H396.521V46.8458H392.226V40.8838H387.773V46.8458H383.485V32.2578Z" fill="#CFB991"/>
<path d="M402.916 46.8458V41.7938C402.927 41.5975 402.875 41.4027 402.766 41.2388L397.775 32.2578H402.603C403.534 34.3148 404.58 36.6828 405.255 38.3498C405.846 36.7498 407.076 34.1338 407.936 32.2578H412.394L407.338 41.2208C407.237 41.3847 407.19 41.5758 407.202 41.7678V46.8458H402.916Z" fill="#CFB991"/>
<path d="M421.473 42.4289C421.717 43.6999 422.606 44.2339 423.987 44.2339C425.28 44.2339 425.876 43.7809 425.876 42.9339C425.876 41.9749 425.229 41.6119 422.926 41.0609C418.626 40.0189 417.765 38.4479 417.765 36.4839C417.765 34.0359 419.565 31.9839 423.624 31.9839C427.846 31.9839 429.569 34.1249 429.773 36.4269H425.644C425.532 35.6439 425.13 34.8469 423.613 34.8469C422.634 34.8469 422.033 35.2159 422.033 36.0059C422.033 36.7959 422.567 37.1059 424.817 37.6559C429.311 38.7779 430.204 40.3969 430.204 42.4719C430.204 45.2119 428.092 47.1149 423.804 47.1149C419.77 47.1149 417.633 45.2319 417.309 42.4269L421.473 42.4289Z" fill="#CFB991"/>
<path d="M446.508 39.5398C446.508 43.6678 444.022 47.1178 439.025 47.1178C434.118 47.1178 431.746 43.6888 431.746 39.5598C431.746 35.3598 434.346 31.9868 439.246 31.9868C443.842 31.9868 446.508 35.1808 446.508 39.5398ZM436.152 39.4968C436.152 42.1748 437.041 44.0378 439.152 44.0378C441.375 44.0378 442.107 42.0608 442.107 39.5748C442.107 36.9138 441.329 35.0668 439.095 35.0668C437.027 35.0668 436.152 36.7808 436.152 39.4968Z" fill="#CFB991"/>
<path d="M448.862 32.2578H459.772V35.4268H453.048V38.2628H459.34V41.4458H453.048V46.8458H448.86L448.862 32.2578Z" fill="#CFB991"/>
<path d="M465.393 35.4268H461.224V32.2578H473.808V35.4268H469.674V46.8458H465.393V35.4268Z" fill="#CFB991"/>
<path d="M478.539 46.8458L475.023 32.2568H479.523C480.201 35.6674 480.699 39.1111 481.017 42.5738H481.083C481.683 39.4088 482.567 35.6738 483.312 32.2568H487.112C487.765 35.2078 488.734 39.2628 489.243 42.3968H489.309C489.67 39.3718 490.627 34.5028 490.99 32.2568H495.097L491.405 46.8458H487.036C486.391 43.8188 485.544 40.3758 485.008 37.5458H484.957C484.452 40.3028 483.54 44.0328 482.911 46.8458H478.539Z" fill="#CFB991"/>
<path d="M499.326 44.0088L498.481 46.8468H494.317L498.927 32.2578H504.461L509.253 46.8468H504.79L503.904 44.0088H499.326ZM503.154 40.8418C502.468 38.5498 501.907 36.5118 501.577 35.0898H501.519C501.181 36.6618 500.624 38.7428 500.032 40.8418H503.154Z" fill="#CFB991"/>
<path d="M514.938 41.3348V46.8458H510.787V32.2578H518.016C521.452 32.2578 523.116 34.0968 523.116 36.2978C523.156 37.0306 522.966 37.7577 522.574 38.3778C522.181 38.9979 521.605 39.4803 520.926 39.7578C521.845 40.0788 522.826 41.0518 522.826 43.5218V44.1298C522.799 45.0392 522.863 45.949 523.016 46.8458H518.942C518.668 45.8078 518.563 44.7323 518.631 43.6608V43.2838C518.631 42.0238 518.331 41.3338 516.444 41.3338L514.938 41.3348ZM514.938 38.3558H516.915C518.34 38.3558 518.858 37.7638 518.858 36.7828C518.858 35.8018 518.241 35.2378 516.935 35.2378H514.935L514.938 38.3558Z" fill="#CFB991"/>
<path d="M536.227 40.9458H529.584V43.6808H537.002L536.525 46.8488H525.468V32.2578H536.509V35.4268H529.584V37.7758H536.228L536.227 40.9458Z" fill="#CFB991"/>
<path d="M258.173 68.8198H251.529V71.5568H258.946L258.469 74.7248H247.414V60.1338H258.455V63.3018H251.529V65.6508H258.173V68.8198Z" fill="#CFB991"/>
<path d="M274.33 69.9238C273.794 72.9748 271.556 74.9938 267.553 74.9938C262.775 74.9938 260.466 71.7688 260.466 67.5348C260.466 63.4058 262.748 59.8628 267.759 59.8628C272.046 59.8628 273.999 62.3558 274.286 64.8808H270.042C269.991 64.299 269.712 63.761 269.266 63.3838C268.82 63.0066 268.243 62.8208 267.661 62.8668C265.584 62.8668 264.875 64.8388 264.875 67.3858C264.875 69.6988 265.465 71.9858 267.708 71.9858C268.289 72.0055 268.856 71.8036 269.293 71.4211C269.731 71.0386 270.007 70.5041 270.065 69.9258L274.33 69.9238Z" fill="#CFB991"/>
<path d="M290.733 67.4148C290.733 71.5428 288.247 74.9928 283.251 74.9928C278.344 74.9928 275.972 71.5638 275.972 67.4348C275.972 63.2348 278.572 59.8618 283.472 59.8618C288.068 59.8628 290.733 63.0518 290.733 67.4148ZM280.381 67.3718C280.381 70.0498 281.27 71.9128 283.381 71.9128C285.604 71.9128 286.336 69.9358 286.336 67.4498C286.336 64.7888 285.558 62.9418 283.324 62.9418C281.252 62.9428 280.381 64.6568 280.381 67.3728V67.3718Z" fill="#CFB991"/>
<path d="M296.333 70.3048C296.578 71.5758 297.467 72.1108 298.847 72.1108C300.14 72.1108 300.737 71.6579 300.737 70.8109C300.737 69.8519 300.09 69.4889 297.786 68.9379C293.486 67.8959 292.625 66.3248 292.625 64.3608C292.625 61.9128 294.425 59.8608 298.485 59.8608C302.706 59.8608 304.43 62.0018 304.633 64.3028H300.504C300.391 63.5208 299.99 62.7238 298.473 62.7238C297.495 62.7238 296.893 63.0928 296.893 63.8828C296.893 64.6728 297.428 64.9828 299.677 65.5318C304.177 66.6538 305.064 68.2738 305.064 70.3488C305.064 73.0888 302.952 74.9919 298.664 74.9919C294.63 74.9919 292.492 73.1088 292.164 70.3038L296.333 70.3048Z" fill="#CFB991"/>
<path d="M310.19 74.7228V69.6698C310.201 69.4738 310.149 69.2794 310.04 69.1158L305.049 60.1338H309.877C310.808 62.1898 311.854 64.5588 312.529 66.2258C313.12 64.6258 314.35 62.0108 315.21 60.1338H319.666L314.61 69.0968C314.509 69.2606 314.462 69.4518 314.474 69.6438V74.7228H310.19Z" fill="#CFB991"/>
<path d="M323.854 70.3048C324.099 71.5758 324.988 72.1108 326.368 72.1108C327.662 72.1108 328.258 71.6579 328.258 70.8109C328.258 69.8519 327.611 69.4889 325.307 68.9379C321.007 67.8959 320.146 66.3248 320.146 64.3608C320.146 61.9128 321.946 59.8608 326.006 59.8608C330.227 59.8608 331.951 62.0018 332.155 64.3028H328.026C327.914 63.5208 327.512 62.7238 325.995 62.7238C325.016 62.7238 324.414 63.0928 324.414 63.8828C324.414 64.6728 324.949 64.9828 327.198 65.5318C331.698 66.6538 332.586 68.2738 332.586 70.3488C332.586 73.0888 330.473 74.9919 326.186 74.9919C322.151 74.9919 320.014 73.1088 319.686 70.3038L323.854 70.3048Z" fill="#CFB991"/>
<path d="M337.542 63.3018H333.373V60.1338H345.957V63.3018H341.819V74.7218H337.538L337.542 63.3018Z" fill="#CFB991"/>
<path d="M358.486 68.8198H351.841V71.5568H359.258L358.781 74.7248H347.726V60.1338H358.771V63.3018H351.841V65.6508H358.485L358.486 68.8198Z" fill="#CFB991"/>
<path d="M373.424 69.9618C373.424 67.6828 373.474 64.7458 373.537 63.0118H373.424C372.814 66.1408 371.833 70.4728 370.766 74.7218H367.343C366.506 70.6018 365.543 66.2608 364.979 63.0148H364.851C364.97 64.7298 365.051 67.5778 365.051 70.0778V74.7228H361.246V60.1338H367.4C368.119 63.0858 368.961 67.3658 369.287 69.5218H369.361C369.737 67.1758 370.708 63.3048 371.561 60.1338H377.531V74.7228H373.422L373.424 69.9618Z" fill="#CFB991"/>
<path d="M383.597 70.3048C383.841 71.5758 384.73 72.1108 386.111 72.1108C387.404 72.1108 388 71.6579 388 70.8109C388 69.8519 387.353 69.4889 385.05 68.9379C380.75 67.8959 379.889 66.3248 379.889 64.3608C379.889 61.9128 381.689 59.8608 385.748 59.8608C389.97 59.8608 391.693 62.0018 391.897 64.3028H387.768C387.656 63.5208 387.254 62.7238 385.737 62.7238C384.758 62.7238 384.157 63.0928 384.157 63.8828C384.157 64.6728 384.691 64.9828 386.941 65.5318C391.441 66.6538 392.329 68.2738 392.329 70.3488C392.329 73.0888 390.217 74.9919 385.929 74.9919C381.895 74.9919 379.758 73.1088 379.434 70.3038L383.597 70.3048Z" fill="#CFB991"/>
<path d="M399.249 60.1338H403.537V71.5568H410.413L409.95 74.7248H399.25L399.249 60.1338Z" fill="#CFB991"/>
<path d="M416.43 71.8848L415.585 74.7228H411.421L416.031 60.1338H421.569L426.361 74.7228H421.898L421.012 71.8848H416.43ZM420.258 68.7178C419.572 66.4248 419.011 64.3878 418.682 62.9648H418.623C418.285 64.5378 417.728 66.6188 417.136 68.7178H420.258Z" fill="#CFB991"/>
<path d="M427.891 60.1338H435.149C438.668 60.1338 440.219 61.8778 440.219 63.9278C440.252 64.5931 440.078 65.2523 439.723 65.8158C439.368 66.3792 438.847 66.8195 438.233 67.0768C438.931 67.3004 439.539 67.7412 439.969 68.3348C440.399 68.9285 440.628 69.6439 440.622 70.3768C440.622 72.7678 438.835 74.7238 435.197 74.7238H427.89L427.891 60.1338ZM434.426 65.7588C435.603 65.7588 436.078 65.1538 436.078 64.3588C436.078 63.4588 435.421 63.0108 434.393 63.0108H432.04V65.7568L434.426 65.7588ZM432.04 71.8508H434.226C435.632 71.8508 436.226 71.2408 436.226 70.1968C436.226 69.2798 435.661 68.6318 434.302 68.6318H432.038L432.04 71.8508Z" fill="#CFB991"/>
<path d="M55.243 95.1106C55.0128 95.341 54.7394 95.5237 54.4385 95.6484C54.1377 95.7731 53.8152 95.8372 53.4895 95.8372C53.1638 95.8372 52.8413 95.7731 52.5404 95.6484C52.2396 95.5237 51.9662 95.341 51.736 95.1106L11.869 55.2436C11.404 54.7785 11.1427 54.1478 11.1427 53.4901C11.1427 52.8324 11.404 52.2017 11.869 51.7366L51.736 11.8706C51.9662 11.6402 52.2396 11.4575 52.5404 11.3328C52.8413 11.2081 53.1638 11.1439 53.4895 11.1439C53.8152 11.1439 54.1377 11.2081 54.4385 11.3328C54.7394 11.4575 55.0128 11.6402 55.243 11.8706L95.11 51.7376C95.575 52.2027 95.8362 52.8334 95.8362 53.4911C95.8362 54.1488 95.575 54.7795 95.11 55.2446L88.166 62.1886L94.091 68.1136L104.044 58.1606C104.658 57.5476 105.144 56.8197 105.477 56.0185C105.809 55.2173 105.98 54.3584 105.98 53.4911C105.98 52.6237 105.809 51.7649 105.477 50.9637C105.144 50.1624 104.658 49.4345 104.044 48.8216L58.158 2.93558C56.9193 1.69717 55.2395 1.00146 53.488 1.00146C51.7364 1.00146 50.0566 1.69717 48.818 2.93558L2.93398 48.8196C2.32034 49.4325 1.83353 50.1604 1.50139 50.9617C1.16925 51.7629 0.998291 52.6217 0.998291 53.4891C0.998291 54.3564 1.16925 55.2153 1.50139 56.0165C1.83353 56.8177 2.32034 57.5456 2.93398 58.1586L48.817 104.046C50.0556 105.284 51.7354 105.98 53.487 105.98C55.2385 105.98 56.9183 105.284 58.157 104.046L76.248 85.9546L70.323 80.0296L55.243 95.1106Z" fill="#CFB991"/>
<path d="M112.628 95.1129C112.398 95.3433 112.124 95.526 111.824 95.6507C111.523 95.7754 111.2 95.8396 110.875 95.8396C110.549 95.8396 110.226 95.7754 109.925 95.6507C109.625 95.526 109.351 95.3433 109.121 95.1129L69.254 55.2459C68.789 54.7808 68.5278 54.1501 68.5278 53.4924C68.5278 52.8347 68.789 52.204 69.254 51.7389L76.333 44.6599L70.408 38.7339L60.318 48.8209C59.7044 49.4338 59.2176 50.1618 58.8854 50.963C58.5533 51.7642 58.3823 52.623 58.3823 53.4904C58.3823 54.3577 58.5533 55.2166 58.8854 56.0178C59.2176 56.819 59.7044 57.5469 60.318 58.1599L106.204 104.046C106.817 104.66 107.545 105.146 108.346 105.478C109.147 105.811 110.006 105.982 110.874 105.982C111.741 105.982 112.6 105.811 113.401 105.478C114.202 105.146 114.93 104.66 115.543 104.046L133.653 85.9359L127.728 80.0129L112.628 95.1129Z" fill="#CFB991"/>
<path d="M109.12 11.8707C109.35 11.6403 109.624 11.4576 109.924 11.3329C110.225 11.2082 110.548 11.1441 110.873 11.1441C111.199 11.1441 111.522 11.2082 111.823 11.3329C112.123 11.4576 112.397 11.6403 112.627 11.8707L152.492 51.7367C152.957 52.2019 153.218 52.8326 153.218 53.4902C153.218 54.1478 152.957 54.7785 152.492 55.2437L145.449 62.2607L151.384 68.2027L161.427 58.1597C162.041 57.5468 162.527 56.8189 162.86 56.0176C163.192 55.2164 163.363 54.3576 163.363 53.4902C163.363 52.6229 163.192 51.764 162.86 50.9628C162.527 50.1616 162.041 49.4337 161.427 48.8207L115.541 2.93472C114.928 2.32107 114.2 1.83426 113.399 1.50212C112.598 1.16998 111.739 0.999023 110.871 0.999023C110.004 0.999023 109.145 1.16998 108.344 1.50212C107.543 1.83426 106.815 2.32107 106.202 2.93472L88.175 20.9617L94.1 26.8867L109.12 11.8707Z" fill="#CFB991"/>
<path d="M218.813 48.8197L172.927 2.93374C172.314 2.32009 171.586 1.83328 170.785 1.50114C169.984 1.169 169.125 0.998047 168.257 0.998047C167.39 0.998047 166.531 1.169 165.73 1.50114C164.929 1.83328 164.201 2.32009 163.588 2.93374L145.507 21.0137L151.432 26.9397L166.504 11.8707C166.734 11.6404 167.008 11.4576 167.308 11.3329C167.609 11.2083 167.932 11.1441 168.257 11.1441C168.583 11.1441 168.906 11.2083 169.207 11.3329C169.507 11.4576 169.781 11.6404 170.011 11.8707L209.878 51.7377C210.343 52.2028 210.604 52.8336 210.604 53.4912C210.604 54.1489 210.343 54.7797 209.878 55.2447L170.011 95.1107C169.781 95.3411 169.507 95.5239 169.207 95.6486C168.906 95.7732 168.583 95.8374 168.257 95.8374C167.932 95.8374 167.609 95.7732 167.308 95.6486C167.008 95.5239 166.734 95.3411 166.504 95.1107L126.639 55.2437C126.174 54.7787 125.913 54.1479 125.913 53.4902C125.913 52.8326 126.174 52.2018 126.639 51.7367L133.629 44.7457L127.704 38.8207L117.704 48.8207C117.09 49.4337 116.604 50.1616 116.271 50.9628C115.939 51.7641 115.768 52.6229 115.768 53.4902C115.768 54.3576 115.939 55.2164 116.271 56.0176C116.604 56.8189 117.09 57.5468 117.704 58.1597L163.59 104.046C164.203 104.659 164.931 105.146 165.732 105.478C166.533 105.81 167.392 105.981 168.26 105.981C169.127 105.981 169.986 105.81 170.787 105.478C171.588 105.146 172.316 104.659 172.929 104.046L218.815 58.1597C219.429 57.5466 219.915 56.8186 220.248 56.0172C220.58 55.2158 220.75 54.3568 220.75 53.4893C220.75 52.6219 220.579 51.763 220.246 50.9617C219.914 50.1605 219.427 49.4326 218.813 48.8197Z" fill="#CFB991"/>
</svg>
